Puralecka Narrow-Bold.ufo
<glyph name="exclam" format="1">
  <advance width="241"/>
  <unicode hex="0021"/>
  <outline>
	<contour>
	  <point x="53" y="606" type="line"/>
	  <point x="64" y="462"/>
	  <point x="73" y="318"/>
	  <point x="84" y="174" type="curve"/>
	  <point x="156" y="174" type="line"/>
	  <point x="167" y="318"/>
	  <point x="178" y="462"/>
	  <point x="188" y="606" type="curve"/>
	</contour>
	<contour>
	  <point x="182" y="121" type="line"/>
	  <point x="60" y="121" type="line"/>
	  <point x="60" y="0" type="line"/>
	  <point x="182" y="0" type="line"/>
	</contour>
  </outline>
</glyph>
<glyph name="numbersign" format="1">
  <advance width="403"/>
  <unicode hex="0023"/>
  <outline>
	<contour>
	  <point x="343" y="446" type="line"/>
	  <point x="382" y="617" type="line"/>
	  <point x="304" y="617" type="line"/>
	  <point x="265" y="446" type="line"/>
	  <point x="199" y="446" type="line"/>
	  <point x="238" y="617" type="line"/>
	  <point x="160" y="617" type="line"/>
	  <point x="121" y="446" type="line"/>
	  <point x="39" y="446" type="line"/>
	  <point x="39" y="371" type="line"/>
	  <point x="104" y="371" type="line"/>
	  <point x="77" y="247" type="line"/>
	  <point x="4" y="247" type="line"/>
	  <point x="4" y="172" type="line"/>
	  <point x="60" y="172" type="line"/>
	  <point x="21" y="0" type="line"/>
	  <point x="99" y="0" type="line"/>
	  <point x="138" y="172" type="line"/>
	  <point x="204" y="172" type="line"/>
	  <point x="165" y="0" type="line"/>
	  <point x="243" y="0" type="line"/>
	  <point x="282" y="172" type="line"/>
	  <point x="363" y="172" type="line"/>
	  <point x="363" y="247" type="line"/>
	  <point x="299" y="247" type="line"/>
	  <point x="326" y="371" type="line"/>
	  <point x="398" y="371" type="line"/>
	  <point x="398" y="446" type="line"/>
	</contour>
	<contour>
	  <point x="182" y="371" type="line"/>
	  <point x="248" y="371" type="line"/>
	  <point x="221" y="247" type="line"/>
	  <point x="155" y="247" type="line"/>
	</contour>
  </outline>
</glyph>
<glyph name="percent" format="1">
  <advance width="644"/>
  <unicode hex="0025"/>
  <outline>
	<contour>
	  <point x="546" y="606" type="line"/>
	  <point x="470" y="606" type="line"/>
	  <point x="101" y="0" type="line"/>
	  <point x="176" y="0" type="line"/>
	</contour>
	<contour>
	  <point x="77" y="617"/>
	  <point x="31" y="580"/>
	  <point x="31" y="457" type="curve" smooth="yes"/>
	  <point x="31" y="335"/>
	  <point x="77" y="298"/>
	  <point x="153" y="298" type="curve" smooth="yes"/>
	  <point x="229" y="298"/>
	  <point x="275" y="334"/>
	  <point x="275" y="457" type="curve" smooth="yes"/>
	  <point x="275" y="580"/>
	  <point x="229" y="617"/>
	  <point x="153" y="617" type="curve" smooth="yes"/>
	</contour>
	<contour>
	  <point x="188" y="552"/>
	  <point x="196" y="516"/>
	  <point x="196" y="464" type="curve" smooth="yes"/>
	  <point x="196" y="451" type="line" smooth="yes"/>
	  <point x="196" y="399"/>
	  <point x="188" y="362"/>
	  <point x="153" y="362" type="curve" smooth="yes"/>
	  <point x="118" y="362"/>
	  <point x="110" y="399"/>
	  <point x="110" y="451" type="curve" smooth="yes"/>
	  <point x="110" y="464" type="line" smooth="yes"/>
	  <point x="110" y="516"/>
	  <point x="118" y="552"/>
	  <point x="153" y="552" type="curve" smooth="yes"/>
	</contour>
	<contour>
	  <point x="416" y="309"/>
	  <point x="370" y="271"/>
	  <point x="370" y="149" type="curve" smooth="yes"/>
	  <point x="370" y="27"/>
	  <point x="416" y="-11"/>
	  <point x="492" y="-11" type="curve" smooth="yes"/>
	  <point x="568" y="-11"/>
	  <point x="614" y="26"/>
	  <point x="614" y="149" type="curve" smooth="yes"/>
	  <point x="614" y="271"/>
	  <point x="568" y="309"/>
	  <point x="492" y="309" type="curve" smooth="yes"/>
	</contour>
	<contour>
	  <point x="528" y="244"/>
	  <point x="536" y="208"/>
	  <point x="536" y="156" type="curve" smooth="yes"/>
	  <point x="536" y="142" type="line" smooth="yes"/>
	  <point x="536" y="90"/>
	  <point x="528" y="54"/>
	  <point x="492" y="54" type="curve" smooth="yes"/>
	  <point x="457" y="54"/>
	  <point x="449" y="90"/>
	  <point x="449" y="142" type="curve" smooth="yes"/>
	  <point x="449" y="156" type="line" smooth="yes"/>
	  <point x="449" y="208"/>
	  <point x="457" y="244"/>
	  <point x="492" y="244" type="curve" smooth="yes"/>
	</contour>
  </outline>
</glyph>
<glyph name="parenleft" format="1">
  <advance width="241"/>
  <unicode hex="0028"/>
  <outline>
	<contour>
	  <point x="158" y="650" type="line"/>
	  <point x="73" y="541"/>
	  <point x="27" y="400"/>
	  <point x="27" y="255" type="curve" smooth="yes"/>
	  <point x="27" y="110"/>
	  <point x="73" y="-30"/>
	  <point x="158" y="-139" type="curve"/>
	  <point x="228" y="-139" type="line"/>
	  <point x="170" y="-31"/>
	  <point x="124" y="118"/>
	  <point x="124" y="256" type="curve" smooth="yes"/>
	  <point x="124" y="394"/>
	  <point x="170" y="542"/>
	  <point x="228" y="650" type="curve"/>
	</contour>
  </outline>
</glyph>
<glyph name="parenright" format="1">
  <advance width="241"/>
  <unicode hex="0029"/>
  <outline>
	<contour>
	  <point x="13" y="650" type="line"/>
	  <point x="72" y="542"/>
	  <point x="118" y="394"/>
	  <point x="118" y="256" type="curve" smooth="yes"/>
	  <point x="118" y="118"/>
	  <point x="72" y="-31"/>
	  <point x="13" y="-139" type="curve"/>
	  <point x="83" y="-139" type="line"/>
	  <point x="168" y="-30"/>
	  <point x="215" y="110"/>
	  <point x="215" y="255" type="curve" smooth="yes"/>
	  <point x="215" y="400"/>
	  <point x="168" y="541"/>
	  <point x="83" y="650" type="curve"/>
	</contour>
  </outline>
</glyph>
<glyph name="plus" format="1">
  <advance width="423"/>
  <unicode hex="002B"/>
  <outline>
	<contour>
	  <point x="256" y="271" type="line"/>
	  <point x="256" y="452" type="line"/>
	  <point x="165" y="452" type="line"/>
	  <point x="165" y="271" type="line"/>
	  <point x="29" y="271" type="line"/>
	  <point x="29" y="179" type="line"/>
	  <point x="165" y="179" type="line"/>
	  <point x="165" y="0" type="line"/>
	  <point x="256" y="0" type="line"/>
	  <point x="256" y="179" type="line"/>
	  <point x="393" y="179" type="line"/>
	  <point x="393" y="271" type="line"/>
	</contour>
  </outline>
</glyph>
<glyph name="five" format="1">
  <advance width="403"/>
  <unicode hex="0035"/>
  <outline>
	<contour>
	  <point x="357" y="507" type="line"/>
	  <point x="357" y="606" type="line"/>
	  <point x="64" y="606" type="line"/>
	  <point x="43" y="271" type="line"/>
	  <point x="146" y="256" type="line"/>
	  <point x="159" y="286"/>
	  <point x="179" y="308"/>
	  <point x="211" y="308" type="curve" smooth="yes"/>
	  <point x="247" y="308"/>
	  <point x="273" y="269"/>
	  <point x="273" y="198" type="curve" smooth="yes"/>
	  <point x="273" y="118"/>
	  <point x="246" y="78"/>
	  <point x="205" y="78" type="curve" smooth="yes"/>
	  <point x="162" y="78"/>
	  <point x="137" y="121"/>
	  <point x="137" y="188" type="curve"/>
	  <point x="27" y="188" type="line"/>
	  <point x="27" y="65"/>
	  <point x="97" y="-11"/>
	  <point x="205" y="-11" type="curve" smooth="yes"/>
	  <point x="315" y="-11"/>
	  <point x="383" y="65"/>
	  <point x="383" y="198" type="curve" smooth="yes"/>
	  <point x="383" y="331"/>
	  <point x="317" y="394"/>
	  <point x="235" y="394" type="curve" smooth="yes"/>
	  <point x="193" y="394"/>
	  <point x="166" y="378"/>
	  <point x="149" y="364" type="curve"/>
	  <point x="157" y="507" type="line"/>
	</contour>
  </outline>
</glyph>
<glyph name="M" format="1">
  <advance width="604"/>
  <unicode hex="004D"/>
  <outline>
	<contour>
	  <point x="557" y="606" type="line"/>
	  <point x="403" y="606" type="line"/>
	  <point x="329" y="272" type="line" smooth="yes"/>
	  <point x="321" y="237"/>
	  <point x="309" y="135"/>
	  <point x="309" y="135" type="curve" smooth="yes"/>
	  <point x="305" y="135" type="line" smooth="yes"/>
	  <point x="305" y="135"/>
	  <point x="290" y="232"/>
	  <point x="281" y="272" type="curve" smooth="yes"/>
	  <point x="206" y="606" type="line"/>
	  <point x="47" y="606" type="line"/>
	  <point x="47" y="0" type="line"/>
	  <point x="143" y="0" type="line"/>
	  <point x="143" y="386" type="line" smooth="yes"/>
	  <point x="143" y="410"/>
	  <point x="139" y="484"/>
	  <point x="139" y="484" type="curve"/>
	  <point x="142" y="484" type="line"/>
	  <point x="149" y="452"/>
	  <point x="156" y="421"/>
	  <point x="164" y="389" type="curve" smooth="yes"/>
	  <point x="249" y="0" type="line"/>
	  <point x="347" y="0" type="line"/>
	  <point x="438" y="415" type="line" smooth="yes"/>
	  <point x="444" y="438"/>
	  <point x="448" y="461"/>
	  <point x="453" y="484" type="curve"/>
	  <point x="457" y="484" type="line"/>
	  <point x="457" y="484"/>
	  <point x="453" y="414"/>
	  <point x="453" y="386" type="curve" smooth="yes"/>
	  <point x="453" y="0" type="line"/>
	  <point x="557" y="0" type="line"/>
	</contour>
  </outline>
</glyph>
<glyph name="N" format="1">
  <advance width="523"/>
  <unicode hex="004E"/>
  <outline>
	<contour>
	  <point x="470" y="606" type="line"/>
	  <point x="370" y="606" type="line"/>
	  <point x="370" y="269" type="line" smooth="yes"/>
	  <point x="370" y="259"/>
	  <point x="370" y="218"/>
	  <point x="370" y="218" type="curve"/>
	  <point x="368" y="216" type="line"/>
	  <point x="368" y="216"/>
	  <point x="350" y="257"/>
	  <point x="340" y="272" type="curve" smooth="yes"/>
	  <point x="153" y="606" type="line"/>
	  <point x="53" y="606" type="line"/>
	  <point x="53" y="0" type="line"/>
	  <point x="153" y="0" type="line"/>
	  <point x="153" y="338" type="line" smooth="yes"/>
	  <point x="153" y="354"/>
	  <point x="151" y="388"/>
	  <point x="151" y="388" type="curve"/>
	  <point x="155" y="391" type="line"/>
	  <point x="155" y="391"/>
	  <point x="175" y="347"/>
	  <point x="182" y="334" type="curve" smooth="yes"/>
	  <point x="370" y="0" type="line"/>
	  <point x="470" y="0" type="line"/>
	</contour>
	<contour>
	  <point x="262" y="606" type="move" name="top"/>
	</contour>
	<contour>
	  <point x="262" y="0" type="move" name="bottom"/>
	</contour>
  </outline>
</glyph>
<glyph name="S" format="1">
  <advance width="484"/>
  <unicode hex="0053"/>
  <outline>
	<contour>
	  <point x="134" y="617"/>
	  <point x="39" y="562"/>
	  <point x="39" y="447" type="curve" smooth="yes"/>
	  <point x="39" y="217"/>
	  <point x="333" y="302"/>
	  <point x="333" y="158" type="curve" smooth="yes"/>
	  <point x="333" y="123"/>
	  <point x="309" y="87"/>
	  <point x="241" y="87" type="curve" smooth="yes"/>
	  <point x="179" y="87"/>
	  <point x="144" y="126"/>
	  <point x="144" y="183" type="curve" smooth="yes"/>
	  <point x="144" y="187"/>
	  <point x="145" y="195"/>
	  <point x="145" y="197" type="curve"/>
	  <point x="27" y="197" type="line"/>
	  <point x="27" y="193"/>
	  <point x="27" y="185"/>
	  <point x="27" y="178" type="curve" smooth="yes"/>
	  <point x="27" y="53"/>
	  <point x="125" y="-11"/>
	  <point x="236" y="-11" type="curve" smooth="yes"/>
	  <point x="362" y="-11"/>
	  <point x="450" y="43"/>
	  <point x="450" y="182" type="curve" smooth="yes"/>
	  <point x="450" y="405"/>
	  <point x="156" y="332"/>
	  <point x="156" y="455" type="curve" smooth="yes"/>
	  <point x="156" y="492"/>
	  <point x="186" y="520"/>
	  <point x="240" y="520" type="curve" smooth="yes"/>
	  <point x="292" y="520"/>
	  <point x="323" y="487"/>
	  <point x="323" y="436" type="curve" smooth="yes"/>
	  <point x="323" y="428" type="line"/>
	  <point x="438" y="428" type="line"/>
	  <point x="438" y="438" type="line" smooth="yes"/>
	  <point x="438" y="563"/>
	  <point x="349" y="617"/>
	  <point x="241" y="617" type="curve" smooth="yes"/>
	</contour>
	<contour>
	  <point x="242" y="606" type="move" name="top"/>
	</contour>
	<contour>
	  <point x="242" y="0" type="move" name="bottom"/>
	</contour>
  </outline>
</glyph>
<glyph name="Z" format="1">
  <advance width="443"/>
  <unicode hex="005A"/>
  <outline>
	<contour>
	  <point x="418" y="606" type="line"/>
	  <point x="33" y="606" type="line"/>
	  <point x="33" y="506" type="line"/>
	  <point x="263" y="506" type="line"/>
	  <point x="14" y="43" type="line"/>
	  <point x="14" y="0" type="line"/>
	  <point x="424" y="0" type="line"/>
	  <point x="424" y="101" type="line"/>
	  <point x="169" y="101" type="line"/>
	  <point x="418" y="562" type="line"/>
	</contour>
	<contour>
	  <point x="222" y="606" type="move" name="top"/>
	</contour>
  </outline>
</glyph>
<glyph name="bracketright" format="1">
  <advance width="241"/>
  <unicode hex="005D"/>
  <outline>
	<contour>
	  <point x="198" y="-142" type="line"/>
	  <point x="198" y="650" type="line"/>
	  <point x="22" y="650" type="line"/>
	  <point x="22" y="566" type="line"/>
	  <point x="95" y="566" type="line"/>
	  <point x="95" y="-58" type="line"/>
	  <point x="22" y="-58" type="line"/>
	  <point x="22" y="-142" type="line"/>
	</contour>
  </outline>
</glyph>
<glyph name="n" format="1">
  <advance width="443"/>
  <unicode hex="006E"/>
  <outline>
	<contour>
	  <point x="215" y="476"/>
	  <point x="177" y="444"/>
	  <point x="153" y="408" type="curve"/>
	  <point x="148" y="408" type="line"/>
	  <point x="137" y="465" type="line"/>
	  <point x="49" y="465" type="line"/>
	  <point x="49" y="0" type="line"/>
	  <point x="155" y="0" type="line"/>
	  <point x="155" y="286" type="line" smooth="yes"/>
	  <point x="155" y="339"/>
	  <point x="186" y="379"/>
	  <point x="227" y="379" type="curve" smooth="yes"/>
	  <point x="265" y="379"/>
	  <point x="288" y="357"/>
	  <point x="288" y="297" type="curve" smooth="yes"/>
	  <point x="288" y="0" type="line"/>
	  <point x="394" y="0" type="line"/>
	  <point x="394" y="326" type="line" smooth="yes"/>
	  <point x="394" y="436"/>
	  <point x="342" y="476"/>
	  <point x="271" y="476" type="curve" smooth="yes"/>
	</contour>
	<contour>
	  <point x="222" y="465" type="move" name="top"/>
	</contour>
	<contour>
	  <point x="222" y="0" type="move" name="bottom"/>
	</contour>
  </outline>
</glyph>
<glyph name="braceleft" format="1">
  <advance width="282"/>
  <unicode hex="007B"/>
  <outline>
	<contour>
	  <point x="263" y="650" type="line"/>
	  <point x="172" y="650"/>
	  <point x="89" y="630"/>
	  <point x="89" y="519" type="curve" smooth="yes"/>
	  <point x="89" y="348" type="line" smooth="yes"/>
	  <point x="89" y="309"/>
	  <point x="53" y="295"/>
	  <point x="21" y="295" type="curve"/>
	  <point x="21" y="214" type="line"/>
	  <point x="53" y="214"/>
	  <point x="89" y="201"/>
	  <point x="89" y="161" type="curve" smooth="yes"/>
	  <point x="89" y="-10" type="line" smooth="yes"/>
	  <point x="89" y="-121"/>
	  <point x="172" y="-141"/>
	  <point x="263" y="-141" type="curve"/>
	  <point x="263" y="-72" type="line"/>
	  <point x="232" y="-72"/>
	  <point x="194" y="-64"/>
	  <point x="194" y="-19" type="curve" smooth="yes"/>
	  <point x="194" y="40"/>
	  <point x="189" y="95"/>
	  <point x="187" y="155" type="curve" smooth="yes"/>
	  <point x="185" y="215"/>
	  <point x="161" y="250"/>
	  <point x="92" y="250" type="curve"/>
	  <point x="92" y="259" type="line"/>
	  <point x="161" y="259"/>
	  <point x="186" y="294"/>
	  <point x="187" y="354" type="curve" smooth="yes"/>
	  <point x="189" y="414"/>
	  <point x="194" y="469"/>
	  <point x="194" y="528" type="curve" smooth="yes"/>
	  <point x="194" y="573"/>
	  <point x="232" y="582"/>
	  <point x="263" y="582" type="curve"/>
	</contour>
  </outline>
</glyph>
<glyph name="bar" format="1">
  <advance width="203"/>
  <unicode hex="007C"/>
  <outline>
	<contour>
	  <point x="141" y="-153" type="line"/>
	  <point x="141" y="639" type="line"/>
	  <point x="62" y="639" type="line"/>
	  <point x="62" y="-153" type="line"/>
	</contour>
  </outline>
</glyph>
<glyph name="braceright" format="1">
  <advance width="282"/>
  <unicode hex="007D"/>
  <outline>
	<contour>
	  <point x="19" y="582" type="line"/>
	  <point x="50" y="582"/>
	  <point x="88" y="573"/>
	  <point x="88" y="528" type="curve" smooth="yes"/>
	  <point x="88" y="469"/>
	  <point x="93" y="414"/>
	  <point x="95" y="354" type="curve" smooth="yes"/>
	  <point x="96" y="294"/>
	  <point x="121" y="259"/>
	  <point x="190" y="259" type="curve"/>
	  <point x="190" y="250" type="line"/>
	  <point x="121" y="250"/>
	  <point x="97" y="215"/>
	  <point x="95" y="155" type="curve" smooth="yes"/>
	  <point x="93" y="95"/>
	  <point x="88" y="40"/>
	  <point x="88" y="-19" type="curve" smooth="yes"/>
	  <point x="88" y="-64"/>
	  <point x="50" y="-72"/>
	  <point x="19" y="-72" type="curve"/>
	  <point x="19" y="-141" type="line"/>
	  <point x="110" y="-141"/>
	  <point x="193" y="-121"/>
	  <point x="193" y="-10" type="curve" smooth="yes"/>
	  <point x="193" y="161" type="line" smooth="yes"/>
	  <point x="193" y="201"/>
	  <point x="229" y="214"/>
	  <point x="261" y="214" type="curve"/>
	  <point x="261" y="295" type="line"/>
	  <point x="229" y="295"/>
	  <point x="193" y="309"/>
	  <point x="193" y="348" type="curve" smooth="yes"/>
	  <point x="193" y="519" type="line" smooth="yes"/>
	  <point x="193" y="630"/>
	  <point x="110" y="650"/>
	  <point x="19" y="650" type="curve"/>
	</contour>
  </outline>
</glyph>
<glyph name="asciitilde" format="1">
  <advance width="423"/>
  <unicode hex="007E"/>
  <outline>
	<contour>
	  <point x="400" y="355" type="line"/>
	  <point x="400" y="355"/>
	  <point x="354" y="291"/>
	  <point x="291" y="291" type="curve" smooth="yes"/>
	  <point x="232" y="291"/>
	  <point x="189" y="345"/>
	  <point x="133" y="345" type="curve" smooth="yes"/>
	  <point x="60" y="345"/>
	  <point x="24" y="280"/>
	  <point x="24" y="280" type="curve"/>
	  <point x="24" y="174" type="line"/>
	  <point x="24" y="174"/>
	  <point x="69" y="239"/>
	  <point x="133" y="239" type="curve" smooth="yes"/>
	  <point x="191" y="239"/>
	  <point x="234" y="185"/>
	  <point x="291" y="185" type="curve" smooth="yes"/>
	  <point x="363" y="185"/>
	  <point x="400" y="249"/>
	  <point x="400" y="249" type="curve"/>
	</contour>
  </outline>
</glyph>
<glyph name="exclamdown" format="1">
  <advance width="241"/>
  <unicode hex="00A1"/>
  <outline>
	<contour>
	  <point x="84" y="291" type="line"/>
	  <point x="73" y="147"/>
	  <point x="64" y="3"/>
	  <point x="53" y="-141" type="curve"/>
	  <point x="188" y="-141" type="line"/>
	  <point x="178" y="3"/>
	  <point x="167" y="147"/>
	  <point x="156" y="291" type="curve"/>
	</contour>
	<contour>
	  <point x="182" y="465" type="line"/>
	  <point x="60" y="465" type="line"/>
	  <point x="60" y="344" type="line"/>
	  <point x="182" y="344" type="line"/>
	</contour>
  </outline>
</glyph>
<glyph name="sterling" format="1">
  <advance width="403"/>
  <unicode hex="00A3"/>
  <outline>
	<contour>
	  <point x="123" y="617"/>
	  <point x="63" y="559"/>
	  <point x="63" y="441" type="curve" smooth="yes"/>
	  <point x="63" y="344" type="line"/>
	  <point x="8" y="344" type="line"/>
	  <point x="8" y="255" type="line"/>
	  <point x="63" y="255" type="line"/>
	  <point x="63" y="95" type="line"/>
	  <point x="18" y="95" type="line"/>
	  <point x="18" y="0" type="line"/>
	  <point x="377" y="0" type="line"/>
	  <point x="377" y="95" type="line"/>
	  <point x="159" y="95" type="line"/>
	  <point x="169" y="255" type="line"/>
	  <point x="276" y="255" type="line"/>
	  <point x="276" y="344" type="line"/>
	  <point x="170" y="344" type="line"/>
	  <point x="170" y="464" type="line" smooth="yes"/>
	  <point x="170" y="507"/>
	  <point x="190" y="528"/>
	  <point x="223" y="528" type="curve" smooth="yes"/>
	  <point x="256" y="528"/>
	  <point x="278" y="504"/>
	  <point x="278" y="457" type="curve" smooth="yes"/>
	  <point x="278" y="434" type="line"/>
	  <point x="383" y="434" type="line"/>
	  <point x="383" y="446" type="line" smooth="yes"/>
	  <point x="383" y="560"/>
	  <point x="320" y="617"/>
	  <point x="223" y="617" type="curve" smooth="yes"/>
	</contour>
  </outline>
</glyph>
<glyph name="dieresis" format="1">
  <advance width="241"/>
  <unicode hex="00A8"/>
  <outline>
	<contour>
	  <point x="242" y="543" type="line"/>
	  <point x="242" y="639" type="line"/>
	  <point x="154" y="639" type="line"/>
	  <point x="154" y="543" type="line"/>
	</contour>
	<contour>
	  <point x="88" y="543" type="line"/>
	  <point x="88" y="639" type="line"/>
	  <point x="-1" y="639" type="line"/>
	  <point x="-1" y="543" type="line"/>
	</contour>
	<contour>
	  <point x="121" y="465" type="move" name="_top"/>
	</contour>
  </outline>
</glyph>
<glyph name="paragraph" format="1">
  <advance width="403"/>
  <unicode hex="00B6"/>
  <outline>
	<contour>
	  <point x="397" y="539" type="line"/>
	  <point x="397" y="606" type="line"/>
	  <point x="186" y="606" type="line" smooth="yes"/>
	  <point x="91" y="606"/>
	  <point x="16" y="520"/>
	  <point x="16" y="413" type="curve" smooth="yes"/>
	  <point x="16" y="313"/>
	  <point x="80" y="232"/>
	  <point x="165" y="221" type="curve"/>
	  <point x="165" y="-153" type="line"/>
	  <point x="236" y="-153" type="line"/>
	  <point x="236" y="539" type="line"/>
	  <point x="283" y="539" type="line"/>
	  <point x="283" y="-153" type="line"/>
	  <point x="354" y="-153" type="line"/>
	  <point x="354" y="539" type="line"/>
	</contour>
  </outline>
</glyph>
<glyph name="guillemotright" format="1">
  <advance width="403"/>
  <unicode hex="00BB"/>
  <outline>
	<contour>
	  <point x="386" y="288" type="line"/>
	  <point x="266" y="465" type="line"/>
	  <point x="186" y="465" type="line"/>
	  <point x="281" y="288" type="line"/>
	  <point x="186" y="111" type="line"/>
	  <point x="266" y="111" type="line"/>
	</contour>
	<contour>
	  <point x="225" y="288" type="line"/>
	  <point x="104" y="465" type="line"/>
	  <point x="24" y="465" type="line"/>
	  <point x="119" y="288" type="line"/>
	  <point x="24" y="111" type="line"/>
	  <point x="104" y="111" type="line"/>
	</contour>
  </outline>
</glyph>
<glyph name="onequarter" format="1">
  <advance width="605"/>
  <unicode hex="00BC"/>
  <outline>
	<contour>
	  <point x="174" y="-11" type="line"/>
	  <point x="523" y="617" type="line"/>
	  <point x="465" y="617" type="line"/>
	  <point x="115" y="-11" type="line"/>
	</contour>
	<contour>
	  <point x="165" y="311" type="line"/>
	  <point x="165" y="606" type="line"/>
	  <point x="130" y="606" type="line"/>
	  <point x="101" y="587"/>
	  <point x="55" y="570"/>
	  <point x="28" y="567" type="curve"/>
	  <point x="28" y="517" type="line"/>
	  <point x="95" y="517" type="line"/>
	  <point x="95" y="311" type="line"/>
	  <point x="29" y="311" type="line"/>
	  <point x="29" y="250" type="line"/>
	  <point x="224" y="250" type="line"/>
	  <point x="224" y="311" type="line"/>
	</contour>
	<contour>
	  <point x="441" y="366" type="line"/>
	  <point x="419" y="286"/>
	  <point x="387" y="197"/>
	  <point x="351" y="133" type="curve"/>
	  <point x="351" y="79" type="line"/>
	  <point x="477" y="79" type="line"/>
	  <point x="477" y="0" type="line"/>
	  <point x="547" y="0" type="line"/>
	  <point x="547" y="79" type="line"/>
	  <point x="584" y="79" type="line"/>
	  <point x="584" y="140" type="line"/>
	  <point x="547" y="140" type="line"/>
	  <point x="547" y="288" type="line"/>
	  <point x="523" y="288" type="line"/>
	  <point x="515" y="259"/>
	  <point x="492" y="199"/>
	  <point x="477" y="172" type="curve"/>
	  <point x="477" y="140" type="line"/>
	  <point x="417" y="140" type="line"/>
	  <point x="440" y="174"/>
	  <point x="492" y="276"/>
	  <point x="511" y="366" type="curve"/>
	</contour>
  </outline>
</glyph>
<glyph name="Aacute" format="1">
  <advance width="523"/>
  <unicode hex="00C1"/>
  <outline>
	<contour>
	  <point x="327" y="606" type="line"/>
	  <point x="195" y="606" type="line"/>
	  <point x="0" y="0" type="line"/>
	  <point x="110" y="0" type="line"/>
	  <point x="146" y="119" type="line"/>
	  <point x="370" y="119" type="line"/>
	  <point x="407" y="0" type="line"/>
	  <point x="522" y="0" type="line"/>
	</contour>
	<contour>
	  <point x="260" y="505" type="line"/>
	  <point x="260" y="505"/>
	  <point x="268" y="454"/>
	  <point x="278" y="423" type="curve" smooth="yes"/>
	  <point x="339" y="220" type="line"/>
	  <point x="177" y="220" type="line"/>
	  <point x="239" y="423" type="line" smooth="yes"/>
	  <point x="248" y="451"/>
	  <point x="256" y="505"/>
	  <point x="256" y="505" type="curve"/>
	</contour>
	<contour>
	  <point x="383" y="781" type="line"/>
	  <point x="277" y="781" type="line"/>
	  <point x="201" y="664" type="line"/>
	  <point x="288" y="664" type="line"/>
	  <point x="384" y="778" type="line"/>
	</contour>
  </outline>
</glyph>
<glyph name="Iacute" format="1">
  <advance width="202"/>
  <unicode hex="00CD"/>
  <outline>
	<contour>
	  <point x="157" y="606" type="line"/>
	  <point x="44" y="606" type="line"/>
	  <point x="44" y="0" type="line"/>
	  <point x="157" y="0" type="line"/>
	</contour>
	<contour>
	  <point x="222" y="781" type="line"/>
	  <point x="116" y="781" type="line"/>
	  <point x="40" y="664" type="line"/>
	  <point x="128" y="664" type="line"/>
	  <point x="223" y="778" type="line"/>
	</contour>
  </outline>
</glyph>
<glyph name="Ucircumflex" format="1">
  <advance width="523"/>
  <unicode hex="00DB"/>
  <outline>
	<contour>
	  <point x="470" y="606" type="line"/>
	  <point x="357" y="606" type="line"/>
	  <point x="357" y="194" type="line" smooth="yes"/>
	  <point x="357" y="124"/>
	  <point x="322" y="87"/>
	  <point x="262" y="87" type="curve" smooth="yes"/>
	  <point x="202" y="87"/>
	  <point x="167" y="124"/>
	  <point x="167" y="194" type="curve" smooth="yes"/>
	  <point x="167" y="606" type="line"/>
	  <point x="54" y="606" type="line"/>
	  <point x="54" y="190" type="line" smooth="yes"/>
	  <point x="54" y="58"/>
	  <point x="132" y="-11"/>
	  <point x="262" y="-11" type="curve" smooth="yes"/>
	  <point x="392" y="-11"/>
	  <point x="470" y="58"/>
	  <point x="470" y="190" type="curve" smooth="yes"/>
	</contour>
	<contour>
	  <point x="306" y="781" type="line"/>
	  <point x="219" y="781" type="line"/>
	  <point x="143" y="661" type="line"/>
	  <point x="222" y="661" type="line"/>
	  <point x="262" y="722" type="line"/>
	  <point x="301" y="661" type="line"/>
	  <point x="381" y="661" type="line"/>
	</contour>
  </outline>
</glyph>
<glyph name="germandbls" format="1">
  <advance width="443"/>
  <unicode hex="00DF"/>
  <outline>
	<contour>
	  <point x="118" y="650"/>
	  <point x="35" y="595"/>
	  <point x="35" y="460" type="curve" smooth="yes"/>
	  <point x="35" y="0" type="line"/>
	  <point x="141" y="0" type="line"/>
	  <point x="141" y="467" type="line" smooth="yes"/>
	  <point x="141" y="527"/>
	  <point x="173" y="560"/>
	  <point x="220" y="560" type="curve" smooth="yes"/>
	  <point x="268" y="560"/>
	  <point x="293" y="528"/>
	  <point x="293" y="482" type="curve" smooth="yes"/>
	  <point x="293" y="430"/>
	  <point x="263" y="386"/>
	  <point x="227" y="386" type="curve" smooth="yes"/>
	  <point x="184" y="386" type="line"/>
	  <point x="184" y="286" type="line"/>
	  <point x="230" y="286" type="line" smooth="yes"/>
	  <point x="275" y="286"/>
	  <point x="311" y="243"/>
	  <point x="311" y="190" type="curve" smooth="yes"/>
	  <point x="311" y="136"/>
	  <point x="275" y="90"/>
	  <point x="230" y="90" type="curve" smooth="yes"/>
	  <point x="184" y="90" type="line"/>
	  <point x="184" y="0" type="line"/>
	  <point x="241" y="0" type="line" smooth="yes"/>
	  <point x="340" y="0"/>
	  <point x="418" y="75"/>
	  <point x="418" y="189" type="curve" smooth="yes"/>
	  <point x="418" y="257"/>
	  <point x="376" y="324"/>
	  <point x="316" y="346" type="curve"/>
	  <point x="316" y="349" type="line"/>
	  <point x="365" y="369"/>
	  <point x="400" y="426"/>
	  <point x="400" y="484" type="curve" smooth="yes"/>
	  <point x="400" y="588"/>
	  <point x="325" y="650"/>
	  <point x="225" y="650" type="curve" smooth="yes"/>
	</contour>
  </outline>
</glyph>
<glyph name="eth" format="1">
  <advance width="443"/>
  <unicode hex="00F0"/>
  <outline>
	<contour>
	  <point x="117" y="639" type="line"/>
	  <point x="115" y="636" type="line"/>
	  <point x="126" y="624"/>
	  <point x="144" y="607"/>
	  <point x="162" y="587" type="curve"/>
	  <point x="95" y="581" type="line"/>
	  <point x="95" y="516" type="line"/>
	  <point x="210" y="526" type="line"/>
	  <point x="222" y="508"/>
	  <point x="234" y="489"/>
	  <point x="243" y="472" type="curve"/>
	  <point x="240" y="469" type="line"/>
	  <point x="227" y="473"/>
	  <point x="210" y="476"/>
	  <point x="197" y="476" type="curve" smooth="yes"/>
	  <point x="98" y="476"/>
	  <point x="36" y="392"/>
	  <point x="36" y="232" type="curve" smooth="yes"/>
	  <point x="36" y="65"/>
	  <point x="98" y="-11"/>
	  <point x="222" y="-11" type="curve" smooth="yes"/>
	  <point x="346" y="-11"/>
	  <point x="408" y="65"/>
	  <point x="408" y="232" type="curve" smooth="yes"/>
	  <point x="408" y="372"/>
	  <point x="367" y="469"/>
	  <point x="321" y="537" type="curve"/>
	  <point x="387" y="543" type="line"/>
	  <point x="387" y="607" type="line"/>
	  <point x="272" y="597" type="line"/>
	  <point x="255" y="614"/>
	  <point x="240" y="629"/>
	  <point x="228" y="639" type="curve"/>
	</contour>
	<contour>
	  <point x="277" y="386"/>
	  <point x="297" y="339"/>
	  <point x="297" y="249" type="curve" smooth="yes"/>
	  <point x="297" y="216" type="line" smooth="yes"/>
	  <point x="297" y="126"/>
	  <point x="277" y="79"/>
	  <point x="222" y="79" type="curve" smooth="yes"/>
	  <point x="167" y="79"/>
	  <point x="147" y="126"/>
	  <point x="147" y="216" type="curve" smooth="yes"/>
	  <point x="147" y="249" type="line" smooth="yes"/>
	  <point x="147" y="339"/>
	  <point x="167" y="386"/>
	  <point x="222" y="386" type="curve" smooth="yes"/>
	</contour>
  </outline>
</glyph>
<glyph name="oacute" format="1">
  <advance width="443"/>
  <unicode hex="00F3"/>
  <outline>
	<contour>
	  <point x="98" y="476"/>
	  <point x="36" y="400"/>
	  <point x="36" y="232" type="curve" smooth="yes"/>
	  <point x="36" y="65"/>
	  <point x="98" y="-11"/>
	  <point x="222" y="-11" type="curve" smooth="yes"/>
	  <point x="346" y="-11"/>
	  <point x="408" y="65"/>
	  <point x="408" y="232" type="curve" smooth="yes"/>
	  <point x="408" y="400"/>
	  <point x="346" y="476"/>
	  <point x="222" y="476" type="curve" smooth="yes"/>
	</contour>
	<contour>
	  <point x="277" y="386"/>
	  <point x="297" y="339"/>
	  <point x="297" y="249" type="curve" smooth="yes"/>
	  <point x="297" y="216" type="line" smooth="yes"/>
	  <point x="297" y="126"/>
	  <point x="277" y="79"/>
	  <point x="222" y="79" type="curve" smooth="yes"/>
	  <point x="167" y="79"/>
	  <point x="147" y="126"/>
	  <point x="147" y="216" type="curve" smooth="yes"/>
	  <point x="147" y="249" type="line" smooth="yes"/>
	  <point x="147" y="339"/>
	  <point x="167" y="386"/>
	  <point x="222" y="386" type="curve" smooth="yes"/>
	</contour>
	<contour>
	  <point x="343" y="639" type="line"/>
	  <point x="237" y="639" type="line"/>
	  <point x="161" y="522" type="line"/>
	  <point x="248" y="522" type="line"/>
	  <point x="344" y="636" type="line"/>
	</contour>
  </outline>
</glyph>
<glyph name="uacute" format="1">
  <advance width="443"/>
  <unicode hex="00FA"/>
  <outline>
	<contour>
	  <point x="394" y="465" type="line"/>
	  <point x="288" y="465" type="line"/>
	  <point x="288" y="177" type="line" smooth="yes"/>
	  <point x="288" y="125"/>
	  <point x="257" y="86"/>
	  <point x="216" y="86" type="curve" smooth="yes"/>
	  <point x="176" y="86"/>
	  <point x="155" y="108"/>
	  <point x="155" y="168" type="curve" smooth="yes"/>
	  <point x="155" y="465" type="line"/>
	  <point x="49" y="465" type="line"/>
	  <point x="49" y="139" type="line" smooth="yes"/>
	  <point x="49" y="29"/>
	  <point x="101" y="-11"/>
	  <point x="172" y="-11" type="curve" smooth="yes"/>
	  <point x="228" y="-11"/>
	  <point x="266" y="21"/>
	  <point x="290" y="57" type="curve"/>
	  <point x="295" y="57" type="line"/>
	  <point x="306" y="0" type="line"/>
	  <point x="394" y="0" type="line"/>
	</contour>
	<contour>
	  <point x="343" y="639" type="line"/>
	  <point x="237" y="639" type="line"/>
	  <point x="161" y="522" type="line"/>
	  <point x="248" y="522" type="line"/>
	  <point x="344" y="636" type="line"/>
	</contour>
  </outline>
</glyph>
<glyph name="ucircumflex" format="1">
  <advance width="443"/>
  <unicode hex="00FB"/>
  <outline>
	<contour>
	  <point x="394" y="0" type="line"/>
	  <point x="394" y="465" type="line"/>
	  <point x="288" y="465" type="line"/>
	  <point x="288" y="177" type="line" smooth="yes"/>
	  <point x="288" y="125"/>
	  <point x="257" y="86"/>
	  <point x="216" y="86" type="curve" smooth="yes"/>
	  <point x="176" y="86"/>
	  <point x="155" y="108"/>
	  <point x="155" y="168" type="curve" smooth="yes"/>
	  <point x="155" y="465" type="line"/>
	  <point x="49" y="465" type="line"/>
	  <point x="49" y="139" type="line" smooth="yes"/>
	  <point x="49" y="29"/>
	  <point x="101" y="-11"/>
	  <point x="172" y="-11" type="curve" smooth="yes"/>
	  <point x="228" y="-11"/>
	  <point x="266" y="21"/>
	  <point x="290" y="57" type="curve"/>
	  <point x="295" y="57" type="line"/>
	  <point x="306" y="0" type="line"/>
	</contour>
	<contour>
	  <point x="340" y="520" type="line"/>
	  <point x="265" y="639" type="line"/>
	  <point x="179" y="639" type="line"/>
	  <point x="103" y="520" type="line"/>
	  <point x="182" y="520" type="line"/>
	  <point x="222" y="581" type="line"/>
	  <point x="261" y="520" type="line"/>
	</contour>
  </outline>
</glyph>
<glyph name="thorn" format="1">
  <advance width="443"/>
  <unicode hex="00FE"/>
  <outline>
	<contour>
	  <point x="155" y="639" type="line"/>
	  <point x="49" y="639" type="line"/>
	  <point x="49" y="-153" type="line"/>
	  <point x="155" y="-153" type="line"/>
	  <point x="155" y="48" type="line"/>
	  <point x="159" y="48" type="line"/>
	  <point x="176" y="11"/>
	  <point x="216" y="-11"/>
	  <point x="263" y="-11" type="curve" smooth="yes"/>
	  <point x="345" y="-11"/>
	  <point x="407" y="63"/>
	  <point x="407" y="232" type="curve" smooth="yes"/>
	  <point x="407" y="400"/>
	  <point x="349" y="476"/>
	  <point x="257" y="476" type="curve" smooth="yes"/>
	  <point x="213" y="476"/>
	  <point x="175" y="453"/>
	  <point x="152" y="407" type="curve"/>
	  <point x="155" y="406" type="line"/>
	</contour>
	<contour>
	  <point x="277" y="379"/>
	  <point x="296" y="333"/>
	  <point x="296" y="249" type="curve" smooth="yes"/>
	  <point x="296" y="216" type="line" smooth="yes"/>
	  <point x="296" y="132"/>
	  <point x="277" y="86"/>
	  <point x="225" y="86" type="curve" smooth="yes"/>
	  <point x="174" y="86"/>
	  <point x="155" y="133"/>
	  <point x="155" y="217" type="curve" smooth="yes"/>
	  <point x="155" y="249" type="line" smooth="yes"/>
	  <point x="155" y="333"/>
	  <point x="174" y="379"/>
	  <point x="225" y="379" type="curve" smooth="yes"/>
	</contour>
  </outline>
</glyph>
<glyph name="Aogonek" format="1">
  <advance width="523"/>
  <unicode hex="0104"/>
  <outline>
	<contour>
	  <point x="407" y="0" type="line"/>
	  <point x="522" y="0" type="line"/>
	  <point x="327" y="606" type="line"/>
	  <point x="195" y="606" type="line"/>
	  <point x="0" y="0" type="line"/>
	  <point x="110" y="0" type="line"/>
	  <point x="146" y="119" type="line"/>
	  <point x="370" y="119" type="line"/>
	</contour>
	<contour>
	  <point x="260" y="505" type="line"/>
	  <point x="260" y="505"/>
	  <point x="268" y="454"/>
	  <point x="278" y="423" type="curve" smooth="yes"/>
	  <point x="339" y="220" type="line"/>
	  <point x="177" y="220" type="line"/>
	  <point x="239" y="423" type="line" smooth="yes"/>
	  <point x="248" y="451"/>
	  <point x="256" y="505"/>
	  <point x="256" y="505" type="curve"/>
	</contour>
	<contour>
	  <point x="449" y="0" type="line"/>
	  <point x="430" y="-24"/>
	  <point x="409" y="-44"/>
	  <point x="409" y="-88" type="curve" smooth="yes"/>
	  <point x="409" y="-149"/>
	  <point x="456" y="-168"/>
	  <point x="497" y="-168" type="curve" smooth="yes"/>
	  <point x="516" y="-168"/>
	  <point x="535" y="-164"/>
	  <point x="555" y="-156" type="curve"/>
	  <point x="555" y="-107" type="line"/>
	  <point x="536" y="-107" type="line" smooth="yes"/>
	  <point x="507" y="-107"/>
	  <point x="496" y="-85"/>
	  <point x="496" y="-62" type="curve" smooth="yes"/>
	  <point x="496" y="-34"/>
	  <point x="512" y="-10"/>
	  <point x="522" y="0" type="curve"/>
	</contour>
  </outline>
</glyph>
<glyph name="cacute" format="1">
  <advance width="403"/>
  <unicode hex="0107"/>
  <outline>
	<contour>
	  <point x="94" y="476"/>
	  <point x="36" y="400"/>
	  <point x="36" y="232" type="curve" smooth="yes"/>
	  <point x="36" y="65"/>
	  <point x="91" y="-11"/>
	  <point x="212" y="-11" type="curve" smooth="yes"/>
	  <point x="309" y="-11"/>
	  <point x="371" y="45"/>
	  <point x="371" y="175" type="curve"/>
	  <point x="266" y="175" type="line"/>
	  <point x="266" y="111"/>
	  <point x="250" y="79"/>
	  <point x="212" y="79" type="curve" smooth="yes"/>
	  <point x="164" y="79"/>
	  <point x="147" y="126"/>
	  <point x="147" y="216" type="curve" smooth="yes"/>
	  <point x="147" y="249" type="line" smooth="yes"/>
	  <point x="147" y="339"/>
	  <point x="164" y="386"/>
	  <point x="209" y="386" type="curve" smooth="yes"/>
	  <point x="245" y="386"/>
	  <point x="263" y="355"/>
	  <point x="263" y="290" type="curve"/>
	  <point x="371" y="290" type="line"/>
	  <point x="371" y="420"/>
	  <point x="308" y="476"/>
	  <point x="209" y="476" type="curve" smooth="yes"/>
	</contour>
	<contour>
	  <point x="331" y="639" type="line"/>
	  <point x="225" y="639" type="line"/>
	  <point x="149" y="522" type="line"/>
	  <point x="237" y="522" type="line"/>
	  <point x="331" y="636" type="line"/>
	</contour>
  </outline>
</glyph>
<glyph name="dcroat" format="1">
  <advance width="446"/>
  <unicode hex="0111"/>
  <outline>
	<contour>
	  <point x="394" y="639" type="line"/>
	  <point x="288" y="639" type="line"/>
	  <point x="288" y="592" type="line"/>
	  <point x="171" y="592" type="line"/>
	  <point x="171" y="515" type="line"/>
	  <point x="288" y="515" type="line"/>
	  <point x="288" y="417" type="line"/>
	  <point x="284" y="417" type="line"/>
	  <point x="267" y="454"/>
	  <point x="227" y="476"/>
	  <point x="180" y="476" type="curve" smooth="yes"/>
	  <point x="98" y="476"/>
	  <point x="36" y="402"/>
	  <point x="36" y="233" type="curve" smooth="yes"/>
	  <point x="36" y="65"/>
	  <point x="94" y="-11"/>
	  <point x="186" y="-11" type="curve" smooth="yes"/>
	  <point x="230" y="-11"/>
	  <point x="268" y="12"/>
	  <point x="291" y="57" type="curve"/>
	  <point x="295" y="57" type="line"/>
	  <point x="306" y="0" type="line"/>
	  <point x="394" y="0" type="line"/>
	  <point x="394" y="515" type="line"/>
	  <point x="442" y="515" type="line"/>
	  <point x="442" y="592" type="line"/>
	  <point x="394" y="592" type="line"/>
	</contour>
	<contour>
	  <point x="269" y="379"/>
	  <point x="288" y="331"/>
	  <point x="288" y="248" type="curve" smooth="yes"/>
	  <point x="288" y="216" type="line" smooth="yes"/>
	  <point x="288" y="132"/>
	  <point x="269" y="86"/>
	  <point x="217" y="86" type="curve" smooth="yes"/>
	  <point x="166" y="86"/>
	  <point x="147" y="132"/>
	  <point x="147" y="216" type="curve" smooth="yes"/>
	  <point x="147" y="249" type="line" smooth="yes"/>
	  <point x="147" y="333"/>
	  <point x="166" y="379"/>
	  <point x="217" y="379" type="curve" smooth="yes"/>
	</contour>
  </outline>
</glyph>
<glyph name="Ebreve" format="1">
  <advance width="484"/>
  <unicode hex="0114"/>
  <outline>
	<contour>
	  <point x="294" y="781" type="line"/>
	  <point x="293" y="768"/>
	  <point x="271" y="751"/>
	  <point x="241" y="751" type="curve" smooth="yes"/>
	  <point x="212" y="751"/>
	  <point x="192" y="768"/>
	  <point x="189" y="781" type="curve"/>
	  <point x="124" y="781" type="line"/>
	  <point x="124" y="736"/>
	  <point x="169" y="686"/>
	  <point x="241" y="686" type="curve" smooth="yes"/>
	  <point x="315" y="686"/>
	  <point x="360" y="736"/>
	  <point x="360" y="781" type="curve"/>
	</contour>
	<contour>
	  <point x="53" y="0" type="line"/>
	  <point x="445" y="0" type="line"/>
	  <point x="445" y="101" type="line"/>
	  <point x="166" y="101" type="line"/>
	  <point x="166" y="260" type="line"/>
	  <point x="400" y="260" type="line"/>
	  <point x="400" y="361" type="line"/>
	  <point x="166" y="361" type="line"/>
	  <point x="166" y="506" type="line"/>
	  <point x="439" y="506" type="line"/>
	  <point x="439" y="606" type="line"/>
	  <point x="53" y="606" type="line"/>
	</contour>
  </outline>
</glyph>
<glyph name="Hbar" format="1">
  <advance width="523"/>
  <unicode hex="0126"/>
  <outline>
	<contour>
	  <point x="514" y="433" type="line"/>
	  <point x="514" y="510" type="line"/>
	  <point x="470" y="510" type="line"/>
	  <point x="470" y="606" type="line"/>
	  <point x="357" y="606" type="line"/>
	  <point x="357" y="510" type="line"/>
	  <point x="166" y="510" type="line"/>
	  <point x="166" y="606" type="line"/>
	  <point x="53" y="606" type="line"/>
	  <point x="53" y="510" type="line"/>
	  <point x="9" y="510" type="line"/>
	  <point x="9" y="433" type="line"/>
	  <point x="53" y="433" type="line"/>
	  <point x="53" y="0" type="line"/>
	  <point x="166" y="0" type="line"/>
	  <point x="166" y="254" type="line"/>
	  <point x="357" y="254" type="line"/>
	  <point x="357" y="0" type="line"/>
	  <point x="470" y="0" type="line"/>
	  <point x="470" y="433" type="line"/>
	</contour>
	<contour>
	  <point x="357" y="354" type="line"/>
	  <point x="166" y="354" type="line"/>
	  <point x="166" y="433" type="line"/>
	  <point x="357" y="433" type="line"/>
	</contour>
  </outline>
</glyph>
<glyph name="itilde" format="1">
  <advance width="202"/>
  <unicode hex="0129"/>
  <outline>
	<contour>
	  <point x="154" y="0" type="line"/>
	  <point x="154" y="465" type="line"/>
	  <point x="48" y="465" type="line"/>
	  <point x="48" y="0" type="line"/>
	</contour>
	<contour>
	  <point x="191" y="639" type="line"/>
	  <point x="187" y="614"/>
	  <point x="176" y="606"/>
	  <point x="157" y="606" type="curve" smooth="yes"/>
	  <point x="117" y="606"/>
	  <point x="83" y="639"/>
	  <point x="39" y="639" type="curve" smooth="yes"/>
	  <point x="-23" y="639"/>
	  <point x="-48" y="580"/>
	  <point x="-48" y="531" type="curve"/>
	  <point x="11" y="531" type="line"/>
	  <point x="15" y="555"/>
	  <point x="27" y="564"/>
	  <point x="46" y="564" type="curve" smooth="yes"/>
	  <point x="86" y="564"/>
	  <point x="120" y="531"/>
	  <point x="163" y="531" type="curve" smooth="yes"/>
	  <point x="225" y="531"/>
	  <point x="250" y="591"/>
	  <point x="250" y="639" type="curve"/>
	</contour>
  </outline>
</glyph>
<glyph name="Iogonek" format="1">
  <advance width="202"/>
  <unicode hex="012E"/>
  <outline>
	<contour>
	  <point x="157" y="606" type="line"/>
	  <point x="44" y="606" type="line"/>
	  <point x="44" y="0" type="line"/>
	  <point x="83" y="0" type="line"/>
	  <point x="62" y="-22"/>
	  <point x="44" y="-47"/>
	  <point x="44" y="-88" type="curve" smooth="yes"/>
	  <point x="44" y="-149"/>
	  <point x="92" y="-168"/>
	  <point x="132" y="-168" type="curve" smooth="yes"/>
	  <point x="151" y="-168"/>
	  <point x="170" y="-164"/>
	  <point x="190" y="-156" type="curve"/>
	  <point x="190" y="-107" type="line"/>
	  <point x="171" y="-107" type="line" smooth="yes"/>
	  <point x="141" y="-107"/>
	  <point x="131" y="-85"/>
	  <point x="131" y="-62" type="curve" smooth="yes"/>
	  <point x="131" y="-37"/>
	  <point x="148" y="-12"/>
	  <point x="157" y="0" type="curve"/>
	</contour>
  </outline>
</glyph>
<glyph name="Idotaccent" format="1">
  <advance width="202"/>
  <unicode hex="0130"/>
  <outline>
	<contour>
	  <point x="157" y="0" type="line"/>
	  <point x="157" y="606" type="line"/>
	  <point x="44" y="606" type="line"/>
	  <point x="44" y="0" type="line"/>
	</contour>
	<contour>
	  <point x="149" y="679" type="line"/>
	  <point x="149" y="781" type="line"/>
	  <point x="54" y="781" type="line"/>
	  <point x="54" y="679" type="line"/>
	</contour>
  </outline>
</glyph>
<glyph name="IJ" format="1">
  <advance width="605"/>
  <unicode hex="0132"/>
  <outline>
	<contour>
	  <point x="552" y="606" type="line"/>
	  <point x="438" y="606" type="line"/>
	  <point x="438" y="153" type="line" smooth="yes"/>
	  <point x="438" y="110"/>
	  <point x="419" y="87"/>
	  <point x="381" y="87" type="curve" smooth="yes"/>
	  <point x="342" y="87"/>
	  <point x="322" y="110"/>
	  <point x="322" y="153" type="curve" smooth="yes"/>
	  <point x="322" y="191" type="line"/>
	  <point x="210" y="191" type="line"/>
	  <point x="210" y="144" type="line" smooth="yes"/>
	  <point x="210" y="43"/>
	  <point x="271" y="-11"/>
	  <point x="381" y="-11" type="curve" smooth="yes"/>
	  <point x="491" y="-11"/>
	  <point x="552" y="43"/>
	  <point x="552" y="144" type="curve" smooth="yes"/>
	</contour>
	<contour>
	  <point x="157" y="606" type="line"/>
	  <point x="44" y="606" type="line"/>
	  <point x="44" y="0" type="line"/>
	  <point x="157" y="0" type="line"/>
	</contour>
  </outline>
</glyph>
<glyph name="Jcircumflex" format="1">
  <advance width="403"/>
  <unicode hex="0134"/>
  <outline>
	<contour>
	  <point x="350" y="606" type="line"/>
	  <point x="237" y="606" type="line"/>
	  <point x="237" y="153" type="line" smooth="yes"/>
	  <point x="237" y="110"/>
	  <point x="217" y="87"/>
	  <point x="179" y="87" type="curve" smooth="yes"/>
	  <point x="141" y="87"/>
	  <point x="120" y="110"/>
	  <point x="120" y="153" type="curve" smooth="yes"/>
	  <point x="120" y="191" type="line"/>
	  <point x="8" y="191" type="line"/>
	  <point x="8" y="144" type="line" smooth="yes"/>
	  <point x="8" y="43"/>
	  <point x="70" y="-11"/>
	  <point x="179" y="-11" type="curve" smooth="yes"/>
	  <point x="289" y="-11"/>
	  <point x="350" y="43"/>
	  <point x="350" y="144" type="curve" smooth="yes"/>
	</contour>
	<contour>
	  <point x="349" y="781" type="line"/>
	  <point x="262" y="781" type="line"/>
	  <point x="186" y="661" type="line"/>
	  <point x="265" y="661" type="line"/>
	  <point x="305" y="722" type="line"/>
	  <point x="345" y="661" type="line"/>
	  <point x="423" y="661" type="line"/>
	</contour>
  </outline>
</glyph>
<glyph name="kgreenlandic" format="1">
  <advance width="404"/>
  <unicode hex="0138"/>
  <outline>
	<contour>
	  <point x="259" y="276" type="line"/>
	  <point x="397" y="465" type="line"/>
	  <point x="284" y="465" type="line"/>
	  <point x="154" y="280" type="line"/>
	  <point x="154" y="465" type="line"/>
	  <point x="48" y="465" type="line"/>
	  <point x="48" y="0" type="line"/>
	  <point x="154" y="0" type="line"/>
	  <point x="154" y="145" type="line"/>
	  <point x="193" y="193" type="line"/>
	  <point x="286" y="0" type="line"/>
	  <point x="404" y="0" type="line"/>
	</contour>
  </outline>
</glyph>
<glyph name="Lacute" format="1">
  <advance width="443"/>
  <unicode hex="0139"/>
  <outline>
	<contour>
	  <point x="166" y="606" type="line"/>
	  <point x="53" y="606" type="line"/>
	  <point x="53" y="0" type="line"/>
	  <point x="423" y="0" type="line"/>
	  <point x="423" y="106" type="line"/>
	  <point x="166" y="106" type="line"/>
	</contour>
	<contour>
	  <point x="233" y="781" type="line"/>
	  <point x="127" y="781" type="line"/>
	  <point x="51" y="664" type="line"/>
	  <point x="139" y="664" type="line"/>
	  <point x="234" y="778" type="line"/>
	</contour>
  </outline>
</glyph>
<glyph name="Lcaron" format="1">
  <advance width="443"/>
  <unicode hex="013D"/>
  <outline>
	<contour>
	  <point x="166" y="606" type="line"/>
	  <point x="53" y="606" type="line"/>
	  <point x="53" y="0" type="line"/>
	  <point x="423" y="0" type="line"/>
	  <point x="423" y="106" type="line"/>
	  <point x="166" y="106" type="line"/>
	</contour>
	<contour>
	  <point x="423" y="606" type="line"/>
	  <point x="301" y="606" type="line"/>
	  <point x="301" y="485" type="line"/>
	  <point x="349" y="485" type="line"/>
	  <point x="301" y="347" type="line"/>
	  <point x="364" y="347" type="line"/>
	  <point x="423" y="496" type="line"/>
	</contour>
  </outline>
</glyph>
<glyph name="Ldot" format="1">
  <advance width="443"/>
  <unicode hex="013F"/>
  <outline>
	<contour>
	  <point x="166" y="606" type="line"/>
	  <point x="53" y="606" type="line"/>
	  <point x="53" y="0" type="line"/>
	  <point x="423" y="0" type="line"/>
	  <point x="423" y="106" type="line"/>
	  <point x="166" y="106" type="line"/>
	</contour>
	<contour>
	  <point x="371" y="463" type="line"/>
	  <point x="277" y="463" type="line"/>
	  <point x="277" y="362" type="line"/>
	  <point x="371" y="362" type="line"/>
	</contour>
  </outline>
</glyph>
<glyph name="Omacron" format="1">
  <advance width="564"/>
  <unicode hex="014C"/>
  <outline>
	<contour>
	  <point x="126" y="617"/>
	  <point x="30" y="517"/>
	  <point x="30" y="303" type="curve" smooth="yes"/>
	  <point x="30" y="89"/>
	  <point x="126" y="-11"/>
	  <point x="282" y="-11" type="curve" smooth="yes"/>
	  <point x="438" y="-11"/>
	  <point x="534" y="89"/>
	  <point x="534" y="303" type="curve" smooth="yes"/>
	  <point x="534" y="517"/>
	  <point x="438" y="617"/>
	  <point x="282" y="617" type="curve" smooth="yes"/>
	</contour>
	<contour>
	  <point x="372" y="520"/>
	  <point x="417" y="446"/>
	  <point x="417" y="325" type="curve" smooth="yes"/>
	  <point x="417" y="281" type="line" smooth="yes"/>
	  <point x="417" y="160"/>
	  <point x="372" y="87"/>
	  <point x="282" y="87" type="curve" smooth="yes"/>
	  <point x="192" y="87"/>
	  <point x="147" y="160"/>
	  <point x="147" y="281" type="curve" smooth="yes"/>
	  <point x="147" y="325" type="line" smooth="yes"/>
	  <point x="147" y="446"/>
	  <point x="192" y="520"/>
	  <point x="282" y="520" type="curve" smooth="yes"/>
	</contour>
	<contour>
	  <point x="395" y="671" type="line"/>
	  <point x="395" y="748" type="line"/>
	  <point x="170" y="748" type="line"/>
	  <point x="170" y="671" type="line"/>
	</contour>
  </outline>
</glyph>
<glyph name="oe" format="1">
  <advance width="684"/>
  <unicode hex="0153"/>
  <outline>
	<contour>
	  <point x="423" y="476"/>
	  <point x="382" y="457"/>
	  <point x="352" y="417" type="curve"/>
	  <point x="322" y="457"/>
	  <point x="278" y="476"/>
	  <point x="222" y="476" type="curve" smooth="yes"/>
	  <point x="98" y="476"/>
	  <point x="36" y="400"/>
	  <point x="36" y="232" type="curve" smooth="yes"/>
	  <point x="36" y="65"/>
	  <point x="98" y="-11"/>
	  <point x="222" y="-11" type="curve" smooth="yes"/>
	  <point x="278" y="-11"/>
	  <point x="322" y="8"/>
	  <point x="353" y="47" type="curve"/>
	  <point x="383" y="8"/>
	  <point x="425" y="-11"/>
	  <point x="480" y="-11" type="curve" smooth="yes"/>
	  <point x="575" y="-11"/>
	  <point x="644" y="45"/>
	  <point x="644" y="164" type="curve"/>
	  <point x="539" y="164" type="line"/>
	  <point x="539" y="109"/>
	  <point x="516" y="76"/>
	  <point x="480" y="76" type="curve" smooth="yes"/>
	  <point x="428" y="76"/>
	  <point x="409" y="123"/>
	  <point x="408" y="206" type="curve"/>
	  <point x="644" y="206" type="line"/>
	  <point x="644" y="232" type="line" smooth="yes"/>
	  <point x="644" y="400"/>
	  <point x="589" y="476"/>
	  <point x="476" y="476" type="curve" smooth="yes"/>
	</contour>
	<contour>
	  <point x="277" y="386"/>
	  <point x="297" y="339"/>
	  <point x="297" y="249" type="curve" smooth="yes"/>
	  <point x="297" y="216" type="line" smooth="yes"/>
	  <point x="297" y="126"/>
	  <point x="277" y="79"/>
	  <point x="222" y="79" type="curve" smooth="yes"/>
	  <point x="167" y="79"/>
	  <point x="147" y="126"/>
	  <point x="147" y="216" type="curve" smooth="yes"/>
	  <point x="147" y="249" type="line" smooth="yes"/>
	  <point x="147" y="339"/>
	  <point x="167" y="386"/>
	  <point x="222" y="386" type="curve" smooth="yes"/>
	</contour>
	<contour>
	  <point x="515" y="389"/>
	  <point x="533" y="350"/>
	  <point x="533" y="283" type="curve"/>
	  <point x="409" y="283" type="line"/>
	  <point x="413" y="350"/>
	  <point x="431" y="389"/>
	  <point x="476" y="389" type="curve" smooth="yes"/>
	</contour>
	<contour>
	  <point x="342" y="465" type="move" name="top"/>
	</contour>
  </outline>
</glyph>
<glyph name="racute" format="1">
  <advance width="282"/>
  <unicode hex="0155"/>
  <outline>
	<contour>
	  <point x="188" y="476"/>
	  <point x="167" y="436"/>
	  <point x="155" y="397" type="curve"/>
	  <point x="149" y="397" type="line"/>
	  <point x="137" y="465" type="line"/>
	  <point x="49" y="465" type="line"/>
	  <point x="49" y="0" type="line"/>
	  <point x="155" y="0" type="line"/>
	  <point x="155" y="259" type="line" smooth="yes"/>
	  <point x="155" y="341"/>
	  <point x="195" y="366"/>
	  <point x="241" y="366" type="curve" smooth="yes"/>
	  <point x="279" y="366" type="line"/>
	  <point x="279" y="469" type="line"/>
	  <point x="279" y="469"/>
	  <point x="263" y="476"/>
	  <point x="235" y="476" type="curve" smooth="yes"/>
	</contour>
	<contour>
	  <point x="220" y="639" type="line"/>
	  <point x="113" y="639" type="line"/>
	  <point x="37" y="522" type="line"/>
	  <point x="126" y="522" type="line"/>
	  <point x="221" y="636" type="line"/>
	</contour>
  </outline>
</glyph>
<glyph name="tbar" format="1">
  <advance width="241"/>
  <unicode hex="0167"/>
  <outline>
	<contour>
	  <point x="161" y="596" type="line"/>
	  <point x="71" y="596" type="line"/>
	  <point x="55" y="465" type="line"/>
	  <point x="8" y="465" type="line"/>
	  <point x="8" y="376" type="line"/>
	  <point x="55" y="376" type="line"/>
	  <point x="55" y="309" type="line"/>
	  <point x="10" y="309" type="line"/>
	  <point x="10" y="232" type="line"/>
	  <point x="55" y="232" type="line"/>
	  <point x="55" y="114" type="line" smooth="yes"/>
	  <point x="55" y="52"/>
	  <point x="80" y="-11"/>
	  <point x="164" y="-11" type="curve" smooth="yes"/>
	  <point x="185" y="-11"/>
	  <point x="213" y="-5"/>
	  <point x="228" y="0" type="curve"/>
	  <point x="228" y="79" type="line"/>
	  <point x="198" y="79" type="line" smooth="yes"/>
	  <point x="174" y="79"/>
	  <point x="161" y="92"/>
	  <point x="161" y="117" type="curve" smooth="yes"/>
	  <point x="161" y="232" type="line"/>
	  <point x="225" y="232" type="line"/>
	  <point x="225" y="309" type="line"/>
	  <point x="161" y="309" type="line"/>
	  <point x="161" y="376" type="line"/>
	  <point x="228" y="376" type="line"/>
	  <point x="228" y="465" type="line"/>
	  <point x="161" y="465" type="line"/>
	</contour>
  </outline>
</glyph>
<glyph name="Utilde" format="1">
  <advance width="523"/>
  <unicode hex="0168"/>
  <outline>
	<contour>
	  <point x="470" y="606" type="line"/>
	  <point x="357" y="606" type="line"/>
	  <point x="357" y="194" type="line" smooth="yes"/>
	  <point x="357" y="124"/>
	  <point x="322" y="87"/>
	  <point x="262" y="87" type="curve" smooth="yes"/>
	  <point x="202" y="87"/>
	  <point x="167" y="124"/>
	  <point x="167" y="194" type="curve" smooth="yes"/>
	  <point x="167" y="606" type="line"/>
	  <point x="54" y="606" type="line"/>
	  <point x="54" y="190" type="line" smooth="yes"/>
	  <point x="54" y="58"/>
	  <point x="132" y="-11"/>
	  <point x="262" y="-11" type="curve" smooth="yes"/>
	  <point x="392" y="-11"/>
	  <point x="470" y="58"/>
	  <point x="470" y="190" type="curve" smooth="yes"/>
	</contour>
	<contour>
	  <point x="352" y="781" type="line"/>
	  <point x="348" y="756"/>
	  <point x="336" y="748"/>
	  <point x="317" y="748" type="curve" smooth="yes"/>
	  <point x="278" y="748"/>
	  <point x="243" y="781"/>
	  <point x="200" y="781" type="curve" smooth="yes"/>
	  <point x="138" y="781"/>
	  <point x="113" y="721"/>
	  <point x="113" y="673" type="curve"/>
	  <point x="171" y="673" type="line"/>
	  <point x="175" y="697"/>
	  <point x="187" y="705"/>
	  <point x="206" y="705" type="curve" smooth="yes"/>
	  <point x="246" y="705"/>
	  <point x="280" y="673"/>
	  <point x="323" y="673" type="curve" smooth="yes"/>
	  <point x="385" y="673"/>
	  <point x="410" y="732"/>
	  <point x="410" y="781" type="curve"/>
	</contour>
  </outline>
</glyph>
<glyph name="uring" format="1">
  <advance width="443"/>
  <unicode hex="016F"/>
  <outline>
	<contour>
	  <point x="394" y="0" type="line"/>
	  <point x="394" y="465" type="line"/>
	  <point x="288" y="465" type="line"/>
	  <point x="288" y="177" type="line" smooth="yes"/>
	  <point x="288" y="125"/>
	  <point x="257" y="86"/>
	  <point x="216" y="86" type="curve" smooth="yes"/>
	  <point x="176" y="86"/>
	  <point x="155" y="108"/>
	  <point x="155" y="168" type="curve" smooth="yes"/>
	  <point x="155" y="465" type="line"/>
	  <point x="49" y="465" type="line"/>
	  <point x="49" y="139" type="line" smooth="yes"/>
	  <point x="49" y="29"/>
	  <point x="101" y="-11"/>
	  <point x="172" y="-11" type="curve" smooth="yes"/>
	  <point x="228" y="-11"/>
	  <point x="266" y="21"/>
	  <point x="290" y="57" type="curve"/>
	  <point x="295" y="57" type="line"/>
	  <point x="306" y="0" type="line"/>
	</contour>
	<contour>
	  <point x="175" y="666"/>
	  <point x="137" y="628"/>
	  <point x="137" y="581" type="curve" smooth="yes"/>
	  <point x="137" y="533"/>
	  <point x="176" y="496"/>
	  <point x="222" y="496" type="curve" smooth="yes"/>
	  <point x="269" y="496"/>
	  <point x="307" y="534"/>
	  <point x="307" y="581" type="curve" smooth="yes"/>
	  <point x="307" y="627"/>
	  <point x="270" y="666"/>
	  <point x="222" y="666" type="curve" smooth="yes"/>
	</contour>
	<contour>
	  <point x="244" y="621"/>
	  <point x="263" y="604"/>
	  <point x="263" y="581" type="curve" smooth="yes"/>
	  <point x="263" y="558"/>
	  <point x="244" y="540"/>
	  <point x="222" y="540" type="curve" smooth="yes"/>
	  <point x="199" y="540"/>
	  <point x="181" y="558"/>
	  <point x="181" y="581" type="curve" smooth="yes"/>
	  <point x="181" y="604"/>
	  <point x="199" y="621"/>
	  <point x="222" y="621" type="curve" smooth="yes"/>
	</contour>
  </outline>
</glyph>
<glyph name="Uogonek" format="1">
  <advance width="523"/>
  <unicode hex="0172"/>
  <outline>
	<contour>
	  <point x="470" y="606" type="line"/>
	  <point x="357" y="606" type="line"/>
	  <point x="357" y="201" type="line" smooth="yes"/>
	  <point x="357" y="126"/>
	  <point x="322" y="87"/>
	  <point x="262" y="87" type="curve" smooth="yes"/>
	  <point x="202" y="87"/>
	  <point x="167" y="126"/>
	  <point x="167" y="201" type="curve" smooth="yes"/>
	  <point x="167" y="606" type="line"/>
	  <point x="54" y="606" type="line"/>
	  <point x="54" y="197" type="line" smooth="yes"/>
	  <point x="54" y="61"/>
	  <point x="132" y="-11"/>
	  <point x="262" y="-11" type="curve" smooth="yes"/>
	  <point x="280" y="-11"/>
	  <point x="297" y="-11"/>
	  <point x="316" y="-7" type="curve"/>
	  <point x="290" y="10" type="line"/>
	  <point x="266" y="-12"/>
	  <point x="245" y="-40"/>
	  <point x="245" y="-84" type="curve" smooth="yes"/>
	  <point x="245" y="-145"/>
	  <point x="292" y="-164"/>
	  <point x="332" y="-164" type="curve" smooth="yes"/>
	  <point x="352" y="-164"/>
	  <point x="370" y="-159"/>
	  <point x="391" y="-151" type="curve"/>
	  <point x="391" y="-103" type="line"/>
	  <point x="371" y="-103" type="line" smooth="yes"/>
	  <point x="342" y="-103"/>
	  <point x="331" y="-80"/>
	  <point x="331" y="-57" type="curve" smooth="yes"/>
	  <point x="331" y="-33"/>
	  <point x="347" y="-8"/>
	  <point x="358" y="4" type="curve"/>
	  <point x="430" y="32"/>
	  <point x="470" y="97"/>
	  <point x="470" y="197" type="curve" smooth="yes"/>
	</contour>
  </outline>
</glyph>
<glyph name="uogonek" format="1">
  <advance width="443"/>
  <unicode hex="0173"/>
  <outline>
	<contour>
	  <point x="394" y="465" type="line"/>
	  <point x="288" y="465" type="line"/>
	  <point x="288" y="177" type="line" smooth="yes"/>
	  <point x="288" y="125"/>
	  <point x="257" y="86"/>
	  <point x="216" y="86" type="curve" smooth="yes"/>
	  <point x="176" y="86"/>
	  <point x="155" y="108"/>
	  <point x="155" y="168" type="curve" smooth="yes"/>
	  <point x="155" y="465" type="line"/>
	  <point x="49" y="465" type="line"/>
	  <point x="49" y="139" type="line" smooth="yes"/>
	  <point x="49" y="29"/>
	  <point x="101" y="-11"/>
	  <point x="172" y="-11" type="curve" smooth="yes"/>
	  <point x="228" y="-11"/>
	  <point x="266" y="21"/>
	  <point x="290" y="57" type="curve"/>
	  <point x="295" y="57" type="line"/>
	  <point x="306" y="0" type="line"/>
	  <point x="325" y="0" type="line"/>
	  <point x="324" y="4" type="line"/>
	  <point x="301" y="-19"/>
	  <point x="281" y="-44"/>
	  <point x="281" y="-88" type="curve" smooth="yes"/>
	  <point x="281" y="-149"/>
	  <point x="328" y="-168"/>
	  <point x="369" y="-168" type="curve" smooth="yes"/>
	  <point x="388" y="-168"/>
	  <point x="407" y="-164"/>
	  <point x="427" y="-156" type="curve"/>
	  <point x="427" y="-107" type="line"/>
	  <point x="408" y="-107" type="line" smooth="yes"/>
	  <point x="378" y="-107"/>
	  <point x="368" y="-85"/>
	  <point x="368" y="-62" type="curve" smooth="yes"/>
	  <point x="368" y="-37"/>
	  <point x="384" y="-12"/>
	  <point x="394" y="0" type="curve"/>
	</contour>
  </outline>
</glyph>
<glyph name="ycircumflex" format="1">
  <advance width="403"/>
  <unicode hex="0177"/>
  <outline>
	<contour>
	  <point x="321" y="520" type="line"/>
	  <point x="246" y="639" type="line"/>
	  <point x="159" y="639" type="line"/>
	  <point x="83" y="520" type="line"/>
	  <point x="163" y="520" type="line"/>
	  <point x="202" y="581" type="line"/>
	  <point x="241" y="520" type="line"/>
	</contour>
	<contour>
	  <point x="400" y="465" type="line"/>
	  <point x="293" y="465" type="line"/>
	  <point x="236" y="246" type="line"/>
	  <point x="225" y="207"/>
	  <point x="221" y="165"/>
	  <point x="214" y="126" type="curve"/>
	  <point x="210" y="126" type="line"/>
	  <point x="202" y="166"/>
	  <point x="198" y="207"/>
	  <point x="186" y="247" type="curve"/>
	  <point x="116" y="465" type="line"/>
	  <point x="4" y="465" type="line"/>
	  <point x="158" y="0" type="line"/>
	  <point x="146" y="-51"/>
	  <point x="117" y="-72"/>
	  <point x="87" y="-72" type="curve" smooth="yes"/>
	  <point x="39" y="-72" type="line"/>
	  <point x="39" y="-153" type="line"/>
	  <point x="39" y="-154"/>
	  <point x="65" y="-161"/>
	  <point x="108" y="-161" type="curve" smooth="yes"/>
	  <point x="197" y="-161"/>
	  <point x="243" y="-77"/>
	  <point x="272" y="24" type="curve" smooth="yes"/>
	</contour>
  </outline>
</glyph>
<glyph name="zdotaccent" format="1">
  <advance width="362"/>
  <unicode hex="017C"/>
  <outline>
	<contour>
	  <point x="340" y="421" type="line"/>
	  <point x="340" y="465" type="line"/>
	  <point x="27" y="465" type="line"/>
	  <point x="27" y="376" type="line"/>
	  <point x="196" y="376" type="line"/>
	  <point x="16" y="45" type="line"/>
	  <point x="16" y="0" type="line"/>
	  <point x="347" y="0" type="line"/>
	  <point x="347" y="89" type="line"/>
	  <point x="159" y="89" type="line"/>
	</contour>
	<contour>
	  <point x="229" y="537" type="line"/>
	  <point x="229" y="639" type="line"/>
	  <point x="134" y="639" type="line"/>
	  <point x="134" y="537" type="line"/>
	</contour>
  </outline>
</glyph>
<glyph name="Zcaron" format="1">
  <advance width="443"/>
  <unicode hex="017D"/>
  <outline>
	<contour>
	  <point x="418" y="606" type="line"/>
	  <point x="33" y="606" type="line"/>
	  <point x="33" y="506" type="line"/>
	  <point x="263" y="506" type="line"/>
	  <point x="14" y="43" type="line"/>
	  <point x="14" y="0" type="line"/>
	  <point x="424" y="0" type="line"/>
	  <point x="424" y="101" type="line"/>
	  <point x="169" y="101" type="line"/>
	  <point x="418" y="562" type="line"/>
	</contour>
	<contour>
	  <point x="340" y="781" type="line"/>
	  <point x="261" y="781" type="line"/>
	  <point x="222" y="720" type="line"/>
	  <point x="182" y="781" type="line"/>
	  <point x="103" y="781" type="line"/>
	  <point x="179" y="661" type="line"/>
	  <point x="265" y="661" type="line"/>
	</contour>
  </outline>
</glyph>
<glyph name="florin" format="1">
  <advance width="403"/>
  <unicode hex="0192"/>
  <outline>
	<contour>
	  <point x="235" y="646"/>
	  <point x="201" y="583"/>
	  <point x="192" y="522" type="curve" smooth="yes"/>
	  <point x="179" y="431" type="line"/>
	  <point x="115" y="431" type="line"/>
	  <point x="103" y="341" type="line"/>
	  <point x="167" y="341" type="line"/>
	  <point x="114" y="-34" type="line"/>
	  <point x="110" y="-58"/>
	  <point x="95" y="-72"/>
	  <point x="72" y="-72" type="curve" smooth="yes"/>
	  <point x="28" y="-72" type="line"/>
	  <point x="17" y="-150" type="line"/>
	  <point x="34" y="-156"/>
	  <point x="67" y="-161"/>
	  <point x="92" y="-161" type="curve" smooth="yes"/>
	  <point x="177" y="-161"/>
	  <point x="211" y="-98"/>
	  <point x="220" y="-36" type="curve" smooth="yes"/>
	  <point x="273" y="341" type="line"/>
	  <point x="354" y="341" type="line"/>
	  <point x="366" y="431" type="line"/>
	  <point x="286" y="431" type="line"/>
	  <point x="298" y="519" type="line"/>
	  <point x="301" y="544"/>
	  <point x="316" y="557"/>
	  <point x="340" y="557" type="curve" smooth="yes"/>
	  <point x="384" y="557" type="line"/>
	  <point x="395" y="636" type="line"/>
	  <point x="378" y="641"/>
	  <point x="345" y="646"/>
	  <point x="320" y="646" type="curve" smooth="yes"/>
	</contour>
  </outline>
</glyph>
<glyph name="AEacute" format="1">
  <advance width="725"/>
  <unicode hex="01FC"/>
  <outline>
	<contour>
	  <point x="682" y="606" type="line"/>
	  <point x="225" y="606" type="line"/>
	  <point x="-7" y="0" type="line"/>
	  <point x="98" y="0" type="line"/>
	  <point x="142" y="119" type="line"/>
	  <point x="366" y="119" type="line"/>
	  <point x="395" y="0" type="line"/>
	  <point x="687" y="0" type="line"/>
	  <point x="687" y="101" type="line"/>
	  <point x="486" y="101" type="line"/>
	  <point x="447" y="260" type="line"/>
	  <point x="643" y="260" type="line"/>
	  <point x="643" y="361" type="line"/>
	  <point x="423" y="361" type="line"/>
	  <point x="387" y="506" type="line"/>
	  <point x="682" y="506" type="line"/>
	</contour>
	<contour>
	  <point x="280" y="483" type="line"/>
	  <point x="284" y="469"/>
	  <point x="286" y="455"/>
	  <point x="290" y="442" type="curve" smooth="yes"/>
	  <point x="342" y="220" type="line"/>
	  <point x="179" y="220" type="line"/>
	  <point x="261" y="439" type="line" smooth="yes"/>
	  <point x="266" y="453"/>
	  <point x="271" y="469"/>
	  <point x="277" y="483" type="curve"/>
	</contour>
	<contour>
	  <point x="484" y="781" type="line"/>
	  <point x="377" y="781" type="line"/>
	  <point x="301" y="664" type="line"/>
	  <point x="389" y="664" type="line"/>
	  <point x="484" y="778" type="line"/>
	</contour>
  </outline>
</glyph>
<glyph name="circumflex" format="1">
  <advance width="241"/>
  <unicode hex="02C6"/>
  <outline>
	<contour>
	  <point x="238" y="520" type="line"/>
	  <point x="163" y="639" type="line"/>
	  <point x="76" y="639" type="line"/>
	  <point x="0" y="520" type="line"/>
	  <point x="80" y="520" type="line"/>
	  <point x="119" y="581" type="line"/>
	  <point x="158" y="520" type="line"/>
	</contour>
	<contour>
	  <point x="119" y="465" type="move" name="_top"/>
	</contour>
  </outline>
</glyph>
<glyph name="firsttonechinese" format="1">
  <advance width="442"/>
  <unicode hex="02C9"/>
  <outline>
	<contour>
	  <point x="442" y="699" type="line"/>
	  <point x="442" y="760" type="line"/>
	  <point x="0" y="760" type="line"/>
	  <point x="0" y="699" type="line"/>
	</contour>
  </outline>
</glyph>
<glyph name="tilde" format="1">
  <advance width="241"/>
  <unicode hex="02DC"/>
  <outline>
	<contour>
	  <point x="210" y="639" type="line"/>
	  <point x="207" y="614"/>
	  <point x="194" y="606"/>
	  <point x="176" y="606" type="curve" smooth="yes"/>
	  <point x="136" y="606"/>
	  <point x="102" y="639"/>
	  <point x="58" y="639" type="curve" smooth="yes"/>
	  <point x="-4" y="639"/>
	  <point x="-28" y="580"/>
	  <point x="-28" y="531" type="curve"/>
	  <point x="30" y="531" type="line"/>
	  <point x="34" y="555"/>
	  <point x="46" y="564"/>
	  <point x="65" y="564" type="curve" smooth="yes"/>
	  <point x="104" y="564"/>
	  <point x="139" y="531"/>
	  <point x="181" y="531" type="curve" smooth="yes"/>
	  <point x="244" y="531"/>
	  <point x="269" y="591"/>
	  <point x="269" y="639" type="curve"/>
	</contour>
	<contour>
	  <point x="120" y="465" type="move" name="_top"/>
	</contour>
  </outline>
</glyph>
<glyph name="pi" format="1">
  <advance width="555"/>
  <unicode hex="03C0"/>
  <outline>
	<contour>
	  <point x="507" y="376" type="line"/>
	  <point x="514" y="465" type="line"/>
	  <point x="159" y="465" type="line" smooth="yes"/>
	  <point x="83" y="465"/>
	  <point x="41" y="455"/>
	  <point x="18" y="438" type="curve"/>
	  <point x="28" y="364" type="line"/>
	  <point x="49" y="372"/>
	  <point x="69" y="376"/>
	  <point x="124" y="376" type="curve"/>
	  <point x="121" y="270"/>
	  <point x="96" y="88"/>
	  <point x="67" y="0" type="curve"/>
	  <point x="172" y="0" type="line"/>
	  <point x="201" y="73"/>
	  <point x="224" y="270"/>
	  <point x="230" y="376" type="curve"/>
	  <point x="327" y="376" type="line"/>
	  <point x="327" y="130" type="line" smooth="yes"/>
	  <point x="327" y="59"/>
	  <point x="332" y="14"/>
	  <point x="340" y="0" type="curve"/>
	  <point x="445" y="0" type="line"/>
	  <point x="438" y="27"/>
	  <point x="433" y="65"/>
	  <point x="433" y="138" type="curve" smooth="yes"/>
	  <point x="433" y="376" type="line"/>
	</contour>
  </outline>
</glyph>
<glyph name="visarga-deva" format="1">
  <advance width="218"/>
  <unicode hex="0903"/>
  <outline>
	<contour>
	  <point x="60" y="367" type="line"/>
	  <point x="158" y="367" type="line"/>
	  <point x="158" y="465" type="line"/>
	  <point x="60" y="465" type="line"/>
	</contour>
	<contour>
	  <point x="60" y="83" type="line"/>
	  <point x="158" y="83" type="line"/>
	  <point x="158" y="181" type="line"/>
	  <point x="60" y="181" type="line"/>
	</contour>
  </outline>
</glyph>
<glyph name="aShort-deva" format="1">
  <advance width="639"/>
  <unicode hex="0904"/>
  <outline>
	<component base="a-deva"/>
	<component base="eShortMatra-deva" xOffset="645"/>
	<contour>
	  <point x="518" y="606" type="move" name="top"/>
	</contour>
	<contour>
	  <point x="517" y="0" type="move" name="bottom"/>
	</contour>
  </outline>
</glyph>
<glyph name="aa-deva" format="1">
  <advance width="897"/>
  <unicode hex="0906"/>
  <outline>
	<component base="a-deva"/>
	<component base="aaMatra-deva" xOffset="639"/>
	<contour>
	  <point x="772" y="606" type="move" name="top"/>
	</contour>
	<contour>
	  <point x="772" y="0" type="move" name="bottom"/>
	</contour>
  </outline>
</glyph>
<glyph name="u-deva" format="1">
  <advance width="415"/>
  <unicode hex="0909"/>
  <outline>
	<contour>
	  <point x="199" y="513" type="line"/>
	  <point x="239" y="513"/>
	  <point x="260" y="492"/>
	  <point x="260" y="449" type="curve" smooth="yes"/>
	  <point x="260" y="393"/>
	  <point x="234" y="366"/>
	  <point x="195" y="366" type="curve" smooth="yes"/>
	  <point x="164" y="366" type="line"/>
	  <point x="164" y="286" type="line"/>
	  <point x="194" y="286" type="line" smooth="yes"/>
	  <point x="237" y="286"/>
	  <point x="271" y="270"/>
	  <point x="271" y="202" type="curve" smooth="yes"/>
	  <point x="271" y="154"/>
	  <point x="245" y="131"/>
	  <point x="200" y="131" type="curve" smooth="yes"/>
	  <point x="151" y="131"/>
	  <point x="128" y="158"/>
	  <point x="128" y="207" type="curve" smooth="yes"/>
	  <point x="128" y="226" type="line"/>
	  <point x="25" y="226" type="line"/>
	  <point x="23" y="215"/>
	  <point x="22" y="205"/>
	  <point x="22" y="190" type="curve" smooth="yes"/>
	  <point x="22" y="111"/>
	  <point x="94" y="42"/>
	  <point x="202" y="42" type="curve" smooth="yes"/>
	  <point x="307" y="42"/>
	  <point x="377" y="104"/>
	  <point x="377" y="197" type="curve" smooth="yes"/>
	  <point x="377" y="258"/>
	  <point x="341" y="310"/>
	  <point x="287" y="329" type="curve"/>
	  <point x="287" y="332" type="line"/>
	  <point x="334" y="353"/>
	  <point x="366" y="397"/>
	  <point x="366" y="443" type="curve" smooth="yes"/>
	  <point x="366" y="529"/>
	  <point x="299" y="573"/>
	  <point x="199" y="573" type="curve"/>
	</contour>
	<contour>
	  <point x="-10" y="606" type="line"/>
	  <point x="-10" y="513" type="line"/>
	  <point x="425" y="513" type="line"/>
	  <point x="425" y="606" type="line"/>
	</contour>
	<contour>
	  <point x="208" y="606" type="move" name="top"/>
	</contour>
	<contour>
	  <point x="208" y="0" type="move" name="bottom"/>
	</contour>
  </outline>
</glyph>
<glyph name="e-deva" format="1">
  <advance width="516"/>
  <unicode hex="090F"/>
  <outline>
	<contour>
	  <point x="76" y="606" type="line"/>
	  <point x="76" y="287" type="line" smooth="yes"/>
	  <point x="76" y="248"/>
	  <point x="87" y="224"/>
	  <point x="111" y="201" type="curve" smooth="yes"/>
	  <point x="273" y="42" type="line" smooth="yes"/>
	  <point x="291" y="22"/>
	  <point x="298" y="7"/>
	  <point x="298" y="-17" type="curve" smooth="yes"/>
	  <point x="298" y="-26"/>
	  <point x="298" y="-35"/>
	  <point x="296" y="-47" type="curve"/>
	  <point x="385" y="-47" type="line"/>
	  <point x="395" y="-24"/>
	  <point x="401" y="-6"/>
	  <point x="401" y="14" type="curve" smooth="yes"/>
	  <point x="401" y="40"/>
	  <point x="383" y="69"/>
	  <point x="340" y="108" type="curve" smooth="yes"/>
	  <point x="196" y="250" type="line" smooth="yes"/>
	  <point x="185" y="260"/>
	  <point x="182" y="274"/>
	  <point x="182" y="294" type="curve" smooth="yes"/>
	  <point x="182" y="606" type="line"/>
	</contour>
	<contour>
	  <point x="334" y="606" type="line"/>
	  <point x="334" y="384" type="line" smooth="yes"/>
	  <point x="334" y="356"/>
	  <point x="320" y="341"/>
	  <point x="293" y="341" type="curve" smooth="yes"/>
	  <point x="274" y="341" type="line"/>
	  <point x="274" y="259" type="line"/>
	  <point x="288" y="255"/>
	  <point x="312" y="252"/>
	  <point x="332" y="252" type="curve" smooth="yes"/>
	  <point x="417" y="252"/>
	  <point x="440" y="315"/>
	  <point x="440" y="377" type="curve" smooth="yes"/>
	  <point x="440" y="606" type="line"/>
	</contour>
	<contour>
	  <point x="-10" y="606" type="line"/>
	  <point x="-10" y="513" type="line"/>
	  <point x="526" y="513" type="line"/>
	  <point x="526" y="606" type="line"/>
	</contour>
	<contour>
	  <point x="388" y="606" type="move" name="top"/>
	</contour>
	<contour>
	  <point x="258" y="0" type="move" name="bottom"/>
	</contour>
  </outline>
</glyph>
<glyph name="gha-deva" format="1">
  <advance width="558"/>
  <unicode hex="0918"/>
  <outline>
	<contour>
	  <point x="-10" y="606" type="line"/>
	  <point x="-10" y="513" type="line"/>
	  <point x="398" y="513" type="line"/>
	  <point x="398" y="606" type="line"/>
	</contour>
	<contour>
	  <point x="113" y="570"/>
	  <point x="60" y="528"/>
	  <point x="60" y="463" type="curve" smooth="yes"/>
	  <point x="60" y="410"/>
	  <point x="97" y="384"/>
	  <point x="137" y="371" type="curve"/>
	  <point x="91" y="355"/>
	  <point x="60" y="316"/>
	  <point x="60" y="260" type="curve" smooth="yes"/>
	  <point x="60" y="169"/>
	  <point x="142" y="103"/>
	  <point x="260" y="103" type="curve" smooth="yes"/>
	  <point x="368" y="103"/>
	  <point x="424" y="161"/>
	  <point x="424" y="252" type="curve" smooth="yes"/>
	  <point x="424" y="320" type="line"/>
	  <point x="376" y="320" type="line"/>
	  <point x="376" y="300" type="line" smooth="yes"/>
	  <point x="376" y="231"/>
	  <point x="345" y="190"/>
	  <point x="279" y="190" type="curve" smooth="yes"/>
	  <point x="215" y="190"/>
	  <point x="171" y="221"/>
	  <point x="171" y="271" type="curve" smooth="yes"/>
	  <point x="171" y="309"/>
	  <point x="197" y="323"/>
	  <point x="229" y="323" type="curve" smooth="yes"/>
	  <point x="287" y="323" type="line"/>
	  <point x="287" y="410" type="line"/>
	  <point x="228" y="410" type="line" smooth="yes"/>
	  <point x="195" y="410"/>
	  <point x="171" y="431"/>
	  <point x="171" y="468" type="curve" smooth="yes"/>
	  <point x="171" y="487"/>
	  <point x="177" y="513"/>
	  <point x="204" y="513" type="curve"/>
	  <point x="202" y="570" type="line"/>
	</contour>
	<component base="aaMatra-deva" xOffset="300"/>
	<contour>
	  <point x="429" y="606" type="move" name="top"/>
	</contour>
	<contour>
	  <point x="429" y="0" type="move" name="bottom"/>
	</contour>
  </outline>
</glyph>
<glyph name="nga-deva" format="1">
  <advance width="533"/>
  <unicode hex="0919"/>
  <outline>
	<contour>
	  <point x="392" y="513" type="line"/>
	  <point x="543" y="513" type="line"/>
	  <point x="543" y="606" type="line"/>
	  <point x="392" y="606" type="line"/>
	</contour>
	<component base="dda-deva"/>
	<component base="anusvara-deva" xOffset="585" yOffset="-384"/>
	<contour>
	  <point x="329" y="606" type="move" name="top"/>
	</contour>
	<contour>
	  <point x="243" y="0" type="move" name="bottom"/>
	</contour>
  </outline>
</glyph>
<glyph name="ca-deva" format="1">
  <advance width="514"/>
  <unicode hex="091A"/>
  <outline>
	<contour>
	  <point x="273" y="428" type="line"/>
	  <point x="4" y="428" type="line"/>
	  <point x="4" y="334" type="line"/>
	  <point x="273" y="334" type="line"/>
	</contour>
	<contour>
	  <point x="350" y="606" type="line"/>
	  <point x="-10" y="606" type="line"/>
	  <point x="-10" y="513" type="line"/>
	  <point x="350" y="513" type="line"/>
	</contour>
	<contour>
	  <point x="229" y="395" type="line"/>
	  <point x="139" y="395"/>
	  <point x="80" y="351"/>
	  <point x="80" y="245" type="curve" smooth="yes"/>
	  <point x="80" y="127"/>
	  <point x="139" y="73"/>
	  <point x="229" y="73" type="curve" smooth="yes"/>
	  <point x="273" y="73"/>
	  <point x="308" y="88"/>
	  <point x="328" y="101" type="curve"/>
	  <point x="332" y="101" type="line"/>
	  <point x="332" y="88" type="line"/>
	  <point x="438" y="88" type="line"/>
	  <point x="438" y="261" type="line"/>
	  <point x="332" y="261" type="line"/>
	  <point x="332" y="248" type="line" smooth="yes"/>
	  <point x="332" y="198"/>
	  <point x="313" y="170"/>
	  <point x="262" y="170" type="curve" smooth="yes"/>
	  <point x="210" y="170"/>
	  <point x="191" y="198"/>
	  <point x="191" y="248" type="curve" smooth="yes"/>
	  <point x="191" y="267" type="line" smooth="yes"/>
	  <point x="191" y="310"/>
	  <point x="210" y="334"/>
	  <point x="262" y="334" type="curve"/>
	</contour>
	<component base="aaMatra-deva" xOffset="256"/>
	<contour>
	  <point x="385" y="606" type="move" name="top"/>
	</contour>
	<contour>
	  <point x="385" y="0" type="move" name="bottom"/>
	</contour>
  </outline>
</glyph>
<glyph name="ja-deva" format="1">
  <advance width="603"/>
  <unicode hex="091C"/>
  <outline>
	<contour>
	  <point x="242" y="406" type="line"/>
	  <point x="242" y="312" type="line"/>
	  <point x="443" y="312" type="line"/>
	  <point x="443" y="406" type="line"/>
	</contour>
	<contour>
	  <point x="348" y="406" type="line"/>
	  <point x="242" y="406" type="line"/>
	  <point x="242" y="219" type="line" smooth="yes"/>
	  <point x="242" y="185"/>
	  <point x="218" y="163"/>
	  <point x="190" y="163" type="curve" smooth="yes"/>
	  <point x="162" y="163"/>
	  <point x="139" y="185"/>
	  <point x="139" y="219" type="curve" smooth="yes"/>
	  <point x="139" y="406" type="line"/>
	  <point x="33" y="406" type="line"/>
	  <point x="33" y="216" type="line" smooth="yes"/>
	  <point x="33" y="124"/>
	  <point x="96" y="73"/>
	  <point x="190" y="73" type="curve" smooth="yes"/>
	  <point x="284" y="73"/>
	  <point x="348" y="124"/>
	  <point x="348" y="216" type="curve" smooth="yes"/>
	</contour>
	<contour>
	  <point x="-10" y="606" type="line"/>
	  <point x="-10" y="513" type="line"/>
	  <point x="439" y="513" type="line"/>
	  <point x="439" y="606" type="line"/>
	</contour>
	<component base="aaMatra-deva" xOffset="345"/>
	<contour>
	  <point x="150" y="77" type="move" name="nukta"/>
	</contour>
	<contour>
	  <point x="474" y="0" type="move" name="bottom"/>
	</contour>
	<contour>
	  <point x="474" y="606" type="move" name="top"/>
	</contour>
  </outline>
</glyph>
<glyph name="dda-deva" format="1">
  <advance width="456"/>
  <unicode hex="0921"/>
  <outline>
	<contour>
	  <point x="231" y="447" type="line" smooth="yes"/>
	  <point x="133" y="447"/>
	  <point x="60" y="413"/>
	  <point x="60" y="316" type="curve" smooth="yes"/>
	  <point x="60" y="219"/>
	  <point x="133" y="185"/>
	  <point x="231" y="185" type="curve" smooth="yes"/>
	  <point x="241" y="185" type="line" smooth="yes"/>
	  <point x="276" y="185"/>
	  <point x="314" y="180"/>
	  <point x="314" y="133" type="curve" smooth="yes"/>
	  <point x="314" y="94"/>
	  <point x="290" y="76"/>
	  <point x="242" y="76" type="curve" smooth="yes"/>
	  <point x="188" y="76"/>
	  <point x="154" y="98"/>
	  <point x="154" y="141" type="curve" smooth="yes"/>
	  <point x="154" y="148" type="line"/>
	  <point x="46" y="148" type="line"/>
	  <point x="45" y="141"/>
	  <point x="45" y="138"/>
	  <point x="45" y="133" type="curve" smooth="yes"/>
	  <point x="45" y="49"/>
	  <point x="110" y="-11"/>
	  <point x="237" y="-11" type="curve" smooth="yes"/>
	  <point x="339" y="-11"/>
	  <point x="422" y="28"/>
	  <point x="422" y="143" type="curve" smooth="yes"/>
	  <point x="422" y="249"/>
	  <point x="352" y="278"/>
	  <point x="262" y="278" type="curve" smooth="yes"/>
	  <point x="228" y="278" type="line" smooth="yes"/>
	  <point x="189" y="278"/>
	  <point x="168" y="289"/>
	  <point x="168" y="316" type="curve" smooth="yes"/>
	  <point x="168" y="343"/>
	  <point x="189" y="354"/>
	  <point x="228" y="354" type="curve" smooth="yes"/>
	  <point x="323" y="354" type="line"/>
	  <point x="323" y="447" type="line"/>
	</contour>
	<contour>
	  <point x="-10" y="606" type="line"/>
	  <point x="-10" y="513" type="line"/>
	  <point x="466" y="513" type="line"/>
	  <point x="466" y="606" type="line"/>
	</contour>
	<contour>
	  <point x="276" y="606" type="line"/>
	  <point x="276" y="354" type="line"/>
	  <point x="382" y="354" type="line"/>
	  <point x="382" y="606" type="line"/>
	</contour>
	<contour>
	  <point x="228" y="14" type="move" name="nukta"/>
	</contour>
	<contour>
	  <point x="277" y="0" type="move" name="bottom"/>
	</contour>
	<contour>
	  <point x="329" y="606" type="move" name="top"/>
	</contour>
  </outline>
</glyph>
<glyph name="nna-deva" format="1">
  <advance width="695"/>
  <unicode hex="0923"/>
  <outline>
	<contour>
	  <point x="526" y="606" type="line"/>
	  <point x="-10" y="606" type="line"/>
	  <point x="-10" y="513" type="line"/>
	  <point x="526" y="513" type="line"/>
	</contour>
	<contour>
	  <point x="392" y="606" type="line"/>
	  <point x="286" y="606" type="line"/>
	  <point x="286" y="273" type="line" smooth="yes"/>
	  <point x="286" y="233"/>
	  <point x="258" y="207"/>
	  <point x="219" y="207" type="curve" smooth="yes"/>
	  <point x="180" y="207"/>
	  <point x="153" y="233"/>
	  <point x="153" y="273" type="curve" smooth="yes"/>
	  <point x="153" y="606" type="line"/>
	  <point x="47" y="606" type="line"/>
	  <point x="47" y="270" type="line" smooth="yes"/>
	  <point x="47" y="172"/>
	  <point x="114" y="117"/>
	  <point x="219" y="117" type="curve" smooth="yes"/>
	  <point x="324" y="117"/>
	  <point x="392" y="172"/>
	  <point x="392" y="270" type="curve" smooth="yes"/>
	</contour>
	<component base="aaMatra-deva" xOffset="437"/>
	<contour>
	  <point x="566" y="606" type="move" name="top"/>
	</contour>
	<contour>
	  <point x="566" y="0" type="move" name="bottom"/>
	</contour>
  </outline>
</glyph>
<glyph name="ta-deva" format="1">
  <advance width="485"/>
  <unicode hex="0924"/>
  <outline>
	<contour>
	  <point x="341" y="410" type="line"/>
	  <point x="190" y="410" type="line" smooth="yes"/>
	  <point x="69" y="410"/>
	  <point x="23" y="336"/>
	  <point x="23" y="255" type="curve" smooth="yes"/>
	  <point x="23" y="217"/>
	  <point x="26" y="149"/>
	  <point x="100" y="0" type="curve"/>
	  <point x="215" y="0" type="line"/>
	  <point x="135" y="146"/>
	  <point x="132" y="217"/>
	  <point x="132" y="248" type="curve" smooth="yes"/>
	  <point x="132" y="290"/>
	  <point x="146" y="316"/>
	  <point x="191" y="316" type="curve" smooth="yes"/>
	  <point x="341" y="316" type="line"/>
	</contour>
	<contour>
	  <point x="325" y="606" type="line"/>
	  <point x="-10" y="606" type="line"/>
	  <point x="-10" y="513" type="line"/>
	  <point x="325" y="513" type="line"/>
	</contour>
	<component base="aaMatra-deva" xOffset="236"/>
	<contour>
	  <point x="365" y="606" type="move" name="top"/>
	</contour>
	<contour>
	  <point x="365" y="0" type="move" name="bottom"/>
	</contour>
  </outline>
</glyph>
<glyph name="dha-deva" format="1">
  <advance width="623"/>
  <unicode hex="0927"/>
  <outline>
	<contour>
	  <point x="113" y="617"/>
	  <point x="60" y="567"/>
	  <point x="60" y="490" type="curve" smooth="yes"/>
	  <point x="60" y="427"/>
	  <point x="97" y="396"/>
	  <point x="137" y="380" type="curve"/>
	  <point x="91" y="363"/>
	  <point x="60" y="323"/>
	  <point x="60" y="265" type="curve" smooth="yes"/>
	  <point x="60" y="171"/>
	  <point x="143" y="103"/>
	  <point x="287" y="103" type="curve" smooth="yes"/>
	  <point x="420" y="103"/>
	  <point x="489" y="161"/>
	  <point x="489" y="252" type="curve" smooth="yes"/>
	  <point x="489" y="320" type="line"/>
	  <point x="441" y="320" type="line"/>
	  <point x="441" y="300" type="line" smooth="yes"/>
	  <point x="441" y="231"/>
	  <point x="396" y="190"/>
	  <point x="301" y="190" type="curve" smooth="yes"/>
	  <point x="215" y="190"/>
	  <point x="171" y="223"/>
	  <point x="171" y="276" type="curve" smooth="yes"/>
	  <point x="171" y="317"/>
	  <point x="197" y="332"/>
	  <point x="229" y="332" type="curve" smooth="yes"/>
	  <point x="287" y="332" type="line"/>
	  <point x="287" y="419" type="line"/>
	  <point x="228" y="419" type="line" smooth="yes"/>
	  <point x="195" y="419"/>
	  <point x="171" y="442"/>
	  <point x="171" y="481" type="curve" smooth="yes"/>
	  <point x="171" y="502"/>
	  <point x="177" y="530"/>
	  <point x="204" y="530" type="curve" smooth="yes"/>
	  <point x="225" y="530"/>
	  <point x="232" y="515"/>
	  <point x="232" y="499" type="curve" smooth="yes"/>
	  <point x="232" y="473" type="line"/>
	  <point x="332" y="473" type="line"/>
	  <point x="333" y="478"/>
	  <point x="336" y="489"/>
	  <point x="336" y="505" type="curve" smooth="yes"/>
	  <point x="336" y="570"/>
	  <point x="289" y="617"/>
	  <point x="202" y="617" type="curve" smooth="yes"/>
	</contour>
	<contour>
	  <point x="441" y="606" type="line"/>
	  <point x="441" y="0" type="line"/>
	  <point x="547" y="0" type="line"/>
	  <point x="547" y="606" type="line"/>
	</contour>
	<contour>
	  <point x="366" y="606" type="line"/>
	  <point x="366" y="513" type="line"/>
	  <point x="633" y="513" type="line"/>
	  <point x="633" y="606" type="line"/>
	</contour>
	<contour>
	  <point x="494" y="606" type="move" name="top"/>
	</contour>
	<contour>
	  <point x="494" y="0" type="move" name="bottom"/>
	</contour>
  </outline>
</glyph>
<glyph name="pa-deva" format="1">
  <advance width="472"/>
  <unicode hex="092A"/>
  <outline>
	<contour>
	  <point x="156" y="606" type="line"/>
	  <point x="50" y="606" type="line"/>
	  <point x="50" y="270" type="line" smooth="yes"/>
	  <point x="50" y="172"/>
	  <point x="108" y="117"/>
	  <point x="198" y="117" type="curve" smooth="yes"/>
	  <point x="292" y="117"/>
	  <point x="352" y="176"/>
	  <point x="352" y="278" type="curve" smooth="yes"/>
	  <point x="352" y="301" type="line"/>
	  <point x="290" y="301" type="line"/>
	  <point x="290" y="273" type="line" smooth="yes"/>
	  <point x="290" y="233"/>
	  <point x="262" y="207"/>
	  <point x="224" y="207" type="curve" smooth="yes"/>
	  <point x="184" y="207"/>
	  <point x="156" y="236"/>
	  <point x="156" y="282" type="curve" smooth="yes"/>
	</contour>
	<contour>
	  <point x="308" y="606" type="line"/>
	  <point x="-10" y="606" type="line"/>
	  <point x="-10" y="513" type="line"/>
	  <point x="308" y="513" type="line"/>
	</contour>
	<component base="aaMatra-deva" xOffset="214"/>
	<contour>
	  <point x="343" y="606" type="move" name="top"/>
	</contour>
	<contour>
	  <point x="343" y="0" type="move" name="bottom"/>
	</contour>
  </outline>
</glyph>
<glyph name="rra-deva" format="1">
  <advance width="364"/>
  <unicode hex="0931"/>
  <outline>
	<component base="ra-deva"/>
	<component base="nukta-deva" xOffset="191" yOffset="134"/>
	<contour>
	  <point x="240" y="606" type="move" name="top"/>
	</contour>
	<contour>
	  <point x="240" y="0" type="move" name="bottom"/>
	</contour>
  </outline>
</glyph>
<glyph name="la-deva" format="1">
  <advance width="646"/>
  <unicode hex="0932"/>
  <outline>
	<contour>
	  <point x="356" y="445"/>
	  <point x="319" y="407"/>
	  <point x="304" y="355" type="curve"/>
	  <point x="301" y="355" type="line"/>
	  <point x="285" y="407"/>
	  <point x="244" y="445"/>
	  <point x="177" y="445" type="curve" smooth="yes"/>
	  <point x="87" y="445"/>
	  <point x="31" y="357"/>
	  <point x="31" y="239" type="curve" smooth="yes"/>
	  <point x="31" y="83"/>
	  <point x="106" y="0"/>
	  <point x="246" y="0" type="curve" smooth="yes"/>
	  <point x="261" y="0"/>
	  <point x="276" y="1"/>
	  <point x="290" y="4" type="curve"/>
	  <point x="290" y="89" type="line"/>
	  <point x="247" y="89" type="line" smooth="yes"/>
	  <point x="178" y="89"/>
	  <point x="141" y="136"/>
	  <point x="141" y="229" type="curve" smooth="yes"/>
	  <point x="141" y="304"/>
	  <point x="158" y="356"/>
	  <point x="193" y="356" type="curve" smooth="yes"/>
	  <point x="236" y="356"/>
	  <point x="247" y="312"/>
	  <point x="247" y="262" type="curve" smooth="yes"/>
	  <point x="247" y="192" type="line"/>
	  <point x="358" y="192" type="line"/>
	  <point x="358" y="262" type="line" smooth="yes"/>
	  <point x="358" y="312"/>
	  <point x="369" y="356"/>
	  <point x="412" y="356" type="curve" smooth="yes"/>
	  <point x="447" y="356"/>
	  <point x="464" y="322"/>
	  <point x="464" y="268" type="curve"/>
	  <point x="544" y="270" type="line"/>
	  <point x="544" y="372"/>
	  <point x="496" y="445"/>
	  <point x="418" y="445" type="curve" smooth="yes"/>
	</contour>
	<contour>
	  <point x="-10" y="606" type="line"/>
	  <point x="-10" y="513" type="line"/>
	  <point x="477" y="513" type="line"/>
	  <point x="477" y="606" type="line"/>
	</contour>
	<component base="aaMatra-deva" xOffset="388"/>
	<contour>
	  <point x="517" y="606" type="move" name="top"/>
	</contour>
	<contour>
	  <point x="517" y="0" type="move" name="bottom"/>
	</contour>
  </outline>
</glyph>
<glyph name="llla-deva" format="1">
  <advance width="703"/>
  <unicode hex="0934"/>
  <outline>
	<component base="lla-deva"/>
	<component base="nukta-deva" xOffset="483" yOffset="135"/>
	<contour>
	  <point x="506" y="606" type="move" name="top"/>
	</contour>
	<contour>
	  <point x="364" y="0" type="move" name="bottom"/>
	</contour>
  </outline>
</glyph>
<glyph name="va-deva" format="1">
  <advance width="466"/>
  <unicode hex="0935"/>
  <outline>
	<contour>
	  <point x="264" y="364"/>
	  <point x="284" y="335"/>
	  <point x="284" y="284" type="curve" smooth="yes"/>
	  <point x="284" y="264" type="line" smooth="yes"/>
	  <point x="284" y="214"/>
	  <point x="264" y="186"/>
	  <point x="213" y="186" type="curve" smooth="yes"/>
	  <point x="162" y="186"/>
	  <point x="142" y="214"/>
	  <point x="142" y="264" type="curve" smooth="yes"/>
	  <point x="142" y="286" type="line" smooth="yes"/>
	  <point x="142" y="336"/>
	  <point x="162" y="364"/>
	  <point x="213" y="364" type="curve" smooth="yes"/>
	</contour>
	<contour>
	  <point x="284" y="606" type="line"/>
	  <point x="-10" y="606" type="line"/>
	  <point x="-10" y="513" type="line"/>
	  <point x="284" y="513" type="line"/>
	</contour>
	<contour>
	  <point x="90" y="461"/>
	  <point x="32" y="406"/>
	  <point x="32" y="276" type="curve" smooth="yes"/>
	  <point x="32" y="147"/>
	  <point x="90" y="89"/>
	  <point x="180" y="89" type="curve" smooth="yes"/>
	  <point x="225" y="89"/>
	  <point x="259" y="103"/>
	  <point x="279" y="117" type="curve"/>
	  <point x="284" y="117" type="line"/>
	  <point x="284" y="103" type="line"/>
	  <point x="390" y="103" type="line"/>
	  <point x="390" y="445" type="line"/>
	  <point x="284" y="445" type="line"/>
	  <point x="284" y="433" type="line"/>
	  <point x="279" y="433" type="line"/>
	  <point x="259" y="447"/>
	  <point x="225" y="461"/>
	  <point x="180" y="461" type="curve" smooth="yes"/>
	</contour>
	<component base="aaMatra-deva" xOffset="208"/>
	<contour>
	  <point x="337" y="606" type="move" name="top"/>
	</contour>
	<contour>
	  <point x="337" y="0" type="move" name="bottom"/>
	</contour>
  </outline>
</glyph>
<glyph name="ha-deva" format="1">
  <advance width="441"/>
  <unicode hex="0939"/>
  <outline>
	<contour>
	  <point x="191" y="447" type="line" smooth="yes"/>
	  <point x="105" y="447"/>
	  <point x="40" y="414"/>
	  <point x="40" y="329" type="curve" smooth="yes"/>
	  <point x="40" y="227"/>
	  <point x="133" y="216"/>
	  <point x="201" y="213" type="curve"/>
	  <point x="221" y="288" type="line"/>
	  <point x="191" y="288"/>
	  <point x="148" y="289"/>
	  <point x="148" y="321" type="curve" smooth="yes"/>
	  <point x="148" y="343"/>
	  <point x="168" y="354"/>
	  <point x="188" y="354" type="curve" smooth="yes"/>
	  <point x="308" y="354" type="line"/>
	  <point x="308" y="447" type="line"/>
	</contour>
	<contour>
	  <point x="246" y="606" type="line"/>
	  <point x="246" y="354" type="line"/>
	  <point x="367" y="354" type="line"/>
	  <point x="367" y="606" type="line"/>
	</contour>
	<contour>
	  <point x="-10" y="606" type="line"/>
	  <point x="-10" y="513" type="line"/>
	  <point x="451" y="513" type="line"/>
	  <point x="451" y="606" type="line"/>
	</contour>
	<contour>
	  <point x="118" y="288"/>
	  <point x="44" y="229"/>
	  <point x="44" y="134" type="curve" smooth="yes"/>
	  <point x="44" y="27"/>
	  <point x="139" y="-30"/>
	  <point x="291" y="-30" type="curve" smooth="yes"/>
	  <point x="320" y="-30"/>
	  <point x="343" y="-27"/>
	  <point x="364" y="-21" type="curve"/>
	  <point x="364" y="60" type="line"/>
	  <point x="320" y="60" type="line" smooth="yes"/>
	  <point x="203" y="60"/>
	  <point x="155" y="83"/>
	  <point x="155" y="139" type="curve" smooth="yes"/>
	  <point x="155" y="179"/>
	  <point x="179" y="199"/>
	  <point x="222" y="199" type="curve" smooth="yes"/>
	  <point x="263" y="199"/>
	  <point x="280" y="181"/>
	  <point x="280" y="152" type="curve" smooth="yes"/>
	  <point x="280" y="128" type="line"/>
	  <point x="389" y="128" type="line"/>
	  <point x="390" y="134"/>
	  <point x="391" y="144"/>
	  <point x="391" y="154" type="curve" smooth="yes"/>
	  <point x="391" y="231"/>
	  <point x="333" y="288"/>
	  <point x="226" y="288" type="curve" smooth="yes"/>
	</contour>
	<contour>
	  <point x="314" y="606" type="move" name="top"/>
	</contour>
	<contour>
	  <point x="253" y="-30" type="move" name="bottom"/>
	</contour>
  </outline>
</glyph>
<glyph name="avagraha-deva" format="1">
  <advance width="400"/>
  <unicode hex="093D"/>
  <outline>
	<contour>
	  <point x="389" y="513" type="line"/>
	  <point x="389" y="606" type="line"/>
	  <point x="198" y="606" type="line" smooth="yes"/>
	  <point x="100" y="606"/>
	  <point x="27" y="560"/>
	  <point x="27" y="464" type="curve" smooth="yes"/>
	  <point x="27" y="373"/>
	  <point x="93" y="325"/>
	  <point x="158" y="278" type="curve" smooth="yes"/>
	  <point x="211" y="239"/>
	  <point x="261" y="203"/>
	  <point x="261" y="145" type="curve" smooth="yes"/>
	  <point x="261" y="98"/>
	  <point x="228" y="76"/>
	  <point x="196" y="76" type="curve" smooth="yes"/>
	  <point x="167" y="76"/>
	  <point x="131" y="93"/>
	  <point x="131" y="141" type="curve" smooth="yes"/>
	  <point x="131" y="148" type="line"/>
	  <point x="23" y="148" type="line" smooth="yes"/>
	  <point x="23" y="148"/>
	  <point x="22" y="144"/>
	  <point x="22" y="133" type="curve" smooth="yes"/>
	  <point x="22" y="49"/>
	  <point x="85" y="-11"/>
	  <point x="194" y="-11" type="curve" smooth="yes"/>
	  <point x="292" y="-11"/>
	  <point x="369" y="37"/>
	  <point x="369" y="143" type="curve" smooth="yes"/>
	  <point x="369" y="249"/>
	  <point x="293" y="302"/>
	  <point x="228" y="348" type="curve" smooth="yes"/>
	  <point x="179" y="383"/>
	  <point x="135" y="414"/>
	  <point x="135" y="460" type="curve" smooth="yes"/>
	  <point x="135" y="499"/>
	  <point x="166" y="513"/>
	  <point x="195" y="513" type="curve" smooth="yes"/>
	</contour>
  </outline>
</glyph>
<glyph name="aaMatra-deva" format="1">
  <advance width="258"/>
  <unicode hex="093E"/>
  <outline>
	<contour>
	  <point x="76" y="606" type="line"/>
	  <point x="76" y="0" type="line"/>
	  <point x="182" y="0" type="line"/>
	  <point x="182" y="606" type="line"/>
	</contour>
	<contour>
	  <point x="-10" y="606" type="line"/>
	  <point x="-10" y="513" type="line"/>
	  <point x="268" y="513" type="line"/>
	  <point x="268" y="606" type="line"/>
	</contour>
	<contour>
	  <point x="129" y="606" type="move" name="top"/>
	</contour>
	<contour>
	  <point x="129" y="0" type="move" name="bottom"/>
	</contour>
  </outline>
</glyph>
<glyph name="iMatra-deva" format="1">
  <advance width="258"/>
  <unicode hex="093F"/>
  <outline>
	<contour>
	  <point x="116" y="857"/>
	  <point x="76" y="721"/>
	  <point x="76" y="660" type="curve" smooth="yes"/>
	  <point x="76" y="485" type="line"/>
	  <point x="182" y="485" type="line"/>
	  <point x="182" y="643" type="line" smooth="yes"/>
	  <point x="182" y="710"/>
	  <point x="204" y="764"/>
	  <point x="319" y="764" type="curve" smooth="yes"/>
	  <point x="402" y="764"/>
	  <point x="502" y="736"/>
	  <point x="639" y="673" type="curve"/>
	  <point x="639" y="764" type="line"/>
	  <point x="505" y="833"/>
	  <point x="388" y="857"/>
	  <point x="308" y="857" type="curve" smooth="yes"/>
	</contour>
	<component base="aaMatra-deva"/>
	<contour>
	  <point x="639" y="465" type="move" name="imatra"/>
	</contour>
	<contour>
	  <point x="125" y="0" type="move" name="bottom"/>
	</contour>
	<contour>
	  <point x="639" y="673" type="move" name="post"/>
	</contour>
  </outline>
</glyph>
<glyph name="iiMatra-deva" format="1">
  <advance width="258"/>
  <unicode hex="0940"/>
  <outline>
	<contour>
	  <point x="76" y="465" type="line"/>
	  <point x="182" y="465" type="line"/>
	  <point x="182" y="677" type="line" smooth="yes"/>
	  <point x="182" y="772"/>
	  <point x="122" y="827"/>
	  <point x="-6" y="827" type="curve" smooth="yes"/>
	  <point x="-107" y="827"/>
	  <point x="-172" y="774"/>
	  <point x="-172" y="693" type="curve" smooth="yes"/>
	  <point x="-172" y="685"/>
	  <point x="-172" y="678"/>
	  <point x="-171" y="673" type="curve"/>
	  <point x="-68" y="673" type="line"/>
	  <point x="-68" y="687" type="line" smooth="yes"/>
	  <point x="-68" y="712"/>
	  <point x="-53" y="741"/>
	  <point x="-1" y="741" type="curve" smooth="yes"/>
	  <point x="63" y="741"/>
	  <point x="76" y="710"/>
	  <point x="76" y="671" type="curve" smooth="yes"/>
	</contour>
	<component base="aaMatra-deva"/>
	<contour>
	  <point x="-132" y="465" type="move" name="iimatra"/>
	</contour>
	<contour>
	  <point x="125" y="0" type="move" name="bottom"/>
	</contour>
	<contour>
	  <point x="268" y="606" type="move" name="top"/>
	</contour>
  </outline>
</glyph>
<glyph name="rVocalicMatra-deva" format="1">
  <advance width="0"/>
  <unicode hex="0943"/>
  <outline>
	<contour>
	  <point x="-182" y="92"/>
	  <point x="-256" y="45"/>
	  <point x="-256" y="-42" type="curve" smooth="yes"/>
	  <point x="-256" y="-129"/>
	  <point x="-182" y="-176"/>
	  <point x="-104" y="-176" type="curve" smooth="yes"/>
	  <point x="-77" y="-176"/>
	  <point x="-56" y="-171"/>
	  <point x="-32" y="-161" type="curve"/>
	  <point x="-32" y="-70" type="line"/>
	  <point x="-48" y="-77"/>
	  <point x="-72" y="-84"/>
	  <point x="-96" y="-84" type="curve" smooth="yes"/>
	  <point x="-129" y="-84"/>
	  <point x="-150" y="-70"/>
	  <point x="-150" y="-42" type="curve" smooth="yes"/>
	  <point x="-150" y="-14"/>
	  <point x="-129" y="0"/>
	  <point x="-96" y="0" type="curve"/>
	  <point x="-76" y="0" type="line"/>
	  <point x="-76" y="90" type="line"/>
	  <point x="-85" y="91"/>
	  <point x="-94" y="92"/>
	  <point x="-104" y="92" type="curve" smooth="yes"/>
	</contour>
	<contour>
	  <point x="-129" y="0" type="move" name="_bottom"/>
	</contour>
  </outline>
</glyph>
<glyph name="eCandraMatra-deva" format="1">
  <advance width="0"/>
  <unicode hex="0945"/>
  <outline>
	<contour>
	  <point x="-60" y="793" type="line"/>
	  <point x="-60" y="735"/>
	  <point x="-86" y="710"/>
	  <point x="-128" y="710" type="curve" smooth="yes"/>
	  <point x="-167" y="710"/>
	  <point x="-195" y="735"/>
	  <point x="-195" y="793" type="curve"/>
	  <point x="-287" y="793" type="line"/>
	  <point x="-287" y="699"/>
	  <point x="-226" y="634"/>
	  <point x="-128" y="634" type="curve" smooth="yes"/>
	  <point x="-28" y="634"/>
	  <point x="33" y="699"/>
	  <point x="33" y="793" type="curve"/>
	</contour>
	<contour>
	  <point x="-128" y="716" type="move" name="anusvara"/>
	</contour>
	<contour>
	  <point x="-127" y="606" type="move" name="_top"/>
	</contour>
  </outline>
</glyph>
<glyph name="eMatra-deva" format="1">
  <advance width="0"/>
  <unicode hex="0947"/>
  <outline>
	<contour>
	  <point x="-147" y="821" type="line"/>
	  <point x="-254" y="821" type="line"/>
	  <point x="-186" y="606" type="line"/>
	  <point x="-88" y="606" type="line"/>
	</contour>
	<contour>
	  <point x="-79" y="606" type="line"/>
	  <point x="-194" y="606" type="line"/>
	  <point x="-194" y="513" type="line"/>
	  <point x="-79" y="513" type="line"/>
	</contour>
	<contour>
	  <point x="-130" y="606" type="move" name="_top"/>
	</contour>
  </outline>
</glyph>
<glyph name="aiMatra-deva" format="1">
  <advance width="0"/>
  <unicode hex="0948"/>
  <outline>
	<contour>
	  <point x="-254" y="821" type="line"/>
	  <point x="-361" y="821" type="line"/>
	  <point x="-293" y="606" type="line"/>
	  <point x="-194" y="606" type="line"/>
	</contour>
	<contour>
	  <point x="-70" y="606" type="line"/>
	  <point x="-301" y="606" type="line"/>
	  <point x="-301" y="513" type="line"/>
	  <point x="-70" y="513" type="line"/>
	</contour>
	<contour>
	  <point x="-79" y="821" type="line"/>
	  <point x="-186" y="821" type="line"/>
	  <point x="-186" y="743" type="line"/>
	  <point x="-186" y="697"/>
	  <point x="-182" y="652"/>
	  <point x="-177" y="606" type="curve"/>
	  <point x="-79" y="606" type="line"/>
	</contour>
	<contour>
	  <point x="-129" y="606" type="move" name="_top"/>
	</contour>
  </outline>
</glyph>
<glyph name="oCandraMatra-deva" format="1">
  <advance width="258"/>
  <unicode hex="0949"/>
  <outline>
	<component base="aaMatra-deva"/>
	<component base="eCandraMatra-deva" xOffset="256"/>
	<contour>
	  <point x="129" y="0" type="move" name="bottom"/>
	</contour>
  </outline>
</glyph>
<glyph name="oShortMatra-deva" format="1">
  <advance width="258"/>
  <unicode hex="094A"/>
  <outline>
	<component base="aaMatra-deva"/>
	<component base="eShortMatra-deva" xOffset="258"/>
	<contour>
	  <point x="129" y="0" type="move" name="bottom"/>
	</contour>
  </outline>
</glyph>
<glyph name="oMatra-deva" format="1">
  <advance width="258"/>
  <unicode hex="094B"/>
  <outline>
	<component base="aaMatra-deva"/>
	<component base="eMatra-deva" xOffset="259"/>
	<contour>
	  <point x="129" y="0" type="move" name="bottom"/>
	</contour>
  </outline>
</glyph>
<glyph name="halant-deva" format="1">
  <advance width="0"/>
  <unicode hex="094D"/>
  <outline>
	<contour>
	  <point x="0" y="-218" type="line"/>
	  <point x="0" y="-124" type="line"/>
	  <point x="-248" y="-46" type="line"/>
	  <point x="-248" y="-141" type="line"/>
	</contour>
	<contour>
	  <point x="-124" y="0" type="move" name="_bottom"/>
	</contour>
  </outline>
</glyph>
<glyph name="grave-deva" format="1">
  <advance width="0"/>
  <unicode hex="0953"/>
  <outline>
	<component base="grave" xOffset="-287" yOffset="137"/>
	<contour>
	  <point x="-125" y="606" type="move" name="_top"/>
	</contour>
  </outline>
</glyph>
<glyph name="uueMatra-deva" format="1">
  <advance width="0"/>
  <unicode hex="0957"/>
  <outline>
	<component base="ueMatra-deva"/>
	<component base="ueMatra-deva" yOffset="-130"/>
	<contour>
	  <point x="-235" y="0" type="move" name="_uesign-deva"/>
	</contour>
  </outline>
</glyph>
<glyph name="qa-deva" format="1">
  <advance width="664"/>
  <unicode hex="0958"/>
  <outline>
	<component base="ka-deva"/>
	<component base="nukta-deva" xOffset="219" yOffset="113"/>
	<contour>
	  <point x="337" y="606" type="move" name="top"/>
	</contour>
	<contour>
	  <point x="337" y="0" type="move" name="bottom"/>
	</contour>
  </outline>
</glyph>
<glyph name="khha-deva" format="1">
  <advance width="727"/>
  <unicode hex="0959"/>
  <outline>
	<component base="kha-deva"/>
	<component base="nukta-deva" xOffset="191" yOffset="136"/>
	<contour>
	  <point x="598" y="606" type="move" name="top"/>
	</contour>
	<contour>
	  <point x="598" y="0" type="move" name="bottom"/>
	</contour>
  </outline>
</glyph>
<glyph name="dddha-deva" format="1">
  <advance width="456"/>
  <unicode hex="095C"/>
  <outline>
	<component base="dda-deva"/>
	<component base="nukta-deva" xOffset="353" yOffset="14"/>
	<contour>
	  <point x="329" y="606" type="move" name="top"/>
	</contour>
	<contour>
	  <point x="279" y="0" type="move" name="bottom"/>
	</contour>
  </outline>
</glyph>
<glyph name="rha-deva" format="1">
  <advance width="438"/>
  <unicode hex="095D"/>
  <outline>
	<component base="ddha-deva"/>
	<component base="nukta-deva" xOffset="352" yOffset="38"/>
	<contour>
	  <point x="300" y="606" type="move" name="top"/>
	</contour>
	<contour>
	  <point x="300" y="0" type="move" name="bottom"/>
	</contour>
  </outline>
</glyph>
<glyph name="fa-deva" format="1">
  <advance width="664"/>
  <unicode hex="095E"/>
  <outline>
	<component base="pha-deva"/>
	<component base="nukta-deva" xOffset="251" yOffset="126"/>
	<contour>
	  <point x="343" y="606" type="move" name="top"/>
	</contour>
	<contour>
	  <point x="343" y="0" type="move" name="bottom"/>
	</contour>
  </outline>
</glyph>
<glyph name="llVocalic-deva" format="1">
  <advance width="646"/>
  <unicode hex="0961"/>
  <outline>
	<contour>
	  <point x="-10" y="606" type="line"/>
	  <point x="-10" y="513" type="line"/>
	  <point x="656" y="513" type="line"/>
	  <point x="656" y="606" type="line"/>
	</contour>
	<contour>
	  <point x="464" y="606" type="line"/>
	  <point x="464" y="96" type="line"/>
	  <point x="570" y="96" type="line"/>
	  <point x="570" y="606" type="line"/>
	</contour>
	<contour>
	  <point x="356" y="445"/>
	  <point x="319" y="407"/>
	  <point x="304" y="355" type="curve"/>
	  <point x="301" y="355" type="line"/>
	  <point x="285" y="407"/>
	  <point x="244" y="445"/>
	  <point x="177" y="445" type="curve" smooth="yes"/>
	  <point x="87" y="445"/>
	  <point x="31" y="357"/>
	  <point x="31" y="239" type="curve" smooth="yes"/>
	  <point x="31" y="83"/>
	  <point x="107" y="0"/>
	  <point x="246" y="0" type="curve" smooth="yes"/>
	  <point x="258" y="0"/>
	  <point x="269" y="1"/>
	  <point x="280" y="4" type="curve"/>
	  <point x="280" y="89" type="line"/>
	  <point x="247" y="89" type="line" smooth="yes"/>
	  <point x="179" y="89"/>
	  <point x="141" y="136"/>
	  <point x="141" y="229" type="curve" smooth="yes"/>
	  <point x="141" y="304"/>
	  <point x="158" y="356"/>
	  <point x="193" y="356" type="curve" smooth="yes"/>
	  <point x="236" y="356"/>
	  <point x="247" y="312"/>
	  <point x="247" y="262" type="curve" smooth="yes"/>
	  <point x="247" y="209" type="line"/>
	  <point x="358" y="209" type="line"/>
	  <point x="358" y="262" type="line" smooth="yes"/>
	  <point x="358" y="312"/>
	  <point x="369" y="356"/>
	  <point x="412" y="356" type="curve" smooth="yes"/>
	  <point x="447" y="356"/>
	  <point x="464" y="322"/>
	  <point x="464" y="268" type="curve"/>
	  <point x="544" y="270" type="line"/>
	  <point x="544" y="372"/>
	  <point x="496" y="445"/>
	  <point x="418" y="445" type="curve" smooth="yes"/>
	</contour>
	<component base="rrVocalicMatra-deva" xOffset="646" yOffset="96"/>
	<contour>
	  <point x="517" y="606" type="move" name="top"/>
	</contour>
	<contour>
	  <point x="517" y="0" type="move" name="bottom"/>
	</contour>
  </outline>
</glyph>
<glyph name="danda-deva" format="1">
  <advance width="286"/>
  <unicode hex="0964"/>
  <outline>
	<contour>
	  <point x="90" y="606" type="line"/>
	  <point x="90" y="0" type="line"/>
	  <point x="196" y="0" type="line"/>
	  <point x="196" y="606" type="line"/>
	</contour>
	<contour>
	  <point x="143" y="606" type="move" name="top"/>
	</contour>
	<contour>
	  <point x="143" y="0" type="move" name="bottom"/>
	</contour>
  </outline>
</glyph>
<glyph name="zero-deva" format="1">
  <advance width="456"/>
  <unicode hex="0966"/>
  <outline>
	<contour>
	  <point x="107" y="516"/>
	  <point x="42" y="446"/>
	  <point x="42" y="315" type="curve" smooth="yes"/>
	  <point x="42" y="184"/>
	  <point x="107" y="114"/>
	  <point x="228" y="114" type="curve" smooth="yes"/>
	  <point x="349" y="114"/>
	  <point x="414" y="184"/>
	  <point x="414" y="315" type="curve" smooth="yes"/>
	  <point x="414" y="446"/>
	  <point x="349" y="516"/>
	  <point x="228" y="516" type="curve" smooth="yes"/>
	</contour>
	<contour>
	  <point x="280" y="426"/>
	  <point x="308" y="391"/>
	  <point x="308" y="327" type="curve" smooth="yes"/>
	  <point x="308" y="303" type="line" smooth="yes"/>
	  <point x="308" y="239"/>
	  <point x="280" y="204"/>
	  <point x="228" y="204" type="curve" smooth="yes"/>
	  <point x="176" y="204"/>
	  <point x="148" y="239"/>
	  <point x="148" y="303" type="curve" smooth="yes"/>
	  <point x="148" y="327" type="line" smooth="yes"/>
	  <point x="148" y="391"/>
	  <point x="176" y="426"/>
	  <point x="228" y="426" type="curve" smooth="yes"/>
	</contour>
	<contour>
	  <point x="228" y="606" type="move" name="top"/>
	</contour>
  </outline>
</glyph>
<glyph name="one-deva" format="1">
  <advance width="388"/>
  <unicode hex="0967"/>
  <outline>
	<contour>
	  <point x="106" y="637"/>
	  <point x="45" y="591"/>
	  <point x="45" y="510" type="curve" smooth="yes"/>
	  <point x="45" y="424"/>
	  <point x="115" y="373"/>
	  <point x="208" y="373" type="curve" smooth="yes"/>
	  <point x="227" y="373"/>
	  <point x="240" y="375"/>
	  <point x="254" y="378" type="curve"/>
	  <point x="253" y="455" type="line"/>
	  <point x="211" y="455" type="line" smooth="yes"/>
	  <point x="174" y="455"/>
	  <point x="149" y="473"/>
	  <point x="149" y="505" type="curve" smooth="yes"/>
	  <point x="149" y="530"/>
	  <point x="163" y="550"/>
	  <point x="193" y="550" type="curve" smooth="yes"/>
	  <point x="223" y="550"/>
	  <point x="243" y="530"/>
	  <point x="243" y="476" type="curve" smooth="yes"/>
	  <point x="243" y="371"/>
	  <point x="168" y="312"/>
	  <point x="67" y="285" type="curve"/>
	  <point x="67" y="218" type="line"/>
	  <point x="136" y="213" type="line"/>
	  <point x="212" y="241"/>
	  <point x="346" y="331"/>
	  <point x="346" y="483" type="curve" smooth="yes"/>
	  <point x="346" y="585"/>
	  <point x="285" y="637"/>
	  <point x="193" y="637" type="curve" smooth="yes"/>
	</contour>
	<contour>
	  <point x="67" y="218" type="line"/>
	  <point x="198" y="89" type="line" smooth="yes"/>
	  <point x="216" y="69"/>
	  <point x="223" y="54"/>
	  <point x="223" y="30" type="curve" smooth="yes"/>
	  <point x="223" y="21"/>
	  <point x="223" y="12"/>
	  <point x="221" y="0" type="curve"/>
	  <point x="310" y="0" type="line"/>
	  <point x="320" y="23"/>
	  <point x="326" y="42"/>
	  <point x="326" y="59" type="curve" smooth="yes"/>
	  <point x="326" y="88"/>
	  <point x="308" y="116"/>
	  <point x="265" y="155" type="curve" smooth="yes"/>
	  <point x="146" y="272" type="line"/>
	</contour>
	<contour>
	  <point x="191" y="606" type="move" name="top"/>
	</contour>
	<contour>
	  <point x="309" y="0" type="move" name="bottom"/>
	</contour>
  </outline>
</glyph>
<glyph name="two-deva" format="1">
  <advance width="423"/>
  <unicode hex="0968"/>
  <outline>
	<contour>
	  <point x="121" y="636"/>
	  <point x="50" y="580"/>
	  <point x="50" y="482" type="curve" smooth="yes"/>
	  <point x="50" y="472"/>
	  <point x="51" y="460"/>
	  <point x="53" y="450" type="curve"/>
	  <point x="156" y="450" type="line"/>
	  <point x="156" y="514"/>
	  <point x="171" y="546"/>
	  <point x="208" y="546" type="curve" smooth="yes"/>
	  <point x="254" y="546"/>
	  <point x="270" y="499"/>
	  <point x="270" y="409" type="curve" smooth="yes"/>
	  <point x="270" y="376" type="line" smooth="yes"/>
	  <point x="270" y="286"/>
	  <point x="254" y="239"/>
	  <point x="211" y="239" type="curve" smooth="yes"/>
	  <point x="176" y="239"/>
	  <point x="159" y="270"/>
	  <point x="159" y="335" type="curve"/>
	  <point x="71" y="335" type="line"/>
	  <point x="71" y="205"/>
	  <point x="129" y="149"/>
	  <point x="221" y="149" type="curve" smooth="yes"/>
	  <point x="327" y="149"/>
	  <point x="381" y="225"/>
	  <point x="381" y="393" type="curve" smooth="yes"/>
	  <point x="381" y="560"/>
	  <point x="327" y="636"/>
	  <point x="208" y="636" type="curve" smooth="yes"/>
	</contour>
	<contour>
	  <point x="52" y="335" type="line"/>
	  <point x="52" y="0" type="line"/>
	  <point x="149" y="0" type="line"/>
	  <point x="149" y="335" type="line"/>
	</contour>
  </outline>
</glyph>
<glyph name="four-deva" format="1">
  <advance width="434"/>
  <unicode hex="096A"/>
  <outline>
	<contour>
	  <point x="42" y="627" type="line"/>
	  <point x="42" y="440" type="line" smooth="yes"/>
	  <point x="42" y="374"/>
	  <point x="65" y="322"/>
	  <point x="119" y="295" type="curve"/>
	  <point x="75" y="266"/>
	  <point x="54" y="215"/>
	  <point x="54" y="158" type="curve" smooth="yes"/>
	  <point x="54" y="65"/>
	  <point x="109" y="-11"/>
	  <point x="217" y="-11" type="curve" smooth="yes"/>
	  <point x="324" y="-11"/>
	  <point x="379" y="65"/>
	  <point x="379" y="158" type="curve" smooth="yes"/>
	  <point x="379" y="215"/>
	  <point x="357" y="266"/>
	  <point x="313" y="295" type="curve"/>
	  <point x="369" y="322"/>
	  <point x="392" y="374"/>
	  <point x="392" y="440" type="curve" smooth="yes"/>
	  <point x="392" y="627" type="line"/>
	  <point x="282" y="627" type="line"/>
	  <point x="282" y="435" type="line" smooth="yes"/>
	  <point x="283" y="374"/>
	  <point x="259" y="340"/>
	  <point x="217" y="340" type="curve" smooth="yes"/>
	  <point x="174" y="340"/>
	  <point x="151" y="374"/>
	  <point x="151" y="435" type="curve" smooth="yes"/>
	  <point x="151" y="627" type="line"/>
	</contour>
	<contour>
	  <point x="181" y="77"/>
	  <point x="162" y="107"/>
	  <point x="162" y="165" type="curve" smooth="yes"/>
	  <point x="162" y="222"/>
	  <point x="181" y="252"/>
	  <point x="217" y="252" type="curve" smooth="yes"/>
	  <point x="252" y="252"/>
	  <point x="272" y="222"/>
	  <point x="272" y="165" type="curve" smooth="yes"/>
	  <point x="272" y="107"/>
	  <point x="252" y="77"/>
	  <point x="217" y="77" type="curve" smooth="yes"/>
	</contour>
  </outline>
</glyph>
<glyph name="eight-deva" format="1">
  <advance width="464"/>
  <unicode hex="096E"/>
  <outline>
	<contour>
	  <point x="235" y="628" type="line"/>
	  <point x="150" y="506"/>
	  <point x="42" y="327"/>
	  <point x="42" y="175" type="curve" smooth="yes"/>
	  <point x="42" y="46"/>
	  <point x="124" y="-11"/>
	  <point x="232" y="-11" type="curve" smooth="yes"/>
	  <point x="352" y="-11"/>
	  <point x="424" y="61"/>
	  <point x="424" y="155" type="curve" smooth="yes"/>
	  <point x="424" y="167"/>
	  <point x="423" y="179"/>
	  <point x="421" y="187" type="curve"/>
	  <point x="315" y="187" type="line"/>
	  <point x="315" y="161" type="line" smooth="yes"/>
	  <point x="315" y="105"/>
	  <point x="284" y="76"/>
	  <point x="235" y="76" type="curve" smooth="yes"/>
	  <point x="178" y="76"/>
	  <point x="150" y="111"/>
	  <point x="150" y="174" type="curve" smooth="yes"/>
	  <point x="150" y="295"/>
	  <point x="242" y="465"/>
	  <point x="360" y="628" type="curve"/>
	</contour>
  </outline>
</glyph>
<glyph name="dda-deva.MAW" format="1">
  <advance width="454"/>
  <unicode hex="0978"/>
  <outline>
	<contour>
	  <point x="293" y="586" type="line"/>
	  <point x="187" y="586" type="line"/>
	  <point x="187" y="401" type="line" smooth="yes"/>
	  <point x="187" y="351"/>
	  <point x="171" y="324"/>
	  <point x="141" y="324" type="curve" smooth="yes"/>
	  <point x="69" y="324" type="line"/>
	  <point x="69" y="236" type="line"/>
	  <point x="164" y="236" type="line" smooth="yes"/>
	  <point x="248" y="236"/>
	  <point x="293" y="297"/>
	  <point x="293" y="412" type="curve" smooth="yes"/>
	</contour>
	<contour>
	  <point x="464" y="606" type="line"/>
	  <point x="-10" y="606" type="line"/>
	  <point x="-10" y="513" type="line"/>
	  <point x="464" y="513" type="line"/>
	</contour>
	<contour>
	  <point x="362" y="0" type="line"/>
	  <point x="410" y="87"/>
	  <point x="414" y="134"/>
	  <point x="414" y="158" type="curve" smooth="yes"/>
	  <point x="414" y="247"/>
	  <point x="359" y="324"/>
	  <point x="223" y="324" type="curve" smooth="yes"/>
	  <point x="69" y="324" type="line"/>
	  <point x="69" y="231" type="line"/>
	  <point x="213" y="231" type="line" smooth="yes"/>
	  <point x="283" y="231"/>
	  <point x="305" y="201"/>
	  <point x="305" y="153" type="curve" smooth="yes"/>
	  <point x="305" y="132"/>
	  <point x="301" y="85"/>
	  <point x="253" y="0" type="curve"/>
	</contour>
	<contour>
	  <point x="123" y="134" type="move" name="nukta"/>
	</contour>
	<contour>
	  <point x="308" y="0" type="move" name="bottom"/>
	</contour>
	<contour>
	  <point x="240" y="606" type="move" name="top"/>
	</contour>
  </outline>
</glyph>
<glyph name="zha-deva" format="1">
  <advance width="583"/>
  <unicode hex="0979"/>
  <outline>
	<component base="ja-deva"/>
	<component base="nukta-deva" xOffset="231" yOffset="77"/>
	<component base="nukta-deva" xOffset="415" yOffset="77"/>
	<component base="nukta-deva" xOffset="322" yOffset="-26"/>
	<contour>
	  <point x="474" y="606" type="move" name="top"/>
	</contour>
	<contour>
	  <point x="474" y="0" type="move" name="bottom"/>
	</contour>
  </outline>
</glyph>
<glyph name="jjya-deva" format="1">
  <advance width="523"/>
  <unicode hex="097A"/>
  <outline>
	<contour>
	  <point x="344" y="179" type="line"/>
	  <point x="387" y="210" type="line"/>
	  <point x="207" y="539" type="line"/>
	  <point x="166" y="504" type="line"/>
	</contour>
	<component base="ya-deva"/>
	<contour>
	  <point x="66" y="135" type="move" name="nukta"/>
	</contour>
	<contour>
	  <point x="394" y="0" type="move" name="bottom"/>
	</contour>
	<contour>
	  <point x="394" y="606" type="move" name="top"/>
	</contour>
  </outline>
</glyph>
<glyph name="gga-deva" format="1">
  <advance width="595"/>
  <unicode hex="097B"/>
  <outline>
	<contour>
	  <point x="10" y="0" type="line"/>
	  <point x="519" y="0" type="line"/>
	  <point x="519" y="80" type="line"/>
	  <point x="10" y="80" type="line"/>
	</contour>
	<contour>
	  <point x="426" y="606" type="line"/>
	  <point x="-10" y="606" type="line"/>
	  <point x="-10" y="513" type="line"/>
	  <point x="426" y="513" type="line"/>
	</contour>
	<contour>
	  <point x="293" y="552" type="line"/>
	  <point x="187" y="552" type="line"/>
	  <point x="187" y="265" type="line" smooth="yes"/>
	  <point x="187" y="228"/>
	  <point x="172" y="209"/>
	  <point x="147" y="209" type="curve" smooth="yes"/>
	  <point x="120" y="209"/>
	  <point x="106" y="228"/>
	  <point x="106" y="265" type="curve" smooth="yes"/>
	  <point x="106" y="298"/>
	  <point x="122" y="320"/>
	  <point x="147" y="320" type="curve" smooth="yes"/>
	  <point x="243" y="320" type="line"/>
	  <point x="243" y="414" type="line"/>
	  <point x="147" y="414" type="line" smooth="yes"/>
	  <point x="58" y="414"/>
	  <point x="0" y="355"/>
	  <point x="0" y="265" type="curve" smooth="yes"/>
	  <point x="0" y="175"/>
	  <point x="58" y="115"/>
	  <point x="147" y="115" type="curve" smooth="yes"/>
	  <point x="234" y="115"/>
	  <point x="293" y="175"/>
	  <point x="293" y="265" type="curve" smooth="yes"/>
	</contour>
	<component base="aaMatra-deva" xOffset="337"/>
	<contour>
	  <point x="466" y="606" type="move" name="top"/>
	</contour>
	<contour>
	  <point x="466" y="0" type="move" name="bottom"/>
	</contour>
  </outline>
</glyph>
<glyph name="jja-deva" format="1">
  <advance width="603"/>
  <unicode hex="097C"/>
  <outline>
	<contour>
	  <point x="242" y="416" type="line"/>
	  <point x="242" y="259" type="line" smooth="yes"/>
	  <point x="242" y="225"/>
	  <point x="218" y="203"/>
	  <point x="190" y="203" type="curve" smooth="yes"/>
	  <point x="162" y="203"/>
	  <point x="139" y="225"/>
	  <point x="139" y="259" type="curve" smooth="yes"/>
	  <point x="139" y="416" type="line"/>
	  <point x="33" y="416" type="line"/>
	  <point x="33" y="256" type="line" smooth="yes"/>
	  <point x="33" y="164"/>
	  <point x="96" y="113"/>
	  <point x="190" y="113" type="curve" smooth="yes"/>
	  <point x="284" y="113"/>
	  <point x="348" y="164"/>
	  <point x="348" y="256" type="curve" smooth="yes"/>
	  <point x="348" y="416" type="line"/>
	</contour>
	<contour>
	  <point x="33" y="80" type="line"/>
	  <point x="33" y="0" type="line"/>
	  <point x="527" y="0" type="line"/>
	  <point x="527" y="80" type="line"/>
	</contour>
	<contour>
	  <point x="242" y="416" type="line"/>
	  <point x="242" y="322" type="line"/>
	  <point x="443" y="322" type="line"/>
	  <point x="443" y="416" type="line"/>
	</contour>
	<contour>
	  <point x="-10" y="606" type="line"/>
	  <point x="-10" y="513" type="line"/>
	  <point x="439" y="513" type="line"/>
	  <point x="439" y="606" type="line"/>
	</contour>
	<component base="aaMatra-deva" xOffset="345"/>
	<contour>
	  <point x="474" y="606" type="move" name="top"/>
	</contour>
	<contour>
	  <point x="474" y="0" type="move" name="bottom"/>
	</contour>
  </outline>
</glyph>
<glyph name="ddda-deva" format="1">
  <advance width="456"/>
  <unicode hex="097E"/>
  <outline>
	<contour>
	  <point x="382" y="606" type="line"/>
	  <point x="276" y="606" type="line"/>
	  <point x="276" y="354" type="line"/>
	  <point x="382" y="354" type="line"/>
	</contour>
	<contour>
	  <point x="466" y="606" type="line"/>
	  <point x="-10" y="606" type="line"/>
	  <point x="-10" y="513" type="line"/>
	  <point x="466" y="513" type="line"/>
	</contour>
	<contour>
	  <point x="45" y="-80" type="line"/>
	  <point x="402" y="-80" type="line"/>
	  <point x="402" y="0" type="line"/>
	  <point x="45" y="0" type="line"/>
	</contour>
	<contour>
	  <point x="217" y="447" type="line" smooth="yes"/>
	  <point x="126" y="447"/>
	  <point x="60" y="416"/>
	  <point x="60" y="327" type="curve" smooth="yes"/>
	  <point x="60" y="243"/>
	  <point x="117" y="214"/>
	  <point x="197" y="214" type="curve" smooth="yes"/>
	  <point x="251" y="214" type="line" smooth="yes"/>
	  <point x="282" y="214"/>
	  <point x="314" y="210"/>
	  <point x="314" y="172" type="curve" smooth="yes"/>
	  <point x="314" y="141"/>
	  <point x="290" y="126"/>
	  <point x="242" y="126" type="curve" smooth="yes"/>
	  <point x="188" y="126"/>
	  <point x="154" y="144"/>
	  <point x="154" y="181" type="curve" smooth="yes"/>
	  <point x="154" y="188" type="line"/>
	  <point x="46" y="188" type="line"/>
	  <point x="45" y="181"/>
	  <point x="45" y="178"/>
	  <point x="45" y="173" type="curve" smooth="yes"/>
	  <point x="45" y="95"/>
	  <point x="110" y="39"/>
	  <point x="237" y="39" type="curve" smooth="yes"/>
	  <point x="339" y="39"/>
	  <point x="422" y="74"/>
	  <point x="422" y="179" type="curve" smooth="yes"/>
	  <point x="422" y="252"/>
	  <point x="370" y="295"/>
	  <point x="282" y="295" type="curve" smooth="yes"/>
	  <point x="214" y="295" type="line" smooth="yes"/>
	  <point x="181" y="295"/>
	  <point x="168" y="304"/>
	  <point x="168" y="324" type="curve" smooth="yes"/>
	  <point x="168" y="345"/>
	  <point x="181" y="354"/>
	  <point x="214" y="354" type="curve" smooth="yes"/>
	  <point x="323" y="354" type="line"/>
	  <point x="323" y="447" type="line"/>
	</contour>
	<contour>
	  <point x="329" y="606" type="move" name="top"/>
	</contour>
	<contour>
	  <point x="222" y="0" type="move" name="bottom"/>
	</contour>
  </outline>
</glyph>
<glyph name="uni1CF5" format="1">
  <advance width="493"/>
  <unicode hex="1CF5"/>
  <outline>
	<contour>
	  <point x="469" y="606" type="line"/>
	  <point x="355" y="606" type="line"/>
	  <point x="254" y="408" type="line"/>
	  <point x="249" y="408" type="line"/>
	  <point x="147" y="606" type="line"/>
	  <point x="27" y="606" type="line"/>
	  <point x="184" y="318" type="line"/>
	  <point x="8" y="0" type="line"/>
	  <point x="122" y="0" type="line"/>
	  <point x="241" y="232" type="line"/>
	  <point x="246" y="232" type="line"/>
	  <point x="365" y="0" type="line"/>
	  <point x="485" y="0" type="line"/>
	  <point x="311" y="321" type="line"/>
	</contour>
  </outline>
</glyph>
<glyph name="uni1CF6" format="1">
  <advance width="623"/>
  <unicode hex="1CF6"/>
  <outline>
	<contour>
	  <point x="583" y="42" type="line"/>
	  <point x="583" y="80" type="line" smooth="yes"/>
	  <point x="583" y="204"/>
	  <point x="529" y="296"/>
	  <point x="434" y="296" type="curve" smooth="yes"/>
	  <point x="369" y="296"/>
	  <point x="327" y="254"/>
	  <point x="313" y="206" type="curve"/>
	  <point x="310" y="206" type="line"/>
	  <point x="296" y="254"/>
	  <point x="254" y="296"/>
	  <point x="189" y="296" type="curve" smooth="yes"/>
	  <point x="94" y="296"/>
	  <point x="40" y="204"/>
	  <point x="40" y="80" type="curve" smooth="yes"/>
	  <point x="40" y="42" type="line"/>
	  <point x="150" y="42" type="line"/>
	  <point x="150" y="70" type="line" smooth="yes"/>
	  <point x="150" y="151"/>
	  <point x="165" y="207"/>
	  <point x="206" y="207" type="curve" smooth="yes"/>
	  <point x="243" y="207"/>
	  <point x="256" y="162"/>
	  <point x="256" y="113" type="curve" smooth="yes"/>
	  <point x="256" y="42" type="line"/>
	  <point x="367" y="42" type="line"/>
	  <point x="367" y="113" type="line" smooth="yes"/>
	  <point x="367" y="162"/>
	  <point x="380" y="207"/>
	  <point x="417" y="207" type="curve" smooth="yes"/>
	  <point x="458" y="207"/>
	  <point x="473" y="151"/>
	  <point x="473" y="70" type="curve" smooth="yes"/>
	  <point x="473" y="42" type="line"/>
	</contour>
	<contour>
	  <point x="473" y="578" type="line" smooth="yes"/>
	  <point x="473" y="497"/>
	  <point x="458" y="441"/>
	  <point x="417" y="441" type="curve" smooth="yes"/>
	  <point x="380" y="441"/>
	  <point x="367" y="486"/>
	  <point x="367" y="535" type="curve" smooth="yes"/>
	  <point x="367" y="606" type="line"/>
	  <point x="256" y="606" type="line"/>
	  <point x="256" y="535" type="line" smooth="yes"/>
	  <point x="256" y="486"/>
	  <point x="243" y="441"/>
	  <point x="206" y="441" type="curve" smooth="yes"/>
	  <point x="165" y="441"/>
	  <point x="150" y="497"/>
	  <point x="150" y="578" type="curve" smooth="yes"/>
	  <point x="150" y="606" type="line"/>
	  <point x="40" y="606" type="line"/>
	  <point x="40" y="568" type="line" smooth="yes"/>
	  <point x="40" y="444"/>
	  <point x="94" y="352"/>
	  <point x="189" y="352" type="curve" smooth="yes"/>
	  <point x="254" y="352"/>
	  <point x="296" y="394"/>
	  <point x="310" y="442" type="curve"/>
	  <point x="313" y="442" type="line"/>
	  <point x="327" y="394"/>
	  <point x="369" y="352"/>
	  <point x="434" y="352" type="curve" smooth="yes"/>
	  <point x="529" y="352"/>
	  <point x="583" y="444"/>
	  <point x="583" y="568" type="curve" smooth="yes"/>
	  <point x="583" y="606" type="line"/>
	  <point x="473" y="606" type="line"/>
	</contour>
  </outline>
</glyph>
<glyph name="Wgrave" format="1">
  <advance width="684"/>
  <unicode hex="1E80"/>
  <outline>
	<contour>
	  <point x="683" y="606" type="line"/>
	  <point x="586" y="606" type="line"/>
	  <point x="512" y="233" type="line" smooth="yes"/>
	  <point x="506" y="203"/>
	  <point x="500" y="149"/>
	  <point x="500" y="149" type="curve" smooth="yes"/>
	  <point x="497" y="149" type="line" smooth="yes"/>
	  <point x="497" y="149"/>
	  <point x="490" y="210"/>
	  <point x="485" y="233" type="curve" smooth="yes"/>
	  <point x="413" y="606" type="line"/>
	  <point x="285" y="606" type="line"/>
	  <point x="211" y="233" type="line" smooth="yes"/>
	  <point x="206" y="208"/>
	  <point x="200" y="149"/>
	  <point x="200" y="149" type="curve" smooth="yes"/>
	  <point x="196" y="149" type="line" smooth="yes"/>
	  <point x="196" y="149"/>
	  <point x="190" y="207"/>
	  <point x="185" y="233" type="curve" smooth="yes"/>
	  <point x="112" y="606" type="line"/>
	  <point x="0" y="606" type="line"/>
	  <point x="132" y="0" type="line"/>
	  <point x="246" y="0" type="line"/>
	  <point x="327" y="386" type="line" smooth="yes"/>
	  <point x="332" y="412"/>
	  <point x="339" y="472"/>
	  <point x="339" y="472" type="curve"/>
	  <point x="343" y="472" type="line"/>
	  <point x="343" y="472"/>
	  <point x="348" y="417"/>
	  <point x="355" y="386" type="curve" smooth="yes"/>
	  <point x="438" y="0" type="line"/>
	  <point x="552" y="0" type="line"/>
	</contour>
	<contour>
	  <point x="327" y="781" type="line"/>
	  <point x="221" y="781" type="line"/>
	  <point x="220" y="778" type="line"/>
	  <point x="316" y="664" type="line"/>
	  <point x="403" y="664" type="line"/>
	</contour>
  </outline>
</glyph>
<glyph name="zerowidthjoiner" format="1">
  <advance width="0"/>
  <unicode hex="200D"/>
  <outline>
	<contour>
	  <point x="229" y="827" type="line"/>
	  <point x="0" y="827" type="line"/>
	  <point x="0" y="-404" type="line"/>
	  <point x="79" y="-404" type="line"/>
	  <point x="79" y="753" type="line"/>
	  <point x="229" y="753" type="line"/>
	</contour>
  </outline>
</glyph>
<glyph name="underscoredbl" format="1">
  <advance width="442"/>
  <unicode hex="2017"/>
  <outline>
	<contour>
	  <point x="442" y="-123" type="line"/>
	  <point x="442" y="-78" type="line"/>
	  <point x="0" y="-78" type="line"/>
	  <point x="0" y="-123" type="line"/>
	</contour>
	<contour>
	  <point x="442" y="-200" type="line"/>
	  <point x="442" y="-155" type="line"/>
	  <point x="0" y="-155" type="line"/>
	  <point x="0" y="-200" type="line"/>
	</contour>
  </outline>
</glyph>
<glyph name="quoteright" format="1">
  <advance width="202"/>
  <unicode hex="2019"/>
  <outline>
	<contour>
	  <point x="162" y="496" type="line"/>
	  <point x="162" y="606" type="line"/>
	  <point x="40" y="606" type="line"/>
	  <point x="40" y="485" type="line"/>
	  <point x="88" y="485" type="line"/>
	  <point x="40" y="347" type="line"/>
	  <point x="103" y="347" type="line"/>
	</contour>
  </outline>
</glyph>
<glyph name="quotedblleft" format="1">
  <advance width="362"/>
  <unicode hex="201C"/>
  <outline>
	<contour>
	  <point x="323" y="606" type="line"/>
	  <point x="259" y="606" type="line"/>
	  <point x="201" y="458" type="line"/>
	  <point x="201" y="347" type="line"/>
	  <point x="323" y="347" type="line"/>
	  <point x="323" y="469" type="line"/>
	  <point x="274" y="469" type="line"/>
	</contour>
	<contour>
	  <point x="161" y="606" type="line"/>
	  <point x="97" y="606" type="line"/>
	  <point x="39" y="458" type="line"/>
	  <point x="39" y="347" type="line"/>
	  <point x="161" y="347" type="line"/>
	  <point x="161" y="469" type="line"/>
	  <point x="112" y="469" type="line"/>
	</contour>
  </outline>
</glyph>
<glyph name="minute" format="1">
  <advance width="172"/>
  <unicode hex="2032"/>
  <outline>
	<contour>
	  <point x="141" y="604" type="line"/>
	  <point x="140" y="606" type="line"/>
	  <point x="42" y="606" type="line"/>
	  <point x="20" y="447" type="line"/>
	  <point x="99" y="447" type="line"/>
	</contour>
  </outline>
</glyph>
<glyph name="caret" format="1">
  <advance width="299"/>
  <unicode hex="2038"/>
  <outline>
	<contour>
	  <point x="289" y="-230" type="line"/>
	  <point x="179" y="44" type="line"/>
	  <point x="120" y="44" type="line"/>
	  <point x="10" y="-230" type="line"/>
	  <point x="104" y="-230" type="line"/>
	  <point x="149" y="-102" type="line"/>
	  <point x="195" y="-230" type="line"/>
	</contour>
  </outline>
</glyph>
<glyph name="exclamdbl" format="1">
  <advance width="483"/>
  <unicode hex="203C"/>
  <outline>
	<contour>
	  <point x="294" y="606" type="line"/>
	  <point x="305" y="462"/>
	  <point x="315" y="318"/>
	  <point x="325" y="174" type="curve"/>
	  <point x="398" y="174" type="line"/>
	  <point x="408" y="318"/>
	  <point x="419" y="462"/>
	  <point x="430" y="606" type="curve"/>
	</contour>
	<contour>
	  <point x="182" y="121" type="line"/>
	  <point x="60" y="121" type="line"/>
	  <point x="60" y="0" type="line"/>
	  <point x="182" y="0" type="line"/>
	</contour>
	<contour>
	  <point x="423" y="121" type="line"/>
	  <point x="301" y="121" type="line"/>
	  <point x="301" y="0" type="line"/>
	  <point x="423" y="0" type="line"/>
	</contour>
	<contour>
	  <point x="53" y="606" type="line"/>
	  <point x="64" y="462"/>
	  <point x="73" y="318"/>
	  <point x="84" y="174" type="curve"/>
	  <point x="156" y="174" type="line"/>
	  <point x="167" y="318"/>
	  <point x="178" y="462"/>
	  <point x="188" y="606" type="curve"/>
	</contour>
  </outline>
</glyph>
<glyph name="overline" format="1">
  <advance width="442"/>
  <unicode hex="203E"/>
  <outline>
	<contour>
	  <point x="442" y="699" type="line"/>
	  <point x="442" y="760" type="line"/>
	  <point x="0" y="760" type="line"/>
	  <point x="0" y="699" type="line"/>
	</contour>
  </outline>
</glyph>
<glyph name="franc" format="1">
  <advance width="446"/>
  <unicode hex="20A3"/>
  <outline>
	<contour>
	  <point x="441" y="323" type="line"/>
	  <point x="441" y="425" type="line"/>
	  <point x="441" y="425"/>
	  <point x="431" y="432"/>
	  <point x="415" y="432" type="curve" smooth="yes"/>
	  <point x="373" y="432"/>
	  <point x="354" y="392"/>
	  <point x="343" y="354" type="curve"/>
	  <point x="338" y="354" type="line"/>
	  <point x="325" y="422" type="line"/>
	  <point x="237" y="422" type="line"/>
	  <point x="237" y="353" type="line"/>
	  <point x="149" y="353" type="line"/>
	  <point x="149" y="506" type="line"/>
	  <point x="347" y="506" type="line"/>
	  <point x="347" y="606" type="line"/>
	  <point x="35" y="606" type="line"/>
	  <point x="35" y="0" type="line"/>
	  <point x="149" y="0" type="line"/>
	  <point x="149" y="252" type="line"/>
	  <point x="237" y="252" type="line"/>
	  <point x="237" y="0" type="line"/>
	  <point x="343" y="0" type="line"/>
	  <point x="343" y="216" type="line" smooth="yes"/>
	  <point x="343" y="298"/>
	  <point x="384" y="323"/>
	  <point x="430" y="323" type="curve" smooth="yes"/>
	</contour>
  </outline>
</glyph>
<glyph name="arrowboth" format="1">
  <advance width="884"/>
  <unicode hex="2194"/>
  <outline>
	<contour>
	  <point x="849" y="232" type="line"/>
	  <point x="674" y="385" type="line"/>
	  <point x="629" y="385" type="line"/>
	  <point x="675" y="271" type="line"/>
	  <point x="210" y="271" type="line"/>
	  <point x="257" y="385" type="line"/>
	  <point x="211" y="385" type="line"/>
	  <point x="37" y="232" type="line"/>
	  <point x="37" y="214" type="line"/>
	  <point x="211" y="61" type="line"/>
	  <point x="257" y="61" type="line"/>
	  <point x="210" y="175" type="line"/>
	  <point x="675" y="175" type="line"/>
	  <point x="629" y="61" type="line"/>
	  <point x="674" y="61" type="line"/>
	  <point x="849" y="214" type="line"/>
	</contour>
  </outline>
</glyph>
<glyph name="arrowupdownbase" format="1">
  <advance width="442"/>
  <unicode hex="21A8"/>
  <outline>
	<contour>
	  <point x="383" y="454" type="line"/>
	  <point x="230" y="629" type="line"/>
	  <point x="211" y="629" type="line"/>
	  <point x="57" y="454" type="line"/>
	  <point x="57" y="408" type="line"/>
	  <point x="172" y="455" type="line"/>
	  <point x="172" y="85" type="line"/>
	  <point x="57" y="132" type="line"/>
	  <point x="57" y="86" type="line"/>
	  <point x="211" y="-88" type="line"/>
	  <point x="230" y="-88" type="line"/>
	  <point x="383" y="86" type="line"/>
	  <point x="383" y="132" type="line"/>
	  <point x="268" y="85" type="line"/>
	  <point x="268" y="455" type="line"/>
	  <point x="383" y="408" type="line"/>
	</contour>
	<contour>
	  <point x="383" y="-206" type="line"/>
	  <point x="383" y="-130" type="line"/>
	  <point x="58" y="-130" type="line"/>
	  <point x="58" y="-206" type="line"/>
	</contour>
  </outline>
</glyph>
<glyph name="product" format="1">
  <advance width="728"/>
  <unicode hex="220F"/>
  <outline>
	<contour>
	  <point x="643" y="549" type="line"/>
	  <point x="643" y="639" type="line"/>
	  <point x="85" y="639" type="line"/>
	  <point x="85" y="549" type="line"/>
	  <point x="157" y="549" type="line"/>
	  <point x="157" y="-113" type="line"/>
	  <point x="264" y="-113" type="line"/>
	  <point x="264" y="549" type="line"/>
	  <point x="462" y="549" type="line"/>
	  <point x="462" y="-113" type="line"/>
	  <point x="569" y="-113" type="line"/>
	  <point x="569" y="549" type="line"/>
	</contour>
  </outline>
</glyph>
<glyph name="divisionslash" format="1">
  <advance width="83"/>
  <unicode hex="2215"/>
  <outline>
	<contour>
	  <point x="-87" y="-11" type="line"/>
	  <point x="263" y="617" type="line"/>
	  <point x="204" y="617" type="line"/>
	  <point x="-146" y="-11" type="line"/>
	</contour>
  </outline>
</glyph>
<glyph name="radical" format="1">
  <advance width="485"/>
  <unicode hex="221A"/>
  <outline>
	<contour>
	  <point x="350" y="-131" type="line"/>
	  <point x="493" y="758" type="line"/>
	  <point x="422" y="758" type="line"/>
	  <point x="301" y="-27" type="line"/>
	  <point x="296" y="-8"/>
	  <point x="291" y="14"/>
	  <point x="282" y="39" type="curve" smooth="yes"/>
	  <point x="245" y="141"/>
	  <point x="206" y="243"/>
	  <point x="170" y="346" type="curve"/>
	  <point x="18" y="286" type="line"/>
	  <point x="35" y="232" type="line"/>
	  <point x="103" y="259" type="line"/>
	  <point x="153" y="129"/>
	  <point x="202" y="-1"/>
	  <point x="253" y="-131" type="curve"/>
	</contour>
  </outline>
</glyph>
<glyph name="intersection" format="1">
  <advance width="638"/>
  <unicode hex="2229"/>
  <outline>
	<contour>
	  <point x="180" y="606"/>
	  <point x="70" y="502"/>
	  <point x="70" y="362" type="curve" smooth="yes"/>
	  <point x="70" y="0" type="line"/>
	  <point x="176" y="0" type="line"/>
	  <point x="176" y="362" type="line" smooth="yes"/>
	  <point x="176" y="451"/>
	  <point x="240" y="512"/>
	  <point x="318" y="512" type="curve" smooth="yes"/>
	  <point x="397" y="512"/>
	  <point x="461" y="451"/>
	  <point x="461" y="362" type="curve" smooth="yes"/>
	  <point x="461" y="0" type="line"/>
	  <point x="565" y="0" type="line"/>
	  <point x="565" y="362" type="line" smooth="yes"/>
	  <point x="565" y="502"/>
	  <point x="455" y="606"/>
	  <point x="317" y="606" type="curve" smooth="yes"/>
	</contour>
  </outline>
</glyph>
<glyph name="integralbt" format="1">
  <advance width="534"/>
  <unicode hex="2321"/>
  <outline>
	<contour>
	  <point x="210" y="759" type="line"/>
	  <point x="217" y="343"/>
	  <point x="225" y="-110"/>
	  <point x="225" y="-110" type="curve"/>
	  <point x="225" y="-148"/>
	  <point x="194" y="-160"/>
	  <point x="156" y="-160" type="curve"/>
	  <point x="156" y="-221" type="line"/>
	  <point x="246" y="-221"/>
	  <point x="323" y="-205"/>
	  <point x="323" y="-122" type="curve" smooth="yes"/>
	  <point x="323" y="-51"/>
	  <point x="316" y="370"/>
	  <point x="310" y="759" type="curve"/>
	</contour>
  </outline>
</glyph>
<glyph name="lozenge" format="1">
  <advance width="521"/>
  <unicode hex="25CA"/>
  <outline>
	<contour>
	  <point x="421" y="302" type="line"/>
	  <point x="323" y="606" type="line"/>
	  <point x="191" y="606" type="line"/>
	  <point x="93" y="302" type="line"/>
	  <point x="191" y="-2" type="line"/>
	  <point x="323" y="-2" type="line"/>
	</contour>
	<contour>
	  <point x="309" y="302" type="line"/>
	  <point x="255" y="126" type="line"/>
	  <point x="252" y="126" type="line"/>
	  <point x="198" y="302" type="line"/>
	  <point x="252" y="478" type="line"/>
	  <point x="255" y="478" type="line"/>
	</contour>
  </outline>
</glyph>
<glyph name="combiningOne-deva" format="1">
  <advance width="0"/>
  <unicode hex="A8E1"/>
  <outline>
	<contour>
	  <point x="-154" y="836"/>
	  <point x="-179" y="822"/>
	  <point x="-179" y="797" type="curve" smooth="yes"/>
	  <point x="-179" y="770"/>
	  <point x="-150" y="756"/>
	  <point x="-113" y="756" type="curve" smooth="yes"/>
	  <point x="-104" y="756"/>
	  <point x="-100" y="757"/>
	  <point x="-95" y="758" type="curve"/>
	  <point x="-95" y="779" type="line"/>
	  <point x="-111" y="779" type="line" smooth="yes"/>
	  <point x="-123" y="779"/>
	  <point x="-129" y="784"/>
	  <point x="-129" y="793" type="curve" smooth="yes"/>
	  <point x="-129" y="800"/>
	  <point x="-125" y="804"/>
	  <point x="-117" y="804" type="curve" smooth="yes"/>
	  <point x="-109" y="804"/>
	  <point x="-103" y="800"/>
	  <point x="-103" y="788" type="curve" smooth="yes"/>
	  <point x="-103" y="758"/>
	  <point x="-136" y="740"/>
	  <point x="-171" y="737" type="curve"/>
	  <point x="-171" y="711" type="line"/>
	  <point x="-131" y="711" type="line"/>
	  <point x="-105" y="714"/>
	  <point x="-53" y="744"/>
	  <point x="-53" y="789" type="curve" smooth="yes"/>
	  <point x="-53" y="818"/>
	  <point x="-78" y="836"/>
	  <point x="-118" y="836" type="curve" smooth="yes"/>
	</contour>
	<contour>
	  <point x="-171" y="711" type="line"/>
	  <point x="-128" y="677" type="line" smooth="yes"/>
	  <point x="-119" y="670"/>
	  <point x="-116" y="664"/>
	  <point x="-116" y="653" type="curve" smooth="yes"/>
	  <point x="-116" y="651" type="line"/>
	  <point x="-69" y="651" type="line"/>
	  <point x="-67" y="658"/>
	  <point x="-66" y="663"/>
	  <point x="-66" y="668" type="curve" smooth="yes"/>
	  <point x="-66" y="677"/>
	  <point x="-72" y="685"/>
	  <point x="-95" y="704" type="curve" smooth="yes"/>
	  <point x="-135" y="737" type="line"/>
	</contour>
	<contour>
	  <point x="-109" y="606" type="move" name="_top"/>
	</contour>
  </outline>
</glyph>
<glyph name="combiningKa-deva" format="1">
  <advance width="0"/>
  <unicode hex="A8EC"/>
  <outline>
	<contour>
	  <point x="-78" y="776"/>
	  <point x="-87" y="773"/>
	  <point x="-97" y="769" type="curve"/>
	  <point x="-97" y="827" type="line"/>
	  <point x="-152" y="827" type="line"/>
	  <point x="-152" y="744" type="line"/>
	  <point x="-97" y="694" type="line"/>
	  <point x="-97" y="717" type="line" smooth="yes"/>
	  <point x="-97" y="731"/>
	  <point x="-91" y="739"/>
	  <point x="-79" y="739" type="curve" smooth="yes"/>
	  <point x="-68" y="739"/>
	  <point x="-61" y="733"/>
	  <point x="-61" y="719" type="curve" smooth="yes"/>
	  <point x="-61" y="707"/>
	  <point x="-68" y="701"/>
	  <point x="-80" y="701" type="curve" smooth="yes"/>
	  <point x="-81" y="701" type="line"/>
	  <point x="-81" y="664" type="line"/>
	  <point x="-77" y="663"/>
	  <point x="-69" y="662"/>
	  <point x="-62" y="662" type="curve" smooth="yes"/>
	  <point x="-29" y="662"/>
	  <point x="-5" y="681"/>
	  <point x="-5" y="720" type="curve" smooth="yes"/>
	  <point x="-5" y="758"/>
	  <point x="-29" y="776"/>
	  <point x="-64" y="776" type="curve" smooth="yes"/>
	</contour>
	<contour>
	  <point x="7" y="827" type="line"/>
	  <point x="-260" y="827" type="line"/>
	  <point x="-260" y="788" type="line"/>
	  <point x="7" y="788" type="line"/>
	</contour>
	<contour>
	  <point x="-156" y="739"/>
	  <point x="-149" y="733"/>
	  <point x="-149" y="719" type="curve" smooth="yes"/>
	  <point x="-149" y="705"/>
	  <point x="-156" y="699"/>
	  <point x="-169" y="699" type="curve" smooth="yes"/>
	  <point x="-181" y="699"/>
	  <point x="-188" y="705"/>
	  <point x="-188" y="719" type="curve" smooth="yes"/>
	  <point x="-188" y="733"/>
	  <point x="-181" y="739"/>
	  <point x="-169" y="739" type="curve" smooth="yes"/>
	</contour>
	<contour>
	  <point x="-223" y="776"/>
	  <point x="-244" y="755"/>
	  <point x="-244" y="719" type="curve" smooth="yes"/>
	  <point x="-244" y="682"/>
	  <point x="-221" y="662"/>
	  <point x="-186" y="662" type="curve" smooth="yes"/>
	  <point x="-173" y="662"/>
	  <point x="-161" y="665"/>
	  <point x="-152" y="669" type="curve"/>
	  <point x="-152" y="651" type="line"/>
	  <point x="-97" y="651" type="line"/>
	  <point x="-97" y="806" type="line"/>
	  <point x="-152" y="806" type="line"/>
	  <point x="-152" y="769" type="line"/>
	  <point x="-162" y="773"/>
	  <point x="-171" y="776"/>
	  <point x="-186" y="776" type="curve" smooth="yes"/>
	</contour>
	<contour>
	  <point x="-126" y="606" type="move" name="_top"/>
	</contour>
  </outline>
</glyph>
<glyph name="combiningRa-deva" format="1">
  <advance width="0"/>
  <unicode hex="A8EF"/>
  <outline>
	<contour>
	  <point x="-144" y="827" type="line"/>
	  <point x="-144" y="777" type="line" smooth="yes"/>
	  <point x="-144" y="765"/>
	  <point x="-150" y="760"/>
	  <point x="-159" y="760" type="curve" smooth="yes"/>
	  <point x="-192" y="760" type="line"/>
	  <point x="-192" y="729" type="line"/>
	  <point x="-149" y="716" type="line"/>
	  <point x="-110" y="716"/>
	  <point x="-90" y="739"/>
	  <point x="-90" y="782" type="curve" smooth="yes"/>
	  <point x="-90" y="827" type="line"/>
	</contour>
	<contour>
	  <point x="-61" y="827" type="line"/>
	  <point x="-214" y="827" type="line"/>
	  <point x="-214" y="788" type="line"/>
	  <point x="-61" y="788" type="line"/>
	</contour>
	<contour>
	  <point x="-157" y="750" type="line"/>
	  <point x="-192" y="729" type="line"/>
	  <point x="-135" y="651" type="line"/>
	  <point x="-79" y="651" type="line"/>
	</contour>
	<contour>
	  <point x="-137" y="606" type="move" name="_top"/>
	</contour>
  </outline>
</glyph>
<glyph name="combiningVi-deva" format="1">
  <advance width="0"/>
  <unicode hex="A8F0"/>
  <outline>
	<contour>
	  <point x="-285" y="890"/>
	  <point x="-304" y="857"/>
	  <point x="-304" y="836" type="curve" smooth="yes"/>
	  <point x="-304" y="651" type="line"/>
	  <point x="-250" y="651" type="line"/>
	  <point x="-250" y="827" type="line" smooth="yes"/>
	  <point x="-250" y="846"/>
	  <point x="-245" y="851"/>
	  <point x="-210" y="851" type="curve" smooth="yes"/>
	  <point x="-183" y="851"/>
	  <point x="-138" y="848"/>
	  <point x="-76" y="840" type="curve"/>
	  <point x="-76" y="876" type="line"/>
	  <point x="-131" y="884"/>
	  <point x="-187" y="890"/>
	  <point x="-216" y="890" type="curve" smooth="yes"/>
	</contour>
	<contour>
	  <point x="-336" y="827" type="line"/>
	  <point x="-336" y="788" type="line"/>
	  <point x="-45" y="788" type="line"/>
	  <point x="-45" y="827" type="line"/>
	</contour>
	<contour>
	  <point x="-135" y="739"/>
	  <point x="-128" y="733"/>
	  <point x="-128" y="719" type="curve" smooth="yes"/>
	  <point x="-128" y="705"/>
	  <point x="-135" y="699"/>
	  <point x="-148" y="699" type="curve" smooth="yes"/>
	  <point x="-160" y="699"/>
	  <point x="-167" y="705"/>
	  <point x="-167" y="719" type="curve" smooth="yes"/>
	  <point x="-167" y="733"/>
	  <point x="-160" y="739"/>
	  <point x="-148" y="739" type="curve" smooth="yes"/>
	</contour>
	<contour>
	  <point x="-202" y="776"/>
	  <point x="-223" y="755"/>
	  <point x="-223" y="719" type="curve" smooth="yes"/>
	  <point x="-223" y="682"/>
	  <point x="-200" y="662"/>
	  <point x="-165" y="662" type="curve" smooth="yes"/>
	  <point x="-152" y="662"/>
	  <point x="-140" y="665"/>
	  <point x="-131" y="669" type="curve"/>
	  <point x="-131" y="651" type="line"/>
	  <point x="-76" y="651" type="line"/>
	  <point x="-76" y="806" type="line"/>
	  <point x="-131" y="806" type="line"/>
	  <point x="-131" y="769" type="line"/>
	  <point x="-141" y="773"/>
	  <point x="-150" y="776"/>
	  <point x="-165" y="776" type="curve" smooth="yes"/>
	</contour>
	<contour>
	  <point x="-190" y="606" type="move" name="_top"/>
	</contour>
  </outline>
</glyph>
<glyph name="combiningAvagraha-deva" format="1">
  <advance width="0"/>
  <unicode hex="A8F1"/>
  <outline>
	<contour>
	  <point x="-55" y="827" type="line"/>
	  <point x="-135" y="827" type="line" smooth="yes"/>
	  <point x="-174" y="827"/>
	  <point x="-196" y="810"/>
	  <point x="-196" y="781" type="curve" smooth="yes"/>
	  <point x="-196" y="751"/>
	  <point x="-172" y="738"/>
	  <point x="-145" y="725" type="curve" smooth="yes"/>
	  <point x="-126" y="716"/>
	  <point x="-113" y="708"/>
	  <point x="-113" y="696" type="curve" smooth="yes"/>
	  <point x="-113" y="688"/>
	  <point x="-118" y="683"/>
	  <point x="-126" y="683" type="curve" smooth="yes"/>
	  <point x="-130" y="683"/>
	  <point x="-141" y="684"/>
	  <point x="-141" y="695" type="curve"/>
	  <point x="-141" y="699" type="line"/>
	  <point x="-195" y="699" type="line"/>
	  <point x="-196" y="696"/>
	  <point x="-197" y="692"/>
	  <point x="-197" y="688" type="curve" smooth="yes"/>
	  <point x="-197" y="662"/>
	  <point x="-166" y="648"/>
	  <point x="-129" y="648" type="curve" smooth="yes"/>
	  <point x="-91" y="648"/>
	  <point x="-58" y="663"/>
	  <point x="-58" y="698" type="curve" smooth="yes"/>
	  <point x="-58" y="732"/>
	  <point x="-89" y="747"/>
	  <point x="-114" y="758" type="curve" smooth="yes"/>
	  <point x="-130" y="765"/>
	  <point x="-141" y="771"/>
	  <point x="-141" y="779" type="curve" smooth="yes"/>
	  <point x="-141" y="785"/>
	  <point x="-136" y="788"/>
	  <point x="-126" y="788" type="curve" smooth="yes"/>
	  <point x="-55" y="788" type="line"/>
	</contour>
	<contour>
	  <point x="-126" y="606" type="move" name="_top"/>
	</contour>
  </outline>
</glyph>
<glyph name="candraBinduThree-deva" format="1">
  <advance width="400"/>
  <unicode hex="A8F6"/>
  <outline>
	<contour>
	  <point x="114" y="384"/>
	  <point x="60" y="348"/>
	  <point x="60" y="294" type="curve" smooth="yes"/>
	  <point x="60" y="268" type="line"/>
	  <point x="162" y="268" type="line"/>
	  <point x="162" y="278" type="line" smooth="yes"/>
	  <point x="162" y="296"/>
	  <point x="171" y="304"/>
	  <point x="193" y="304" type="curve" smooth="yes"/>
	  <point x="214" y="304"/>
	  <point x="224" y="296"/>
	  <point x="224" y="277" type="curve" smooth="yes"/>
	  <point x="224" y="261"/>
	  <point x="217" y="252"/>
	  <point x="196" y="252" type="curve" smooth="yes"/>
	  <point x="175" y="252" type="line"/>
	  <point x="175" y="180" type="line"/>
	  <point x="195" y="180" type="line" smooth="yes"/>
	  <point x="223" y="180"/>
	  <point x="234" y="173"/>
	  <point x="234" y="154" type="curve" smooth="yes"/>
	  <point x="234" y="133"/>
	  <point x="221" y="125"/>
	  <point x="192" y="125" type="curve" smooth="yes"/>
	  <point x="163" y="125"/>
	  <point x="153" y="133"/>
	  <point x="153" y="154" type="curve" smooth="yes"/>
	  <point x="153" y="166" type="line"/>
	  <point x="97" y="166" type="line"/>
	  <point x="97" y="156" type="line" smooth="yes"/>
	  <point x="97" y="89"/>
	  <point x="135" y="46"/>
	  <point x="215" y="46" type="curve" smooth="yes"/>
	  <point x="290" y="46"/>
	  <point x="345" y="83"/>
	  <point x="345" y="142" type="curve" smooth="yes"/>
	  <point x="345" y="184"/>
	  <point x="318" y="211"/>
	  <point x="278" y="217" type="curve"/>
	  <point x="278" y="221" type="line"/>
	  <point x="318" y="229"/>
	  <point x="336" y="258"/>
	  <point x="336" y="293" type="curve" smooth="yes"/>
	  <point x="336" y="353"/>
	  <point x="282" y="384"/>
	  <point x="201" y="384" type="curve" smooth="yes"/>
	</contour>
	<contour>
	  <point x="60" y="166" type="line"/>
	  <point x="60" y="0" type="line"/>
	  <point x="153" y="0" type="line"/>
	  <point x="153" y="166" type="line"/>
	</contour>
	<component base="candraBindu-deva" xOffset="327" yOffset="-221"/>
  </outline>
</glyph>
<glyph name="pushpika-deva" format="1">
  <advance width="638"/>
  <unicode hex="A8F8"/>
  <outline>
	<contour>
	  <point x="194" y="501" type="line" smooth="yes"/>
	  <point x="108" y="501"/>
	  <point x="43" y="465"/>
	  <point x="43" y="388" type="curve" smooth="yes"/>
	  <point x="43" y="313"/>
	  <point x="106" y="272"/>
	  <point x="204" y="267" type="curve"/>
	  <point x="245" y="342" type="line"/>
	  <point x="224" y="342" type="line" smooth="yes"/>
	  <point x="194" y="342"/>
	  <point x="151" y="343"/>
	  <point x="151" y="375" type="curve" smooth="yes"/>
	  <point x="151" y="397"/>
	  <point x="171" y="408"/>
	  <point x="191" y="408" type="curve" smooth="yes"/>
	  <point x="272" y="408" type="line"/>
	  <point x="272" y="501" type="line"/>
	</contour>
	<contour>
	  <point x="374" y="501"/>
	  <point x="327" y="454"/>
	  <point x="327" y="391" type="curve" smooth="yes"/>
	  <point x="327" y="376"/>
	  <point x="330" y="364"/>
	  <point x="331" y="359" type="curve"/>
	  <point x="421" y="359" type="line"/>
	  <point x="421" y="381" type="line" smooth="yes"/>
	  <point x="421" y="410"/>
	  <point x="435" y="424"/>
	  <point x="454" y="424" type="curve" smooth="yes"/>
	  <point x="486" y="424"/>
	  <point x="494" y="398"/>
	  <point x="494" y="345" type="curve" smooth="yes"/>
	  <point x="494" y="321" type="line" smooth="yes"/>
	  <point x="494" y="239"/>
	  <point x="436" y="129"/>
	  <point x="307" y="129" type="curve" smooth="yes"/>
	  <point x="232" y="129"/>
	  <point x="174" y="150"/>
	  <point x="174" y="204" type="curve" smooth="yes"/>
	  <point x="174" y="244"/>
	  <point x="204" y="263"/>
	  <point x="260" y="263" type="curve" smooth="yes"/>
	  <point x="272" y="263" type="line"/>
	  <point x="272" y="342" type="line"/>
	  <point x="257" y="342" type="line" smooth="yes"/>
	  <point x="142" y="342"/>
	  <point x="65" y="289"/>
	  <point x="65" y="196" type="curve" smooth="yes"/>
	  <point x="65" y="95"/>
	  <point x="162" y="42"/>
	  <point x="296" y="42" type="curve" smooth="yes"/>
	  <point x="498" y="42"/>
	  <point x="595" y="180"/>
	  <point x="595" y="334" type="curve" smooth="yes"/>
	  <point x="595" y="454"/>
	  <point x="541" y="501"/>
	  <point x="455" y="501" type="curve" smooth="yes"/>
	</contour>
  </outline>
</glyph>
<glyph name="caret-deva" format="1">
  <advance width="219"/>
  <unicode hex="A8FA"/>
  <outline>
	<contour>
	  <point x="109" y="669" type="line"/>
	  <point x="54" y="827" type="line"/>
	  <point x="-30" y="827" type="line"/>
	  <point x="80" y="553" type="line"/>
	  <point x="139" y="553" type="line"/>
	  <point x="249" y="827" type="line"/>
	  <point x="165" y="827" type="line"/>
	</contour>
  </outline>
</glyph>
<glyph name="aiMatra_candraBindu-deva" format="1">
  <advance width="0"/>
  <outline>
	<contour>
	  <point x="-307" y="821" type="line"/>
	  <point x="-414" y="821" type="line"/>
	  <point x="-293" y="606" type="line"/>
	  <point x="-195" y="606" type="line"/>
	</contour>
	<contour>
	  <point x="-70" y="606" type="line"/>
	  <point x="-302" y="606" type="line"/>
	  <point x="-302" y="513" type="line"/>
	  <point x="-70" y="513" type="line"/>
	</contour>
	<contour>
	  <point x="56" y="793" type="line"/>
	  <point x="56" y="726"/>
	  <point x="29" y="698"/>
	  <point x="-35" y="698" type="curve" smooth="yes"/>
	  <point x="-80" y="698"/>
	  <point x="-109" y="711"/>
	  <point x="-118" y="745" type="curve" smooth="yes"/>
	  <point x="-139" y="821" type="line"/>
	  <point x="-246" y="821" type="line"/>
	  <point x="-178" y="606" type="line"/>
	  <point x="-80" y="606" type="line"/>
	  <point x="-102" y="686" type="line"/>
	  <point x="-116" y="649" type="line"/>
	  <point x="-93" y="639"/>
	  <point x="-66" y="634"/>
	  <point x="-35" y="634" type="curve" smooth="yes"/>
	  <point x="75" y="634"/>
	  <point x="136" y="699"/>
	  <point x="136" y="793" type="curve"/>
	</contour>
	<component base="anusvara-deva" xOffset="90" yOffset="85"/>
	<contour>
	  <point x="-121" y="606" type="move" name="_top"/>
	</contour>
  </outline>
</glyph>
<glyph name="b_ra-deva.rkrf" format="1">
  <advance width="466"/>
  <outline>
	<contour>
	  <point x="248" y="184" type="line"/>
	  <point x="282" y="215" type="line"/>
	  <point x="164" y="431" type="line"/>
	  <point x="133" y="395" type="line"/>
	</contour>
	<component base="v_ra-deva.rkrf"/>
	<contour>
	  <point x="337" y="606" type="move" name="top"/>
	</contour>
	<contour>
	  <point x="337" y="0" type="move" name="bottom"/>
	</contour>
  </outline>
</glyph>
<glyph name="braceleft-deva" format="1">
  <advance width="303"/>
  <outline>
	<contour>
	  <point x="263" y="770" type="line"/>
	  <point x="172" y="770"/>
	  <point x="89" y="750"/>
	  <point x="89" y="639" type="curve" smooth="yes"/>
	  <point x="89" y="408" type="line" smooth="yes"/>
	  <point x="89" y="369"/>
	  <point x="53" y="355"/>
	  <point x="21" y="355" type="curve"/>
	  <point x="21" y="274" type="line"/>
	  <point x="53" y="274"/>
	  <point x="89" y="261"/>
	  <point x="89" y="221" type="curve" smooth="yes"/>
	  <point x="89" y="-10" type="line" smooth="yes"/>
	  <point x="89" y="-121"/>
	  <point x="172" y="-141"/>
	  <point x="263" y="-141" type="curve"/>
	  <point x="263" y="-72" type="line"/>
	  <point x="232" y="-72"/>
	  <point x="194" y="-64"/>
	  <point x="194" y="-19" type="curve" smooth="yes"/>
	  <point x="194" y="60"/>
	  <point x="189" y="134"/>
	  <point x="187" y="215" type="curve" smooth="yes"/>
	  <point x="185" y="275"/>
	  <point x="161" y="310"/>
	  <point x="92" y="310" type="curve"/>
	  <point x="92" y="319" type="line"/>
	  <point x="161" y="319"/>
	  <point x="186" y="354"/>
	  <point x="187" y="414" type="curve" smooth="yes"/>
	  <point x="189" y="495"/>
	  <point x="194" y="569"/>
	  <point x="194" y="648" type="curve" smooth="yes"/>
	  <point x="194" y="693"/>
	  <point x="232" y="702"/>
	  <point x="263" y="702" type="curve"/>
	</contour>
  </outline>
</glyph>
<glyph name="bracketleft-deva" format="1">
  <advance width="259"/>
  <outline>
	<contour>
	  <point x="219" y="686" type="line"/>
	  <point x="219" y="770" type="line"/>
	  <point x="43" y="770" type="line"/>
	  <point x="43" y="-142" type="line"/>
	  <point x="219" y="-142" type="line"/>
	  <point x="219" y="-58" type="line"/>
	  <point x="146" y="-58" type="line"/>
	  <point x="146" y="686" type="line"/>
	</contour>
  </outline>
</glyph>
<glyph name="c-deva" format="1">
  <advance width="256"/>
  <outline>
	<contour>
	  <point x="273" y="428" type="line"/>
	  <point x="4" y="428" type="line"/>
	  <point x="4" y="334" type="line"/>
	  <point x="273" y="334" type="line"/>
	</contour>
	<contour>
	  <point x="332" y="606" type="line"/>
	  <point x="-10" y="606" type="line"/>
	  <point x="-10" y="513" type="line"/>
	  <point x="332" y="513" type="line"/>
	</contour>
	<contour>
	  <point x="229" y="395" type="line"/>
	  <point x="139" y="395"/>
	  <point x="80" y="353"/>
	  <point x="80" y="241" type="curve" smooth="yes"/>
	  <point x="80" y="129"/>
	  <point x="143" y="73"/>
	  <point x="239" y="73" type="curve" smooth="yes"/>
	  <point x="298" y="73"/>
	  <point x="347" y="100"/>
	  <point x="376" y="145" type="curve"/>
	  <point x="347" y="254" type="line"/>
	  <point x="326" y="194"/>
	  <point x="313" y="170"/>
	  <point x="263" y="170" type="curve" smooth="yes"/>
	  <point x="210" y="170"/>
	  <point x="191" y="198"/>
	  <point x="191" y="248" type="curve" smooth="yes"/>
	  <point x="191" y="267" type="line" smooth="yes"/>
	  <point x="191" y="310"/>
	  <point x="210" y="334"/>
	  <point x="262" y="334" type="curve"/>
	</contour>
  </outline>
</glyph>
<glyph name="c_ca-deva" format="1">
  <advance width="770"/>
  <outline>
	<contour>
	  <point x="265" y="428" type="line"/>
	  <point x="4" y="428" type="line"/>
	  <point x="4" y="334" type="line"/>
	  <point x="265" y="334" type="line"/>
	</contour>
	<contour>
	  <point x="529" y="428" type="line"/>
	  <point x="310" y="428" type="line"/>
	  <point x="310" y="334" type="line"/>
	  <point x="529" y="334" type="line"/>
	</contour>
	<contour>
	  <point x="606" y="606" type="line"/>
	  <point x="-10" y="606" type="line"/>
	  <point x="-10" y="513" type="line"/>
	  <point x="606" y="513" type="line"/>
	</contour>
	<contour>
	  <point x="485" y="395" type="line"/>
	  <point x="395" y="395"/>
	  <point x="336" y="351"/>
	  <point x="336" y="245" type="curve" smooth="yes"/>
	  <point x="336" y="127"/>
	  <point x="395" y="73"/>
	  <point x="485" y="73" type="curve" smooth="yes"/>
	  <point x="529" y="73"/>
	  <point x="564" y="88"/>
	  <point x="584" y="101" type="curve"/>
	  <point x="588" y="101" type="line"/>
	  <point x="588" y="88" type="line"/>
	  <point x="694" y="88" type="line"/>
	  <point x="694" y="261" type="line"/>
	  <point x="588" y="261" type="line"/>
	  <point x="588" y="248" type="line" smooth="yes"/>
	  <point x="588" y="198"/>
	  <point x="569" y="170"/>
	  <point x="518" y="170" type="curve" smooth="yes"/>
	  <point x="466" y="170"/>
	  <point x="447" y="198"/>
	  <point x="447" y="248" type="curve" smooth="yes"/>
	  <point x="447" y="267" type="line" smooth="yes"/>
	  <point x="447" y="310"/>
	  <point x="466" y="334"/>
	  <point x="518" y="334" type="curve"/>
	</contour>
	<contour>
	  <point x="229" y="395" type="line"/>
	  <point x="139" y="395"/>
	  <point x="80" y="351"/>
	  <point x="80" y="245" type="curve" smooth="yes"/>
	  <point x="80" y="127"/>
	  <point x="145" y="73"/>
	  <point x="245" y="73" type="curve" smooth="yes"/>
	  <point x="325" y="73"/>
	  <point x="376" y="114"/>
	  <point x="376" y="119" type="curve"/>
	  <point x="384" y="119" type="line"/>
	  <point x="384" y="245" type="line"/>
	  <point x="336" y="245" type="line"/>
	  <point x="336" y="238" type="line" smooth="yes"/>
	  <point x="336" y="198"/>
	  <point x="317" y="170"/>
	  <point x="265" y="170" type="curve" smooth="yes"/>
	  <point x="210" y="170"/>
	  <point x="191" y="198"/>
	  <point x="191" y="248" type="curve" smooth="yes"/>
	  <point x="191" y="267" type="line" smooth="yes"/>
	  <point x="191" y="310"/>
	  <point x="210" y="334"/>
	  <point x="262" y="334" type="curve"/>
	</contour>
	<component base="aaMatra-deva" xOffset="512"/>
	<contour>
	  <point x="641" y="606" type="move" name="top"/>
	</contour>
	<contour>
	  <point x="641" y="0" type="move" name="bottom"/>
	</contour>
  </outline>
</glyph>
<glyph name="c_ch_va-deva" format="1">
  <advance width="861"/>
  <outline>
	<contour>
	  <point x="140" y="378"/>
	  <point x="80" y="339"/>
	  <point x="80" y="241" type="curve" smooth="yes"/>
	  <point x="80" y="135"/>
	  <point x="149" y="86"/>
	  <point x="249" y="86" type="curve" smooth="yes"/>
	  <point x="335" y="86"/>
	  <point x="381" y="122"/>
	  <point x="397" y="172" type="curve"/>
	  <point x="325" y="277" type="line"/>
	  <point x="325" y="231"/>
	  <point x="314" y="183"/>
	  <point x="252" y="183" type="curve" smooth="yes"/>
	  <point x="208" y="183"/>
	  <point x="184" y="207"/>
	  <point x="184" y="247" type="curve" smooth="yes"/>
	  <point x="184" y="262" type="line" smooth="yes"/>
	  <point x="184" y="297"/>
	  <point x="203" y="317"/>
	  <point x="262" y="317" type="curve"/>
	  <point x="229" y="378" type="line"/>
	</contour>
	<contour>
	  <point x="4" y="411" type="line"/>
	  <point x="4" y="317" type="line"/>
	  <point x="273" y="317" type="line"/>
	  <point x="273" y="411" type="line"/>
	</contour>
	<contour>
	  <point x="-10" y="606" type="line"/>
	  <point x="-10" y="513" type="line"/>
	  <point x="332" y="513" type="line"/>
	  <point x="332" y="606" type="line"/>
	</contour>
	<component base="ch_va-deva" xOffset="256"/>
	<contour>
	  <point x="690" y="606" type="move" name="top"/>
	</contour>
	<contour>
	  <point x="666" y="-186" type="move" name="bottom"/>
	</contour>
  </outline>
</glyph>
<glyph name="c_r-deva.rkrf.half" format="1">
  <advance width="256"/>
  <outline>
	<contour>
	  <point x="196" y="166" type="line"/>
	  <point x="40" y="92" type="line"/>
	  <point x="40" y="-10" type="line"/>
	  <point x="317" y="137" type="line"/>
	</contour>
	<contour>
	  <point x="273" y="444" type="line"/>
	  <point x="4" y="444" type="line"/>
	  <point x="4" y="350" type="line"/>
	  <point x="273" y="350" type="line"/>
	</contour>
	<contour>
	  <point x="332" y="606" type="line"/>
	  <point x="-10" y="606" type="line"/>
	  <point x="-10" y="513" type="line"/>
	  <point x="332" y="513" type="line"/>
	</contour>
	<contour>
	  <point x="229" y="411" type="line"/>
	  <point x="139" y="411"/>
	  <point x="80" y="369"/>
	  <point x="80" y="272" type="curve" smooth="yes"/>
	  <point x="80" y="174"/>
	  <point x="140" y="119"/>
	  <point x="235" y="119" type="curve" smooth="yes"/>
	  <point x="306" y="119"/>
	  <point x="349" y="150"/>
	  <point x="376" y="191" type="curve"/>
	  <point x="347" y="300" type="line"/>
	  <point x="325" y="237"/>
	  <point x="312" y="216"/>
	  <point x="262" y="216" type="curve" smooth="yes"/>
	  <point x="210" y="216"/>
	  <point x="191" y="238"/>
	  <point x="191" y="274" type="curve" smooth="yes"/>
	  <point x="191" y="283" type="line" smooth="yes"/>
	  <point x="191" y="326"/>
	  <point x="210" y="350"/>
	  <point x="262" y="350" type="curve"/>
	</contour>
  </outline>
</glyph>
<glyph name="candraBindu-deva.alt" format="1">
  <advance width="0"/>
  <outline>
	<contour>
	  <point x="104" y="706" type="line"/>
	  <point x="104" y="674"/>
	  <point x="94" y="662"/>
	  <point x="51" y="662" type="curve" smooth="yes"/>
	  <point x="10" y="662"/>
	  <point x="-3" y="674"/>
	  <point x="-3" y="706" type="curve"/>
	  <point x="-59" y="706" type="line"/>
	  <point x="-59" y="653"/>
	  <point x="-28" y="618"/>
	  <point x="51" y="618" type="curve" smooth="yes"/>
	  <point x="133" y="618"/>
	  <point x="160" y="653"/>
	  <point x="160" y="706" type="curve"/>
	</contour>
	<component base="anusvara-deva" xOffset="155" yOffset="155" xScale="0.8" yScale="0.8"/>
	<contour>
	  <point x="39" y="734" type="move" name="_candraBindu"/>
	</contour>
  </outline>
</glyph>
<glyph name="ch-deva" format="1">
  <advance width="625"/>
  <outline>
	<contour>
	  <point x="-10" y="606" type="line"/>
	  <point x="-10" y="513" type="line"/>
	  <point x="635" y="513" type="line"/>
	  <point x="635" y="606" type="line"/>
	</contour>
	<contour>
	  <point x="411" y="320" type="line"/>
	  <point x="411" y="342" type="line" smooth="yes"/>
	  <point x="411" y="364"/>
	  <point x="425" y="375"/>
	  <point x="449" y="375" type="curve" smooth="yes"/>
	  <point x="484" y="375"/>
	  <point x="494" y="355"/>
	  <point x="494" y="316" type="curve" smooth="yes"/>
	  <point x="494" y="292" type="line" smooth="yes"/>
	  <point x="494" y="222"/>
	  <point x="440" y="129"/>
	  <point x="297" y="129" type="curve" smooth="yes"/>
	  <point x="216" y="129"/>
	  <point x="171" y="163"/>
	  <point x="171" y="220" type="curve" smooth="yes"/>
	  <point x="171" y="256"/>
	  <point x="190" y="275"/>
	  <point x="219" y="275" type="curve" smooth="yes"/>
	  <point x="249" y="275" type="line"/>
	  <point x="249" y="362" type="line"/>
	  <point x="218" y="362" type="line" smooth="yes"/>
	  <point x="189" y="362"/>
	  <point x="171" y="390"/>
	  <point x="171" y="442" type="curve" smooth="yes"/>
	  <point x="171" y="477"/>
	  <point x="179" y="513"/>
	  <point x="214" y="513" type="curve"/>
	  <point x="212" y="570" type="line"/>
	  <point x="116" y="570"/>
	  <point x="60" y="520"/>
	  <point x="60" y="443" type="curve" smooth="yes"/>
	  <point x="60" y="381"/>
	  <point x="96" y="339"/>
	  <point x="136" y="323" type="curve"/>
	  <point x="95" y="308"/>
	  <point x="60" y="262"/>
	  <point x="60" y="206" type="curve" smooth="yes"/>
	  <point x="60" y="111"/>
	  <point x="157" y="42"/>
	  <point x="296" y="42" type="curve" smooth="yes"/>
	  <point x="481" y="42"/>
	  <point x="595" y="160"/>
	  <point x="595" y="302" type="curve" smooth="yes"/>
	  <point x="595" y="408"/>
	  <point x="537" y="452"/>
	  <point x="450" y="452" type="curve" smooth="yes"/>
	  <point x="364" y="452"/>
	  <point x="317" y="409"/>
	  <point x="317" y="352" type="curve" smooth="yes"/>
	  <point x="317" y="337"/>
	  <point x="320" y="325"/>
	  <point x="321" y="320" type="curve"/>
	</contour>
  </outline>
</glyph>
<glyph name="ch_ya-deva" format="1">
  <advance width="1082"/>
  <outline>
	<contour>
	  <point x="559" y="606" type="line"/>
	  <point x="559" y="513" type="line"/>
	  <point x="988" y="513" type="line"/>
	  <point x="988" y="606" type="line"/>
	</contour>
	<contour>
	  <point x="970" y="239" type="line"/>
	  <point x="970" y="174"/>
	  <point x="943" y="129"/>
	  <point x="869" y="129" type="curve" smooth="yes"/>
	  <point x="784" y="129"/>
	  <point x="771" y="188"/>
	  <point x="764" y="245" type="curve"/>
	  <point x="738" y="198" type="line"/>
	  <point x="805" y="231"/>
	  <point x="849" y="282"/>
	  <point x="849" y="348" type="curve" smooth="yes"/>
	  <point x="849" y="416"/>
	  <point x="801" y="452"/>
	  <point x="708" y="452" type="curve" smooth="yes"/>
	  <point x="453" y="452" type="line"/>
	  <point x="520" y="359" type="line"/>
	  <point x="698" y="359" type="line" smooth="yes"/>
	  <point x="728" y="359"/>
	  <point x="741" y="350"/>
	  <point x="741" y="331" type="curve" smooth="yes"/>
	  <point x="741" y="298"/>
	  <point x="703" y="268"/>
	  <point x="657" y="253" type="curve"/>
	  <point x="657" y="114"/>
	  <point x="731" y="42"/>
	  <point x="854" y="42" type="curve" smooth="yes"/>
	  <point x="904" y="42"/>
	  <point x="945" y="54"/>
	  <point x="971" y="79" type="curve"/>
	  <point x="971" y="52" type="line"/>
	  <point x="1043" y="52" type="line"/>
	  <point x="1043" y="285" type="line"/>
	</contour>
	<component base="ch-deva"/>
	<component base="aaMatra-deva" xOffset="894"/>
	<contour>
	  <point x="1023" y="606" type="move" name="top"/>
	</contour>
	<contour>
	  <point x="1023" y="0" type="move" name="bottom"/>
	</contour>
  </outline>
</glyph>
<glyph name="d_b_ra-deva.rkrf" format="1">
  <advance width="444"/>
  <outline>
	<contour>
	  <point x="307" y="49" type="line"/>
	  <point x="188" y="171" type="line"/>
	  <point x="152" y="149" type="line"/>
	  <point x="278" y="21" type="line"/>
	</contour>
	<component base="d_v_ra-deva.rkrf"/>
	<contour>
	  <point x="300" y="606" type="move" name="top"/>
	</contour>
	<contour>
	  <point x="369" y="-78" type="move" name="bottom"/>
	</contour>
  </outline>
</glyph>
<glyph name="d_ba-deva" format="1">
  <advance width="444"/>
  <outline>
	<contour>
	  <point x="307" y="49" type="line"/>
	  <point x="188" y="171" type="line"/>
	  <point x="152" y="149" type="line"/>
	  <point x="278" y="21" type="line"/>
	</contour>
	<component base="d_va-deva"/>
	<contour>
	  <point x="320" y="606" type="move" name="top"/>
	</contour>
	<contour>
	  <point x="364" y="-37" type="move" name="bottom"/>
	</contour>
  </outline>
</glyph>
<glyph name="d_dha-deva" format="1">
  <advance width="601"/>
  <outline>
	<contour>
	  <point x="396" y="434" type="line" smooth="yes"/>
	  <point x="269" y="434"/>
	  <point x="189" y="380"/>
	  <point x="189" y="267" type="curve" smooth="yes"/>
	  <point x="189" y="163"/>
	  <point x="257" y="109"/>
	  <point x="347" y="109" type="curve" smooth="yes"/>
	  <point x="411" y="109"/>
	  <point x="455" y="136"/>
	  <point x="474" y="154" type="curve"/>
	  <point x="446" y="247" type="line"/>
	  <point x="430" y="218"/>
	  <point x="408" y="196"/>
	  <point x="370" y="196" type="curve" smooth="yes"/>
	  <point x="329" y="196"/>
	  <point x="298" y="222"/>
	  <point x="298" y="267" type="curve" smooth="yes"/>
	  <point x="298" y="318"/>
	  <point x="338" y="340"/>
	  <point x="395" y="340" type="curve" smooth="yes"/>
	  <point x="471" y="340" type="line"/>
	  <point x="471" y="434" type="line"/>
	</contour>
	<contour>
	  <point x="283" y="154" type="line"/>
	  <point x="283" y="136" type="line" smooth="yes"/>
	  <point x="283" y="48"/>
	  <point x="228" y="32"/>
	  <point x="184" y="32" type="curve" smooth="yes"/>
	  <point x="145" y="32"/>
	  <point x="122" y="45"/>
	  <point x="122" y="69" type="curve" smooth="yes"/>
	  <point x="122" y="87"/>
	  <point x="135" y="104"/>
	  <point x="159" y="104" type="curve" smooth="yes"/>
	  <point x="186" y="104" type="line"/>
	  <point x="186" y="150" type="line"/>
	  <point x="159" y="150" type="line" smooth="yes"/>
	  <point x="77" y="150"/>
	  <point x="30" y="110"/>
	  <point x="30" y="56" type="curve" smooth="yes"/>
	  <point x="30" y="-11"/>
	  <point x="103" y="-44"/>
	  <point x="183" y="-44" type="curve" smooth="yes"/>
	  <point x="274" y="-44"/>
	  <point x="371" y="-1"/>
	  <point x="371" y="126" type="curve" smooth="yes"/>
	  <point x="371" y="154" type="line"/>
	</contour>
	<contour>
	  <point x="48" y="321"/>
	  <point x="-2" y="277"/>
	  <point x="-2" y="218" type="curve" smooth="yes"/>
	  <point x="-2" y="176"/>
	  <point x="24" y="116"/>
	  <point x="130" y="116" type="curve" smooth="yes"/>
	  <point x="186" y="116" type="line"/>
	  <point x="186" y="180" type="line"/>
	  <point x="130" y="180" type="line" smooth="yes"/>
	  <point x="94" y="180"/>
	  <point x="90" y="202"/>
	  <point x="90" y="215" type="curve" smooth="yes"/>
	  <point x="90" y="235"/>
	  <point x="100" y="246"/>
	  <point x="129" y="246" type="curve" smooth="yes"/>
	  <point x="141" y="246" type="line"/>
	  <point x="141" y="319" type="line"/>
	  <point x="137" y="320"/>
	  <point x="127" y="321"/>
	  <point x="121" y="321" type="curve" smooth="yes"/>
	</contour>
	<contour>
	  <point x="424" y="249" type="line"/>
	  <point x="437" y="194" type="line"/>
	  <point x="452" y="169" type="line"/>
	  <point x="483" y="40" type="line"/>
	  <point x="580" y="40" type="line"/>
	  <point x="530" y="249" type="line"/>
	</contour>
	<contour>
	  <point x="-10" y="606" type="line"/>
	  <point x="-10" y="513" type="line"/>
	  <point x="611" y="513" type="line"/>
	  <point x="611" y="606" type="line"/>
	</contour>
	<contour>
	  <point x="424" y="606" type="line"/>
	  <point x="424" y="340" type="line"/>
	  <point x="530" y="340" type="line"/>
	  <point x="530" y="606" type="line"/>
	</contour>
	<contour>
	  <point x="477" y="606" type="move" name="top"/>
	</contour>
	<contour>
	  <point x="532" y="40" type="move" name="bottom"/>
	</contour>
  </outline>
</glyph>
<glyph name="d_g_ra-deva.rkrf" format="1">
  <advance width="446"/>
  <outline>
	<contour>
	  <point x="302" y="150" type="line"/>
	  <point x="360" y="-90" type="line"/>
	  <point x="457" y="-90" type="line"/>
	  <point x="400" y="147" type="line"/>
	</contour>
	<contour>
	  <point x="260" y="-7" type="line"/>
	  <point x="260" y="-100" type="line"/>
	  <point x="389" y="-16" type="line"/>
	  <point x="369" y="54" type="line"/>
	</contour>
	<component base="d_ga-deva"/>
	<contour>
	  <point x="322" y="606" type="move" name="top"/>
	</contour>
	<contour>
	  <point x="409" y="-90" type="move" name="bottom"/>
	</contour>
  </outline>
</glyph>
<glyph name="d_ga-deva.ss02" format="1">
  <advance width="454"/>
  <outline>
	<contour>
	  <point x="218" y="168" type="line"/>
	  <point x="183" y="48" type="line"/>
	  <point x="183" y="22" type="line"/>
	  <point x="174" y="-20"/>
	  <point x="172" y="-38"/>
	  <point x="150" y="-38" type="curve" smooth="yes"/>
	  <point x="133" y="-38"/>
	  <point x="126" y="-27"/>
	  <point x="126" y="-10" type="curve" smooth="yes"/>
	  <point x="126" y="11"/>
	  <point x="136" y="20"/>
	  <point x="156" y="20" type="curve" smooth="yes"/>
	  <point x="175" y="20"/>
	  <point x="189" y="12"/>
	  <point x="216" y="-9" type="curve"/>
	  <point x="236" y="53" type="line"/>
	  <point x="211" y="71"/>
	  <point x="178" y="85"/>
	  <point x="144" y="85" type="curve" smooth="yes"/>
	  <point x="90" y="85"/>
	  <point x="50" y="49"/>
	  <point x="50" y="-10" type="curve" smooth="yes"/>
	  <point x="50" y="-65"/>
	  <point x="86" y="-103"/>
	  <point x="152" y="-103" type="curve" smooth="yes"/>
	  <point x="214" y="-103"/>
	  <point x="241" y="-70"/>
	  <point x="256" y="-11" type="curve" smooth="yes"/>
	  <point x="318" y="199" type="line"/>
	</contour>
	<contour>
	  <point x="277" y="606" type="line"/>
	  <point x="277" y="340" type="line"/>
	  <point x="383" y="340" type="line"/>
	  <point x="383" y="606" type="line"/>
	</contour>
	<contour>
	  <point x="-10" y="606" type="line"/>
	  <point x="-10" y="513" type="line"/>
	  <point x="464" y="513" type="line"/>
	  <point x="464" y="606" type="line"/>
	</contour>
	<contour>
	  <point x="239" y="434" type="line" smooth="yes"/>
	  <point x="113" y="434"/>
	  <point x="32" y="380"/>
	  <point x="32" y="268" type="curve" smooth="yes"/>
	  <point x="32" y="163"/>
	  <point x="102" y="109"/>
	  <point x="186" y="109" type="curve" smooth="yes"/>
	  <point x="258" y="109"/>
	  <point x="297" y="148"/>
	  <point x="317" y="174" type="curve"/>
	  <point x="289" y="247" type="line"/>
	  <point x="273" y="218"/>
	  <point x="251" y="196"/>
	  <point x="213" y="196" type="curve" smooth="yes"/>
	  <point x="172" y="196"/>
	  <point x="141" y="222"/>
	  <point x="141" y="267" type="curve" smooth="yes"/>
	  <point x="141" y="318"/>
	  <point x="181" y="340"/>
	  <point x="238" y="340" type="curve" smooth="yes"/>
	  <point x="324" y="340" type="line"/>
	  <point x="324" y="434" type="line"/>
	</contour>
	<contour>
	  <point x="267" y="249" type="line"/>
	  <point x="317" y="40" type="line"/>
	  <point x="423" y="40" type="line"/>
	  <point x="373" y="249" type="line"/>
	</contour>
	<contour>
	  <point x="330" y="606" type="move" name="top"/>
	</contour>
	<contour>
	  <point x="231" y="0" type="move" name="bottom"/>
	</contour>
  </outline>
</glyph>
<glyph name="d_gh_r_ya-deva" format="1">
  <advance width="1078"/>
  <outline>
	<contour>
	  <point x="432" y="210" type="line"/>
	  <point x="490" y="-30" type="line"/>
	  <point x="587" y="-30" type="line"/>
	  <point x="530" y="207" type="line"/>
	</contour>
	<contour>
	  <point x="376" y="53" type="line"/>
	  <point x="376" y="-40" type="line"/>
	  <point x="505" y="44" type="line"/>
	  <point x="485" y="114" type="line"/>
	</contour>
	<component base="d_gh_ya-deva"/>
	<contour>
	  <point x="949" y="606" type="move" name="top"/>
	</contour>
	<contour>
	  <point x="949" y="0" type="move" name="bottom"/>
	</contour>
  </outline>
</glyph>
<glyph name="d_gh_ya-deva" format="1">
  <advance width="1078"/>
  <outline>
	<contour>
	  <point x="896" y="239" type="line"/>
	  <point x="896" y="174"/>
	  <point x="869" y="129"/>
	  <point x="795" y="129" type="curve" smooth="yes"/>
	  <point x="716" y="129"/>
	  <point x="699" y="167"/>
	  <point x="692" y="205" type="curve"/>
	  <point x="582" y="227" type="line"/>
	  <point x="582" y="108"/>
	  <point x="656" y="42"/>
	  <point x="779" y="42" type="curve" smooth="yes"/>
	  <point x="852" y="42"/>
	  <point x="906" y="67"/>
	  <point x="922" y="123" type="curve"/>
	  <point x="896" y="165" type="line"/>
	  <point x="896" y="52" type="line"/>
	  <point x="968" y="52" type="line"/>
	  <point x="968" y="285" type="line"/>
	</contour>
	<contour>
	  <point x="454" y="433" type="line"/>
	  <point x="454" y="340" type="line"/>
	  <point x="623" y="340" type="line" smooth="yes"/>
	  <point x="653" y="340"/>
	  <point x="666" y="331"/>
	  <point x="666" y="311" type="curve" smooth="yes"/>
	  <point x="666" y="278"/>
	  <point x="631" y="245"/>
	  <point x="582" y="227" type="curve"/>
	  <point x="633" y="149" type="line"/>
	  <point x="720" y="189"/>
	  <point x="774" y="240"/>
	  <point x="774" y="328" type="curve" smooth="yes"/>
	  <point x="774" y="398"/>
	  <point x="725" y="433"/>
	  <point x="633" y="433" type="curve" smooth="yes"/>
	</contour>
	<contour>
	  <point x="505" y="606" type="line"/>
	  <point x="505" y="513" type="line"/>
	  <point x="914" y="513" type="line"/>
	  <point x="914" y="606" type="line"/>
	</contour>
	<component base="d_gha-deva"/>
	<component base="aaMatra-deva" xOffset="820"/>
	<contour>
	  <point x="949" y="606" type="move" name="top"/>
	</contour>
	<contour>
	  <point x="949" y="0" type="move" name="bottom"/>
	</contour>
  </outline>
</glyph>
<glyph name="d_m-deva" format="1">
  <advance width="393"/>
  <outline>
	<contour>
	  <point x="254" y="305" type="line"/>
	  <point x="254" y="167" type="line"/>
	  <point x="264" y="140" type="line"/>
	  <point x="264" y="87" type="line" smooth="yes"/>
	  <point x="264" y="70"/>
	  <point x="254" y="53"/>
	  <point x="233" y="53" type="curve" smooth="yes"/>
	  <point x="214" y="53"/>
	  <point x="203" y="66"/>
	  <point x="203" y="86" type="curve" smooth="yes"/>
	  <point x="203" y="102"/>
	  <point x="216" y="119"/>
	  <point x="234" y="119" type="curve" smooth="yes"/>
	  <point x="591" y="119" type="line"/>
	  <point x="591" y="195" type="line"/>
	  <point x="234" y="195" type="line" smooth="yes"/>
	  <point x="163" y="195"/>
	  <point x="114" y="149"/>
	  <point x="114" y="86" type="curve" smooth="yes"/>
	  <point x="114" y="22"/>
	  <point x="160" y="-23"/>
	  <point x="233" y="-23" type="curve" smooth="yes"/>
	  <point x="299" y="-23"/>
	  <point x="353" y="24"/>
	  <point x="353" y="82" type="curve" smooth="yes"/>
	  <point x="353" y="305" type="line"/>
	</contour>
	<contour>
	  <point x="182" y="443" type="line" smooth="yes"/>
	  <point x="93" y="443"/>
	  <point x="32" y="402"/>
	  <point x="32" y="328" type="curve" smooth="yes"/>
	  <point x="32" y="254"/>
	  <point x="93" y="213"/>
	  <point x="182" y="213" type="curve" smooth="yes"/>
	  <point x="353" y="213" type="line"/>
	  <point x="353" y="305" type="line"/>
	  <point x="186" y="305" type="line" smooth="yes"/>
	  <point x="157" y="305"/>
	  <point x="141" y="313"/>
	  <point x="141" y="328" type="curve" smooth="yes"/>
	  <point x="141" y="343"/>
	  <point x="157" y="351"/>
	  <point x="186" y="351" type="curve" smooth="yes"/>
	  <point x="314" y="351" type="line"/>
	  <point x="314" y="443" type="line"/>
	</contour>
	<contour>
	  <point x="213" y="606" type="line"/>
	  <point x="213" y="351" type="line"/>
	  <point x="314" y="351" type="line"/>
	  <point x="314" y="606" type="line"/>
	</contour>
	<contour>
	  <point x="-10" y="606" type="line"/>
	  <point x="-10" y="513" type="line"/>
	  <point x="403" y="513" type="line"/>
	  <point x="403" y="606" type="line"/>
	</contour>
  </outline>
</glyph>
<glyph name="d_na_uMatra-deva" format="1">
  <advance width="455"/>
  <outline>
	<component base="d_na-deva"/>
	<component base="uMatra-deva.alt" xOffset="527"/>
	<contour>
	  <point x="318" y="606" type="move" name="top"/>
	</contour>
  </outline>
</glyph>
<glyph name="d_va-deva" format="1">
  <advance width="444"/>
  <outline>
	<contour>
	  <point x="247" y="606" type="line"/>
	  <point x="247" y="340" type="line"/>
	  <point x="353" y="340" type="line"/>
	  <point x="353" y="606" type="line"/>
	</contour>
	<contour>
	  <point x="-10" y="606" type="line"/>
	  <point x="-10" y="513" type="line"/>
	  <point x="454" y="513" type="line"/>
	  <point x="454" y="606" type="line"/>
	</contour>
	<contour>
	  <point x="267" y="267" type="line"/>
	  <point x="274" y="194" type="line"/>
	  <point x="289" y="169" type="line"/>
	  <point x="316" y="-37" type="line"/>
	  <point x="412" y="-37" type="line"/>
	  <point x="369" y="267" type="line"/>
	</contour>
	<contour>
	  <point x="239" y="434" type="line" smooth="yes"/>
	  <point x="114" y="434"/>
	  <point x="32" y="383"/>
	  <point x="32" y="275" type="curve" smooth="yes"/>
	  <point x="32" y="176"/>
	  <point x="101" y="124"/>
	  <point x="190" y="124" type="curve" smooth="yes"/>
	  <point x="257" y="124"/>
	  <point x="300" y="153"/>
	  <point x="317" y="169" type="curve"/>
	  <point x="289" y="262" type="line"/>
	  <point x="273" y="233"/>
	  <point x="251" y="211"/>
	  <point x="212" y="211" type="curve" smooth="yes"/>
	  <point x="173" y="211"/>
	  <point x="141" y="234"/>
	  <point x="141" y="275" type="curve" smooth="yes"/>
	  <point x="141" y="320"/>
	  <point x="181" y="340"/>
	  <point x="238" y="340" type="curve" smooth="yes"/>
	  <point x="307" y="340" type="line"/>
	  <point x="307" y="434" type="line"/>
	</contour>
	<contour>
	  <point x="115" y="180"/>
	  <point x="48" y="151"/>
	  <point x="48" y="77" type="curve" smooth="yes"/>
	  <point x="48" y="-1"/>
	  <point x="123" y="-39"/>
	  <point x="200" y="-39" type="curve" smooth="yes"/>
	  <point x="279" y="-39"/>
	  <point x="332" y="2"/>
	  <point x="345" y="62" type="curve"/>
	  <point x="298" y="111" type="line"/>
	  <point x="298" y="55"/>
	  <point x="268" y="34"/>
	  <point x="218" y="34" type="curve" smooth="yes"/>
	  <point x="176" y="34"/>
	  <point x="153" y="49"/>
	  <point x="153" y="85" type="curve" smooth="yes"/>
	  <point x="153" y="112"/>
	  <point x="166" y="124"/>
	  <point x="190" y="124" type="curve"/>
	  <point x="197" y="180" type="line"/>
	</contour>
	<contour>
	  <point x="300" y="606" type="move" name="top"/>
	</contour>
	<contour>
	  <point x="364" y="-37" type="move" name="bottom"/>
	</contour>
  </outline>
</glyph>
<glyph name="d_va_uuMatra-deva" format="1">
  <advance width="444"/>
  <outline>
	<component base="d_va-deva"/>
	<component base="uuMatra-deva.alt" xOffset="494" yOffset="-37"/>
	<contour>
	  <point x="320" y="606" type="move" name="top"/>
	</contour>
  </outline>
</glyph>
<glyph name="d_y-deva" format="1">
  <advance width="391"/>
  <outline>
	<contour>
	  <point x="191" y="459" type="line" smooth="yes"/>
	  <point x="105" y="459"/>
	  <point x="40" y="423"/>
	  <point x="40" y="346" type="curve" smooth="yes"/>
	  <point x="40" y="271"/>
	  <point x="103" y="230"/>
	  <point x="201" y="225" type="curve"/>
	  <point x="242" y="300" type="line"/>
	  <point x="221" y="300" type="line" smooth="yes"/>
	  <point x="191" y="300"/>
	  <point x="148" y="301"/>
	  <point x="148" y="333" type="curve" smooth="yes"/>
	  <point x="148" y="355"/>
	  <point x="168" y="366"/>
	  <point x="188" y="366" type="curve" smooth="yes"/>
	  <point x="323" y="366" type="line"/>
	  <point x="323" y="459" type="line"/>
	</contour>
	<contour>
	  <point x="-10" y="606" type="line"/>
	  <point x="-10" y="513" type="line"/>
	  <point x="401" y="513" type="line"/>
	  <point x="401" y="606" type="line"/>
	</contour>
	<contour>
	  <point x="246" y="606" type="line"/>
	  <point x="246" y="366" type="line"/>
	  <point x="352" y="366" type="line"/>
	  <point x="352" y="606" type="line"/>
	</contour>
	<contour>
	  <point x="459" y="219" type="line"/>
	  <point x="459" y="144"/>
	  <point x="397" y="87"/>
	  <point x="290" y="87" type="curve" smooth="yes"/>
	  <point x="225" y="87"/>
	  <point x="171" y="108"/>
	  <point x="171" y="162" type="curve" smooth="yes"/>
	  <point x="171" y="202"/>
	  <point x="201" y="221"/>
	  <point x="257" y="221" type="curve" smooth="yes"/>
	  <point x="294" y="221" type="line"/>
	  <point x="294" y="300" type="line"/>
	  <point x="254" y="300" type="line" smooth="yes"/>
	  <point x="139" y="300"/>
	  <point x="62" y="247"/>
	  <point x="62" y="153" type="curve" smooth="yes"/>
	  <point x="62" y="53"/>
	  <point x="150" y="0"/>
	  <point x="275" y="0" type="curve" smooth="yes"/>
	  <point x="429" y="0"/>
	  <point x="531" y="80"/>
	  <point x="531" y="219" type="curve"/>
	</contour>
  </outline>
</glyph>
<glyph name="d_ya-deva" format="1">
  <advance width="641"/>
  <outline>
	<contour>
	  <point x="191" y="459" type="line" smooth="yes"/>
	  <point x="105" y="459"/>
	  <point x="40" y="423"/>
	  <point x="40" y="346" type="curve" smooth="yes"/>
	  <point x="40" y="271"/>
	  <point x="103" y="230"/>
	  <point x="201" y="225" type="curve"/>
	  <point x="242" y="300" type="line"/>
	  <point x="221" y="300" type="line" smooth="yes"/>
	  <point x="191" y="300"/>
	  <point x="148" y="301"/>
	  <point x="148" y="333" type="curve" smooth="yes"/>
	  <point x="148" y="355"/>
	  <point x="168" y="366"/>
	  <point x="188" y="366" type="curve" smooth="yes"/>
	  <point x="323" y="366" type="line"/>
	  <point x="323" y="459" type="line"/>
	</contour>
	<contour>
	  <point x="-10" y="606" type="line"/>
	  <point x="-10" y="513" type="line"/>
	  <point x="434" y="513" type="line"/>
	  <point x="434" y="606" type="line"/>
	</contour>
	<contour>
	  <point x="246" y="606" type="line"/>
	  <point x="246" y="366" type="line"/>
	  <point x="352" y="366" type="line"/>
	  <point x="352" y="606" type="line"/>
	</contour>
	<contour>
	  <point x="459" y="219" type="line"/>
	  <point x="459" y="144"/>
	  <point x="397" y="87"/>
	  <point x="291" y="87" type="curve" smooth="yes"/>
	  <point x="225" y="87"/>
	  <point x="171" y="108"/>
	  <point x="171" y="162" type="curve" smooth="yes"/>
	  <point x="171" y="202"/>
	  <point x="201" y="221"/>
	  <point x="257" y="221" type="curve" smooth="yes"/>
	  <point x="294" y="221" type="line"/>
	  <point x="294" y="300" type="line"/>
	  <point x="254" y="300" type="line" smooth="yes"/>
	  <point x="139" y="300"/>
	  <point x="62" y="247"/>
	  <point x="62" y="154" type="curve" smooth="yes"/>
	  <point x="62" y="53"/>
	  <point x="151" y="0"/>
	  <point x="273" y="0" type="curve" smooth="yes"/>
	  <point x="394" y="0"/>
	  <point x="443" y="45"/>
	  <point x="472" y="69" type="curve"/>
	  <point x="459" y="115" type="line"/>
	  <point x="459" y="22" type="line"/>
	  <point x="531" y="22" type="line"/>
	  <point x="531" y="219" type="line"/>
	</contour>
	<component base="aaMatra-deva" xOffset="383"/>
	<contour>
	  <point x="512" y="606" type="move" name="top"/>
	</contour>
	<contour>
	  <point x="512" y="0" type="move" name="bottom"/>
	</contour>
  </outline>
</glyph>
<glyph name="dd-deva" format="1">
  <advance width="456"/>
  <outline>
	<component base="dda-deva"/>
	<component base="halant-deva" xOffset="401"/>
	<contour>
	  <point x="299" y="606" type="move" name="top"/>
	</contour>
	<contour>
	  <point x="213" y="0" type="move" name="bottom"/>
	</contour>
  </outline>
</glyph>
<glyph name="dd_ddha-deva" format="1">
  <advance width="509"/>
  <outline>
	<contour>
	  <point x="204" y="465" type="line" smooth="yes"/>
	  <point x="117" y="465"/>
	  <point x="63" y="433"/>
	  <point x="63" y="351" type="curve" smooth="yes"/>
	  <point x="63" y="261"/>
	  <point x="145" y="248"/>
	  <point x="206" y="248" type="curve" smooth="yes"/>
	  <point x="318" y="248" type="line" smooth="yes"/>
	  <point x="339" y="248"/>
	  <point x="360" y="244"/>
	  <point x="360" y="219" type="curve" smooth="yes"/>
	  <point x="360" y="191"/>
	  <point x="302" y="182"/>
	  <point x="243" y="182" type="curve" smooth="yes"/>
	  <point x="194" y="182"/>
	  <point x="145" y="191"/>
	  <point x="145" y="223" type="curve" smooth="yes"/>
	  <point x="145" y="229" type="line"/>
	  <point x="37" y="229" type="line" smooth="yes"/>
	  <point x="37" y="229"/>
	  <point x="36" y="224"/>
	  <point x="36" y="216" type="curve" smooth="yes"/>
	  <point x="36" y="158"/>
	  <point x="94" y="95"/>
	  <point x="251" y="95" type="curve" smooth="yes"/>
	  <point x="363" y="95"/>
	  <point x="468" y="132"/>
	  <point x="468" y="223" type="curve" smooth="yes"/>
	  <point x="468" y="302"/>
	  <point x="415" y="329"/>
	  <point x="328" y="329" type="curve" smooth="yes"/>
	  <point x="208" y="329" type="line" smooth="yes"/>
	  <point x="184" y="329"/>
	  <point x="170" y="337"/>
	  <point x="170" y="352" type="curve" smooth="yes"/>
	  <point x="170" y="366"/>
	  <point x="182" y="376"/>
	  <point x="204" y="376" type="curve" smooth="yes"/>
	  <point x="323" y="376" type="line"/>
	  <point x="323" y="465" type="line"/>
	</contour>
	<contour>
	  <point x="234" y="171" type="line" smooth="yes"/>
	  <point x="129" y="171"/>
	  <point x="62" y="114"/>
	  <point x="62" y="-3" type="curve" smooth="yes"/>
	  <point x="62" y="-118"/>
	  <point x="140" y="-186"/>
	  <point x="286" y="-186" type="curve" smooth="yes"/>
	  <point x="397" y="-186"/>
	  <point x="467" y="-132"/>
	  <point x="467" y="-54" type="curve" smooth="yes"/>
	  <point x="467" y="22"/>
	  <point x="407" y="58"/>
	  <point x="337" y="58" type="curve" smooth="yes"/>
	  <point x="240" y="58"/>
	  <point x="206" y="0"/>
	  <point x="206" y="-49" type="curve" smooth="yes"/>
	  <point x="206" y="-102"/>
	  <point x="244" y="-136"/>
	  <point x="325" y="-136" type="curve"/>
	  <point x="325" y="-104" type="line"/>
	  <point x="302" y="-104"/>
	  <point x="290" y="-90"/>
	  <point x="290" y="-64" type="curve" smooth="yes"/>
	  <point x="290" y="-37"/>
	  <point x="302" y="-23"/>
	  <point x="327" y="-23" type="curve" smooth="yes"/>
	  <point x="352" y="-23"/>
	  <point x="364" y="-36"/>
	  <point x="364" y="-64" type="curve" smooth="yes"/>
	  <point x="364" y="-90"/>
	  <point x="350" y="-104"/>
	  <point x="325" y="-104" type="curve" smooth="yes"/>
	  <point x="303" y="-104" type="line" smooth="yes"/>
	  <point x="191" y="-104"/>
	  <point x="161" y="-76"/>
	  <point x="161" y="-10" type="curve" smooth="yes"/>
	  <point x="161" y="56"/>
	  <point x="195" y="95"/>
	  <point x="246" y="95" type="curve" smooth="yes"/>
	  <point x="251" y="95" type="line"/>
	  <point x="251" y="171" type="line"/>
	</contour>
	<contour>
	  <point x="293" y="606" type="line"/>
	  <point x="293" y="376" type="line"/>
	  <point x="399" y="376" type="line"/>
	  <point x="399" y="606" type="line"/>
	</contour>
	<contour>
	  <point x="-10" y="606" type="line"/>
	  <point x="-10" y="513" type="line"/>
	  <point x="519" y="513" type="line"/>
	  <point x="519" y="606" type="line"/>
	</contour>
	<contour>
	  <point x="346" y="606" type="move" name="top"/>
	</contour>
	<contour>
	  <point x="318" y="-186" type="move" name="bottom"/>
	</contour>
  </outline>
</glyph>
<glyph name="dd_ma-deva" format="1">
  <advance width="1062"/>
  <outline>
	<contour>
	  <point x="894" y="606" type="line"/>
	  <point x="446" y="606" type="line"/>
	  <point x="446" y="513" type="line"/>
	  <point x="894" y="513" type="line"/>
	</contour>
	<contour>
	  <point x="749" y="391"/>
	  <point x="687" y="447"/>
	  <point x="592" y="447" type="curve" smooth="yes"/>
	  <point x="311" y="447" type="line"/>
	  <point x="311" y="354" type="line"/>
	  <point x="592" y="354" type="line" smooth="yes"/>
	  <point x="623" y="354"/>
	  <point x="643" y="336"/>
	  <point x="643" y="307" type="curve" smooth="yes"/>
	  <point x="643" y="146" type="line" smooth="yes"/>
	  <point x="643" y="119"/>
	  <point x="627" y="98"/>
	  <point x="604" y="98" type="curve" smooth="yes"/>
	  <point x="581" y="98"/>
	  <point x="562" y="119"/>
	  <point x="562" y="147" type="curve" smooth="yes"/>
	  <point x="562" y="173"/>
	  <point x="578" y="192"/>
	  <point x="603" y="192" type="curve" smooth="yes"/>
	  <point x="894" y="192" type="line"/>
	  <point x="894" y="286" type="line"/>
	  <point x="603" y="286" type="line" smooth="yes"/>
	  <point x="514" y="286"/>
	  <point x="456" y="230"/>
	  <point x="456" y="146" type="curve" smooth="yes"/>
	  <point x="456" y="61"/>
	  <point x="514" y="5"/>
	  <point x="602" y="5" type="curve" smooth="yes"/>
	  <point x="690" y="5"/>
	  <point x="749" y="61"/>
	  <point x="749" y="146" type="curve" smooth="yes"/>
	  <point x="749" y="307" type="line" smooth="yes"/>
	</contour>
	<component base="dda-deva"/>
	<component base="aaMatra-deva" xOffset="804"/>
	<contour>
	  <point x="933" y="606" type="move" name="top"/>
	</contour>
	<contour>
	  <point x="933" y="0" type="move" name="bottom"/>
	</contour>
  </outline>
</glyph>
<glyph name="dd_na-deva" format="1">
  <advance width="545"/>
  <outline>
	<contour>
	  <point x="376" y="98"/>
	  <point x="481" y="135"/>
	  <point x="481" y="224" type="curve" smooth="yes"/>
	  <point x="481" y="302"/>
	  <point x="428" y="329"/>
	  <point x="341" y="329" type="curve" smooth="yes"/>
	  <point x="206" y="329" type="line" smooth="yes"/>
	  <point x="182" y="329"/>
	  <point x="168" y="337"/>
	  <point x="168" y="352" type="curve" smooth="yes"/>
	  <point x="168" y="366"/>
	  <point x="180" y="376"/>
	  <point x="202" y="376" type="curve" smooth="yes"/>
	  <point x="336" y="376" type="line"/>
	  <point x="336" y="465" type="line"/>
	  <point x="202" y="465" type="line" smooth="yes"/>
	  <point x="115" y="465"/>
	  <point x="61" y="433"/>
	  <point x="61" y="351" type="curve" smooth="yes"/>
	  <point x="61" y="261"/>
	  <point x="143" y="248"/>
	  <point x="204" y="248" type="curve" smooth="yes"/>
	  <point x="331" y="248" type="line" smooth="yes"/>
	  <point x="352" y="248"/>
	  <point x="373" y="244"/>
	  <point x="373" y="220" type="curve" smooth="yes"/>
	  <point x="373" y="194"/>
	  <point x="315" y="185"/>
	  <point x="256" y="185" type="curve" smooth="yes"/>
	  <point x="207" y="185"/>
	  <point x="158" y="194"/>
	  <point x="158" y="223" type="curve" smooth="yes"/>
	  <point x="158" y="229" type="line"/>
	  <point x="50" y="229" type="line" smooth="yes"/>
	  <point x="50" y="229"/>
	  <point x="49" y="224"/>
	  <point x="49" y="216" type="curve" smooth="yes"/>
	  <point x="49" y="158"/>
	  <point x="107" y="98"/>
	  <point x="264" y="98" type="curve" smooth="yes"/>
	</contour>
	<contour>
	  <point x="227" y="-180"/>
	  <point x="281" y="-133"/>
	  <point x="281" y="-75" type="curve" smooth="yes"/>
	  <point x="281" y="-17" type="line"/>
	  <point x="197" y="-17" type="line"/>
	  <point x="197" y="-70" type="line" smooth="yes"/>
	  <point x="197" y="-87"/>
	  <point x="187" y="-104"/>
	  <point x="170" y="-104" type="curve" smooth="yes"/>
	  <point x="155" y="-104"/>
	  <point x="144" y="-91"/>
	  <point x="144" y="-71" type="curve" smooth="yes"/>
	  <point x="144" y="-55"/>
	  <point x="157" y="-38"/>
	  <point x="171" y="-38" type="curve" smooth="yes"/>
	  <point x="380" y="-38" type="line"/>
	  <point x="380" y="38" type="line"/>
	  <point x="171" y="38" type="line" smooth="yes"/>
	  <point x="109" y="38"/>
	  <point x="60" y="-8"/>
	  <point x="60" y="-71" type="curve" smooth="yes"/>
	  <point x="60" y="-135"/>
	  <point x="106" y="-180"/>
	  <point x="170" y="-180" type="curve" smooth="yes"/>
	</contour>
	<contour>
	  <point x="436" y="-186" type="line"/>
	  <point x="436" y="166" type="line"/>
	  <point x="340" y="166" type="line"/>
	  <point x="340" y="-186" type="line"/>
	</contour>
	<contour>
	  <point x="555" y="513" type="line"/>
	  <point x="555" y="606" type="line"/>
	  <point x="-10" y="606" type="line"/>
	  <point x="-10" y="513" type="line"/>
	</contour>
	<contour>
	  <point x="412" y="376" type="line"/>
	  <point x="412" y="606" type="line"/>
	  <point x="306" y="606" type="line"/>
	  <point x="306" y="376" type="line"/>
	</contour>
	<contour>
	  <point x="359" y="606" type="move" name="top"/>
	</contour>
	<contour>
	  <point x="388" y="-186" type="move" name="bottom"/>
	</contour>
  </outline>
</glyph>
